<svg width="16" height="16" viewBox="0 0 16 16" fill="none" xmlns="http://www.w3.org/2000/svg">
<path d="M2.66602 4.11765L13.3327 4.11765M10.666 14H5.33268C4.5963 14 3.99935 13.3679 3.99935 12.5882V4.82353C3.99935 4.43368 4.29783 4.11765 4.66602 4.11765H11.3327C11.7009 4.11765 11.9993 4.43368 11.9993 4.82353V12.5882C11.9993 13.3679 11.4024 14 10.666 14ZM6.66602 4.11765H9.33268C9.70087 4.11765 9.99935 3.80161 9.99935 3.41176V2.70588C9.99935 2.31603 9.70087 2 9.33268 2H6.66602C6.29783 2 5.99935 2.31603 5.99935 2.70588V3.41176C5.99935 3.80161 6.29783 4.11765 6.66602 4.11765Z" stroke="currentColor" stroke-linecap="round"/>
</svg>
