<svg width="32" height="32" viewBox="0 0 32 32" fill="none" xmlns="http://www.w3.org/2000/svg">
  <path d="M16.5 3C21.4931 3 23.9899 2.99974 25.7881 4.18945C26.5911 4.72078 27.2792 5.40891 27.8105 6.21191C29.0003 8.01015 29 10.5069 29 15.5C29 20.4931 29.0003 22.9899 27.8105 24.7881C27.2792 25.5911 26.5911 26.2792 25.7881 26.8105C23.9899 28.0003 21.4931 28 16.5 28C11.5069 28 9.01015 28.0003 7.21191 26.8105C6.40891 26.2792 5.72078 25.5911 5.18945 24.7881C3.99974 22.9899 4 20.4931 4 15.5C4 10.5069 3.99974 8.01015 5.18945 6.21191C5.72078 5.40891 6.40891 4.72078 7.21191 4.18945C9.01015 2.99974 11.5069 3 16.5 3ZM16.5 9.0293C12.926 9.0293 10.0285 11.9261 10.0283 15.5C10.0283 19.0741 12.9259 21.9717 16.5 21.9717C20.074 21.9716 22.9707 19.074 22.9707 15.5C22.9705 11.9262 20.0739 9.02942 16.5 9.0293ZM16.5 11.2188C18.8646 11.2189 20.7811 13.1354 20.7812 15.5C20.7812 17.8648 18.8648 19.7821 16.5 19.7822C14.1351 19.7822 12.2178 17.8649 12.2178 15.5C12.2179 13.1353 14.1352 11.2188 16.5 11.2188ZM23.2266 7.18359C22.3869 7.18371 21.7061 7.86437 21.7061 8.7041C21.7062 9.54368 22.387 10.2245 23.2266 10.2246C24.0663 10.2246 24.7469 9.54375 24.7471 8.7041C24.7471 7.8643 24.0664 7.18359 23.2266 7.18359Z" fill="white"/>
  </svg>
  