<svg width="32" height="32" viewBox="0 0 32 32" fill="none" xmlns="http://www.w3.org/2000/svg">
  <path d="M4.63053 15.0537C4.68565 15.0262 4.74079 15 4.79453 14.9752C5.72874 14.5425 6.67535 14.1375 7.62058 13.7324C7.67156 13.7324 7.75697 13.6731 7.80519 13.6538C7.87822 13.6221 7.95126 13.5918 8.02429 13.5601C8.16484 13.4995 8.30539 13.4402 8.44455 13.3796C8.72564 13.2597 9.00534 13.1399 9.28642 13.02L10.9688 12.2993C12.0904 11.8198 13.2134 11.339 14.335 10.8595C15.4566 10.3799 16.5796 9.89907 17.7012 9.41956C18.8228 8.94006 19.9458 8.45918 21.0674 7.97967C22.189 7.50017 23.312 7.01928 24.4336 6.53978C24.683 6.4323 24.953 6.27246 25.2203 6.22562C25.4449 6.18566 25.664 6.1085 25.89 6.06579C26.3185 5.98449 26.7911 5.95142 27.2017 6.12917C27.3437 6.19118 27.4746 6.27798 27.5834 6.38684C28.1043 6.90217 28.0312 7.74818 27.921 8.47295C27.1535 13.5243 26.386 18.577 25.6172 23.6284C25.5124 24.3214 25.3691 25.082 24.8221 25.5202C24.3591 25.8908 23.7005 25.9322 23.1287 25.7751C22.5569 25.6166 22.0526 25.2846 21.5579 24.958C19.5062 23.5994 17.4532 22.2408 15.4015 20.8822C14.9137 20.5598 14.3709 20.1382 14.3764 19.5526C14.3791 19.1998 14.5899 18.8857 14.8049 18.6059C16.5879 16.2801 19.1604 14.6817 21.0743 12.4633C21.3443 12.1505 21.5565 11.5856 21.1859 11.4051C20.9654 11.2976 20.7119 11.4437 20.5107 11.5828C17.9809 13.3397 15.4525 15.0978 12.9227 16.8546C12.0973 17.4278 11.232 18.0176 10.2372 18.1581C9.34707 18.2849 8.45145 18.0369 7.59027 17.7833C6.86826 17.5711 6.1476 17.3534 5.42972 17.1288C5.04804 17.0103 4.65396 16.8822 4.35909 16.6135C4.06423 16.3448 3.89477 15.8929 4.07252 15.5346C4.18412 15.31 4.40046 15.1681 4.62781 15.0524L4.63053 15.0537Z" fill="white"/>
  </svg>
  