<svg width="32" height="32" viewBox="0 0 32 32" fill="none" xmlns="http://www.w3.org/2000/svg">
  <path d="M16.5031 4H16.4969C9.60469 4 4 9.60625 4 16.5C4 19.2344 4.88125 21.7687 6.37969 23.8266L4.82188 28.4703L9.62656 26.9344C11.6031 28.2438 13.9609 29 16.5031 29C23.3953 29 29 23.3922 29 16.5C29 9.60781 23.3953 4 16.5031 4ZM23.7766 21.6516C23.475 22.5031 22.2781 23.2094 21.3234 23.4156C20.6703 23.5547 19.8172 23.6656 16.9453 22.475C13.2719 20.9531 10.9062 17.2203 10.7219 16.9781C10.5453 16.7359 9.2375 15.0016 9.2375 13.2078C9.2375 11.4141 10.1484 10.5406 10.5156 10.1656C10.8172 9.85781 11.3156 9.71719 11.7937 9.71719C11.9484 9.71719 12.0875 9.725 12.2125 9.73125C12.5797 9.74687 12.7641 9.76875 13.0063 10.3484C13.3078 11.075 14.0422 12.8688 14.1297 13.0531C14.2188 13.2375 14.3078 13.4875 14.1828 13.7297C14.0656 13.9797 13.9625 14.0906 13.7781 14.3031C13.5938 14.5156 13.4187 14.6781 13.2344 14.9062C13.0656 15.1047 12.875 15.3172 13.0875 15.6844C13.3 16.0437 14.0344 17.2422 15.1156 18.2047C16.5109 19.4469 17.6422 19.8438 18.0469 20.0125C18.3484 20.1375 18.7078 20.1078 18.9281 19.8734C19.2078 19.5719 19.5531 19.0719 19.9047 18.5797C20.1547 18.2266 20.4703 18.1828 20.8016 18.3078C21.1391 18.425 22.925 19.3078 23.2922 19.4906C23.6594 19.675 23.9016 19.7625 23.9906 19.9172C24.0781 20.0719 24.0781 20.7984 23.7766 21.6516Z" fill="white"/>
  </svg>
  