<svg width="22" height="20" viewBox="0 0 22 20" fill="none" xmlns="http://www.w3.org/2000/svg">
  <path d="M20.734 6.14856C20.0874 5.84305 19.322 5.90947 18.5831 6.33453C17.8969 6.73302 17.303 7.41045 16.9116 8.234C16.5245 9.06198 16.3793 9.95194 16.5069 10.7401C16.6476 11.5858 17.0787 12.2233 17.7253 12.5333C17.998 12.6617 18.284 12.7237 18.5831 12.7237C19.0053 12.7237 19.4452 12.5997 19.8807 12.3473C20.5669 11.9488 21.1607 11.2758 21.5478 10.4478C21.9393 9.62429 22.0844 8.73433 21.9524 7.9462C21.8161 7.09609 21.3806 6.4585 20.734 6.14856ZM13.6433 7.41488C13.8149 7.46358 13.9952 7.48572 14.1712 7.48572C14.7474 7.48572 15.3368 7.24663 15.8647 6.78615C16.5157 6.22826 17.0083 5.39143 17.2547 4.43948C17.501 3.48753 17.4746 2.51787 17.1799 1.7076C16.8676 0.844206 16.287 0.259752 15.5436 0.0649344C14.0832 -0.315846 12.4601 1.01689 11.9323 3.04476C11.4 5.10363 12.1522 7.02524 13.6433 7.41488ZM5.69934 19.6264C6.80341 20.1445 8.07463 20.1223 9.18749 19.5689C10.3443 18.9933 11.6639 18.9933 12.8164 19.5689C13.3926 19.8567 14.0128 19.9983 14.6331 19.9983C15.2049 19.9983 15.7767 19.8744 16.3089 19.6264C16.8676 19.365 17.3552 18.9716 17.7305 18.4798C18.1057 17.988 18.3575 17.4123 18.4643 16.8016C18.6225 15.9367 18.4878 15.0435 18.0819 14.2648C17.676 13.4862 17.0222 12.8671 16.2254 12.5067C15.5128 12.1879 14.9454 11.5946 14.6331 10.8419C14.1536 9.68185 13.1375 8.30927 11.0437 8.30927H10.9997C9.44701 8.32255 8.22858 9.19038 7.47201 10.8153C7.11572 11.5902 6.53069 12.1835 5.8269 12.489C4.15981 13.2151 3.21849 14.9862 3.53959 16.8016C3.75953 18.0457 4.56888 19.0995 5.69934 19.6264ZM5.497 10.7401C5.62457 9.95194 5.48381 9.06198 5.09233 8.234C4.24778 6.44522 2.57188 5.52869 1.26988 6.14856C-0.0277322 6.77287 -0.388423 8.65906 0.456122 10.4478C0.847604 11.2758 1.43703 11.9488 2.12762 12.3473C2.55869 12.5997 3.00295 12.7237 3.42083 12.7237C3.71994 12.7237 4.01025 12.6617 4.27857 12.5333C4.92518 12.2233 5.36064 11.5858 5.497 10.7401ZM7.85029 7.48129C8.02184 7.48129 8.19339 7.46358 8.36494 7.41488C9.8297 7.0341 10.5951 5.07264 10.0716 3.04476C9.54818 1.01689 7.92947 -0.315846 6.46031 0.0649344C5.30786 0.366017 4.58648 1.64562 4.58648 3.15988C4.58648 3.57608 4.63926 4.00557 4.75363 4.43948C5.21549 6.23269 6.53509 7.48129 7.85029 7.48129Z" fill="currentColor"/>
  </svg>
  