<svg width="160" height="160" viewBox="0 0 160 160" fill="none" xmlns="http://www.w3.org/2000/svg">
  <path d="M118.716 113.531C121.59 110.991 124.322 108.415 126.703 105.389L128.125 103.416L129.012 101.976C129.122 101.794 129.266 101.472 129.449 101.363C129.809 101.149 130.412 101.031 130.816 100.895L134.757 99.6014C138.215 98.5034 141.766 97.3068 144.97 95.5781C143.978 97.8304 142.647 100.053 141.303 102.112C136.543 109.407 130.185 116.013 122.705 120.533C121.537 121.239 120.236 122.108 118.963 122.611L118.72 122.691C118.709 123.151 118.735 123.655 118.667 124.108L118.716 113.531Z" fill="#8C6750"/>
  <path d="M118.667 90.4768L118.75 90.4398C119.102 90.2458 119.454 89.8263 119.754 89.5447L121.826 87.5736C125.093 84.2174 128.067 80.6553 130.659 76.7486C132.373 74.1659 133.86 71.4687 135.327 68.7411C135.466 69.3472 135.444 69.9908 135.458 70.6099L135.499 73.4047C135.548 81.2207 134.225 88.9398 131.179 96.1581C130.426 97.9419 129.616 99.7202 128.585 101.364C126.364 104.903 123.589 108.051 120.582 110.934C119.987 111.505 119.385 112.176 118.729 112.667L118.667 90.4768Z" fill="#8C6750"/>
  <path d="M37.706 122.435C37.5415 121.989 36.5984 121.549 36.178 121.282C33.6828 119.696 31.1894 117.875 28.9973 115.888C24.1118 111.457 19.9015 106.218 16.9359 100.315C16.2208 98.8919 15.5068 97.4276 14.9697 95.9262C17.636 97.4505 20.7667 98.6253 23.7259 99.4203C25.13 99.7975 26.5957 100.171 28.0355 100.38C28.145 100.396 28.9327 100.452 28.9715 100.489C29.0372 100.553 29.1405 100.858 29.1857 100.953L29.9088 102.365C30.6686 103.78 31.5539 105.157 32.4645 106.479C33.2503 107.621 34.0557 108.742 34.9652 109.79L37.6322 112.676C37.634 112.422 37.7243 111.572 37.6416 111.374C37.5903 111.252 37.1879 110.926 37.0844 110.817L35.3525 108.895C33.4075 106.633 31.8698 104.106 30.4542 101.49C28.6687 98.19 27.1823 94.6349 26.1953 91.0087C24.2024 83.6879 23.9903 76.0811 24.5626 68.5548L26.9822 72.9346C29.7992 77.5626 33.419 81.872 37.6364 85.2789L37.6897 82.8647L37.6773 90.4997L37.7067 111.811L37.6582 113.383L37.6763 119.532C37.6795 120.477 37.5973 121.501 37.706 122.435Z" fill="#8C6750"/>
  <path d="M118.281 34.0646C117.619 32.2934 116.387 31.4149 114.734 30.6533L68.8155 30.2796L66.6326 30.2959L50.1472 30.2999L45.3977 30.2933C44.4446 30.293 43.432 30.2169 42.4932 30.3854C41.3779 30.5856 40.2887 31.1409 39.4944 31.9532C38.5844 32.8835 37.9703 34.0977 37.7639 35.3821C37.6772 35.9229 37.7093 36.4923 37.7077 37.0384L37.7025 39.7587L37.6988 49.0896L37.6901 82.8647L37.6777 90.4997L37.7071 111.811L37.6586 113.383L37.6767 119.532C37.6799 120.477 37.5977 121.501 37.7064 122.435C37.6783 123.583 37.5576 124.918 37.8492 126.03L37.8856 126.175C38.3154 127.845 39.2625 129.006 40.6241 130.006C40.8718 130.202 41.6726 130.649 42.8946 130.864C44.4222 131.134 110.555 131.244 112.681 131.094C114.382 130.974 115.43 130.311 115.742 129.994C117.126 128.694 118.008 127.58 118.5 125.707L118.539 125.562C118.661 125.09 118.664 124.628 118.667 124.145L118.668 124.108L118.716 113.531L118.729 112.667L118.668 90.4768L118.671 56.1856L118.671 46.0417L118.664 39.8895L118.658 37.1408C118.655 36.062 118.666 35.0966 118.281 34.0646Z" fill="#19191B"/>
  <path d="M43.2856 34.1344C43.3938 34.1454 43.3345 34.1278 43.4525 34.2152L43.4383 46.9469L41.8652 46.9511L41.702 46.833L41.6815 40.2159C41.6818 39.0152 41.5012 37.4488 41.8482 36.316L41.8876 36.1945C42.1685 35.2808 42.5782 34.7477 43.2856 34.1344Z" fill="#8C6750"/>
  <path d="M42.1843 48.1089L43.4415 48.1234C43.4421 49.8497 43.5693 63.2235 43.3602 63.5915L42.7745 63.6175L41.732 63.6338L41.7097 51.8665L41.7046 49.2191C41.7039 48.8993 41.6304 48.3996 41.7849 48.126L42.1843 48.1089Z" fill="#8C6750"/>
  <path d="M41.7385 111.085L43.3957 111.044L43.4355 121.533L43.4403 124.477C43.4423 125.099 43.4087 125.739 43.5256 126.353C43.6711 127.117 44.1062 127.769 44.5209 128.411C43.9944 128.12 43.5252 127.751 43.102 127.324C42.4597 126.676 41.9938 125.827 41.8115 124.931C41.6918 124.342 41.7221 123.72 41.7223 123.122L41.7241 120.484L41.7385 111.085Z" fill="#8C6750"/>
  <path d="M43.1673 31.4394L43.4408 31.4286L43.562 31.5425L43.5609 32.5176C43.0695 32.8336 42.573 33.0749 42.1485 33.488C41.3849 34.2314 40.8808 35.2695 40.6606 36.3059C40.4245 37.4165 40.5695 38.7856 40.5674 39.921L40.5622 46.9617L39.5428 46.97L39.0783 46.9572L38.993 46.8179L38.9875 39.0249L38.9873 36.6256C38.988 36.1002 38.9473 35.5253 39.1009 35.0197L39.1394 34.9018C39.2785 34.4491 39.4352 34.0425 39.6886 33.6386C40.4848 32.3702 41.7556 31.7579 43.1673 31.4394Z" fill="url(#paint0_linear_3059_10099)"/>
  <path d="M38.9673 93.1467L40.6015 93.1309L40.6044 109.899L38.9959 109.897L38.9673 93.1467Z" fill="#8C6750"/>
  <path d="M41.743 93.1017L43.4313 93.0968L43.4113 109.882L41.7197 109.886L41.743 93.1017Z" fill="#8C6750"/>
  <path d="M39.0043 111.117L40.5931 111.112L40.5721 119.345L40.5621 122.84C40.5609 123.748 40.5065 124.734 40.7757 125.608C41.3649 127.522 42.7459 128.941 44.4811 129.867C44.3492 129.908 44.2684 129.916 44.1311 129.918C42.9285 129.939 41.4609 129.321 40.6151 128.473C39.813 127.669 39.3194 126.674 39.0833 125.567C38.945 124.919 38.9786 124.255 38.9788 123.596L38.983 120.721L39.0043 111.117Z" fill="#8C6750"/>
  <path d="M41.7217 64.782L43.4319 64.7844L43.4371 91.9372L41.7291 91.9402L41.7217 64.782Z" fill="#8C6750"/>
  <path d="M38.9923 48.102L40.5972 48.1017L40.5992 91.9382L38.9888 91.9341L38.9923 48.102Z" fill="#8C6750"/>
  <path d="M76.0637 31.5033L76.2135 31.3885L76.3783 31.4582C77.0254 31.5773 77.7287 31.5218 78.3851 31.5223L81.7668 31.5214L91.2905 31.5126L96.3295 31.518L108.869 31.5327L111.945 31.5409C112.555 31.5445 113.266 31.5099 113.86 31.638C114.769 31.8343 115.529 32.2801 116.182 32.9356C116.887 33.6422 117.378 34.567 117.498 35.5632C117.613 36.5176 117.535 37.5672 117.538 38.5335L117.551 44.4047L117.552 64.7345L117.588 100.44L117.593 124.132C117.571 125.805 117.015 127.216 115.808 128.381C114.916 129.24 113.765 129.801 112.535 129.971C111.933 130.054 111.24 129.993 110.631 129.99L106.876 129.981L93.7044 129.994L48.8634 129.927L48.8628 31.5097L67.0309 31.5183L73.3404 31.5307C74.1877 31.533 75.2439 31.6734 76.0637 31.5033Z" fill="#EFE9E3"/>
  <path d="M76.0636 31.5031L76.2134 31.3884L76.3782 31.4581C77.0253 31.5771 77.7286 31.5217 78.3849 31.5222L81.7667 31.5212L91.2904 31.5125L96.3294 31.5178C95.9156 32.5789 95.671 33.8862 95.9862 35.0033L96.0284 35.1442C96.8282 37.9298 100.133 39.2668 102.335 40.7924C103.721 41.7526 105.076 42.8465 106.244 44.0612C108.429 46.3318 110.526 48.8477 110.447 52.1721C110.364 55.6991 107.965 58.0098 105.594 60.293C104.239 58.4674 102.753 56.7634 101.061 55.2398C95.9203 50.609 89.088 47.8666 82.1784 47.6005C80.5365 47.5373 78.8467 47.6244 77.2253 47.8863C76.9114 47.9371 76.1253 48.1927 75.8823 47.9985C75.0037 47.2961 74.2258 46.2719 73.5264 45.3955C70.261 41.3038 68.008 36.6787 67.0308 31.5182L73.3402 31.5306C74.1875 31.5329 75.2438 31.6733 76.0636 31.5031Z" fill="#EFE9E3"/>
  <path d="M80.8129 53.5177L80.8196 53.5159C87.6876 53.1097 94.9392 55.8781 100.123 60.3001C105.863 65.1966 109.627 71.984 110.196 79.5625C110.751 86.9418 108.503 94.6874 103.599 100.31C98.5309 106.121 91.0256 109.645 83.3697 110.185L82.5234 110.24C75.5493 110.645 68.5867 108.056 63.3952 103.396C57.505 98.1103 54.1465 91.1159 53.7411 83.2007C53.3564 75.6854 56.3006 68.1859 61.3161 62.6495C66.2257 57.2302 73.5377 53.8852 80.8129 53.5177Z" fill="#19191B"/>
  <path d="M93.4024 97.6177C94.5753 98.1792 95.7372 98.7901 96.8189 99.5145C98.0052 100.309 99.1032 101.23 100.249 102.08C97.3739 104.594 94.2852 106.334 90.6986 107.618C88.781 108.252 86.8924 108.674 84.8936 108.945C85.6906 108.259 86.5056 107.568 87.2354 106.81C89.8407 104.104 91.8098 101.004 93.4024 97.6177Z" fill="#EFE9E3"/>
  <path d="M78.2564 54.8968L78.4931 54.8855C78.4968 54.9162 78.519 54.9503 78.5046 54.9776C78.397 55.1817 77.6988 55.6045 77.493 55.7648C77.1086 56.0642 76.7588 56.3901 76.4154 56.7344C73.6877 59.4687 71.5809 63.1004 70.0828 66.6433C69.7786 66.5977 69.4 66.3188 69.1312 66.1663C68.1271 65.5969 67.1611 65.0033 66.2259 64.3245L63.4937 62.0858C64.0784 61.3984 64.8783 60.7936 65.5919 60.2435C69.2678 57.4096 73.6623 55.552 78.2564 54.8968Z" fill="#EFE9E3"/>
  <path d="M85.2734 54.8734C86.5748 54.9772 87.848 55.3022 89.1003 55.6562C93.5448 56.9129 97.3353 59.1124 100.689 62.2625L98.2508 64.2019L93.9178 66.7811C92.0743 62.3255 89.2238 57.7374 85.2734 54.8734Z" fill="#EFE9E3"/>
  <path d="M70.0305 97.3909C70.0604 97.4001 70.0964 97.398 70.1203 97.4184C70.1809 97.4698 71.912 100.981 72.1429 101.365C73.5206 103.657 75.1831 105.688 77.1706 107.474L79.1876 109.175C77.3815 108.957 75.6794 108.683 73.9382 108.137C70.1327 106.93 66.715 104.884 63.7593 102.21C64.2526 101.51 64.984 100.857 65.6343 100.301C66.988 99.1429 68.4186 98.1521 70.0305 97.3909Z" fill="#EFE9E3"/>
  <path d="M82.3096 94.7247C85.6487 94.8281 89.397 95.6902 92.4002 97.1451C92.3059 97.6047 91.9729 98.1139 91.7544 98.5382C90.6707 100.644 89.3757 102.619 87.8973 104.467C87.2992 105.205 86.6152 105.89 85.9335 106.55C84.8707 107.58 83.7348 108.602 82.3495 109.168L82.3096 94.7247Z" fill="#EFE9E3"/>
  <path d="M79.4324 94.7178C80.0163 94.6454 80.6563 94.6863 81.2474 94.6766L81.2519 109.1C79.5258 108.043 78.064 106.882 76.6335 105.461C74.1777 103.031 72.3984 99.9567 71.1108 96.7764C73.7914 95.6192 76.5153 94.9169 79.4324 94.7178Z" fill="#EFE9E3"/>
  <path d="M80.9358 54.9777L81.1696 54.9465C81.3061 55.1404 81.2493 55.4302 81.2501 55.6658L81.259 57.969L81.2478 69.5232C78.4375 69.3678 75.8255 68.8482 73.1476 67.993C72.4531 67.7416 71.7075 67.5199 71.0581 67.1685C71.1796 66.6802 71.426 66.2165 71.6399 65.7628C73.0288 62.8166 74.7394 59.9798 77.0411 57.6543C78.1512 56.5323 79.4362 55.5157 80.9358 54.9777Z" fill="#EFE9E3"/>
  <path d="M82.3198 54.6835L82.4838 54.7204L83.1964 54.8999C83.8913 55.156 84.5793 55.6454 85.1673 56.0875C88.7374 58.7727 91.1604 63.2153 92.9792 67.2073L91.3034 67.8957C88.3571 68.9262 85.4654 69.3983 82.3552 69.5198L82.3198 54.6835Z" fill="#EFE9E3"/>
  <path d="M70.7001 68.1567C74.1911 69.6002 77.4851 70.4286 81.2695 70.5615L81.2529 81.334L79.0078 81.3323L68.229 81.3428C68.2421 76.8129 69.1883 72.4137 70.7001 68.1567Z" fill="#EFE9E3"/>
  <path d="M72.4905 82.3635L81.2656 82.3665L81.2564 93.5887C79.2902 93.6226 77.4568 93.7928 75.5237 94.1652L70.6345 95.7855C70.2806 94.9614 70.0465 94.0673 69.7933 93.208C68.7585 89.6936 68.228 86.0603 68.1582 82.4022L72.4905 82.3635Z" fill="#EFE9E3"/>
  <path d="M93.127 68.3883C93.3063 68.3508 93.2128 68.3565 93.4078 68.3769C95.0315 72.4749 95.8061 76.9109 95.8655 81.3099C95.6957 81.3961 95.4278 81.3544 95.2383 81.3542L93.528 81.3508L85.0867 81.3345L82.3086 81.3296L82.3236 70.6066C83.7311 70.546 85.1479 70.4856 86.541 70.2645C88.7868 69.9081 91.0181 69.2269 93.127 68.3883Z" fill="#EFE9E3"/>
  <path d="M87.6272 82.3645L95.8223 82.4114C95.7627 87.1516 94.7467 91.7344 92.9823 96.1271C92.4498 96.0718 91.7506 95.6875 91.2396 95.4886C88.3075 94.3936 85.42 93.8074 82.2993 93.6316L82.3124 82.3967L87.6272 82.3645Z" fill="#EFE9E3"/>
  <path d="M101.463 63.0175L101.672 63.2059C102.751 64.2442 103.721 65.5208 104.561 66.7544C107.594 71.2077 108.997 75.9987 109.171 81.3509L102.214 81.3367L96.9285 81.3436C96.9354 78.8549 96.6969 76.3146 96.1646 73.8813C95.707 71.7897 95.0348 69.7951 94.3257 67.7796C96.8928 66.4347 99.2797 64.9349 101.463 63.0175Z" fill="#EFE9E3"/>
  <path d="M62.6586 62.8453C63.3671 63.3521 64.0021 63.9671 64.7019 64.4909C66.2924 65.6816 67.9444 66.7173 69.6718 67.6948C69.5771 68.1637 69.3636 68.6324 69.2163 69.089L68.5457 71.3822C67.6766 74.6761 67.2392 77.9428 67.1006 81.3435L62.0454 81.3336L54.7959 81.3491C54.9357 74.6321 57.7934 67.5401 62.6586 62.8453Z" fill="#EFE9E3"/>
  <path d="M54.8223 82.4043L67.0746 82.3985C67.184 87.2029 68.115 91.7868 69.7164 96.3077L66.5174 98.2496C65.2042 99.2223 64.0432 100.264 62.9125 101.44C61.7585 100.205 60.6084 98.968 59.6265 97.5893C56.48 93.1712 54.9081 87.7977 54.8223 82.4043Z" fill="#EFE9E3"/>
  <path d="M96.9139 82.4185L109.19 82.3824C109.051 86.5732 108.217 90.6092 106.267 94.358C105.469 95.8914 104.502 97.2934 103.473 98.6764C102.703 99.6357 101.903 100.515 100.985 101.334C98.6873 99.5672 96.5525 97.8665 93.877 96.6622C94.2995 95.5235 94.7726 94.4076 95.1313 93.2454C96.2167 89.7286 96.7897 86.0898 96.9139 82.4185Z" fill="#EFE9E3"/>
  <defs>
  <linearGradient id="paint0_linear_3059_10099" x1="37.8675" y1="39.8474" x2="44.6091" y2="38.6557" gradientUnits="userSpaceOnUse">
  <stop stop-color="#C99463"/>
  <stop offset="1" stop-color="#E3B585"/>
  </linearGradient>
  </defs>
  </svg>
  