<?xml version="1.0" encoding="UTF-8" standalone="no"?>
<!DOCTYPE svg PUBLIC "-//W3C//DTD SVG 1.1//EN"
 "http://www.w3.org/Graphics/SVG/1.1/DTD/svg11.dtd">
<!-- Generated by graphviz version 14.1.2 (0)
 -->
<!-- Title: G Pages: 1 -->
<svg width="2062pt" height="2259pt"
 viewBox="0.00 0.00 2062.00 2259.00" xmlns="http://www.w3.org/2000/svg" xmlns:xlink="http://www.w3.org/1999/xlink">
<g id="graph0" class="graph" transform="scale(1 1) rotate(0) translate(36 2223)">
<title>G</title>
<polygon fill="white" stroke="none" points="-36,36 -36,-2223 2026.25,-2223 2026.25,36 -36,36"/>
<g id="clust1" class="cluster">
<title>cluster_common</title>
<path fill="#e8f5e9" stroke="#66bb6a" stroke-width="2" d="M1194.25,-1073C1194.25,-1073 1970.25,-1073 1970.25,-1073 1976.25,-1073 1982.25,-1079 1982.25,-1085 1982.25,-1085 1982.25,-2167 1982.25,-2167 1982.25,-2173 1976.25,-2179 1970.25,-2179 1970.25,-2179 1194.25,-2179 1194.25,-2179 1188.25,-2179 1182.25,-2173 1182.25,-2167 1182.25,-2167 1182.25,-1085 1182.25,-1085 1182.25,-1079 1188.25,-1073 1194.25,-1073"/>
<text xml:space="preserve" text-anchor="middle" x="1226.62" y="-2161.7" font-family="Helvetica Bold" font-size="14.00"> &#160;common &#160;</text>
</g>
<g id="clust2" class="cluster">
<title>cluster_consumer</title>
<path fill="#e3f2fd" stroke="#42a5f5" stroke-width="2" d="M69.12,-1333C69.12,-1333 158.62,-1333 158.62,-1333 164.62,-1333 170.62,-1339 170.62,-1345 170.62,-1345 170.62,-1478 170.62,-1478 170.62,-1484 164.62,-1490 158.62,-1490 158.62,-1490 69.12,-1490 69.12,-1490 63.12,-1490 57.12,-1484 57.12,-1478 57.12,-1478 57.12,-1345 57.12,-1345 57.12,-1339 63.12,-1333 69.12,-1333"/>
<text xml:space="preserve" text-anchor="middle" x="105.25" y="-1472.7" font-family="Helvetica Bold" font-size="14.00"> &#160;consumer &#160;</text>
</g>
<g id="clust3" class="cluster">
<title>cluster_education</title>
<path fill="#fff3e0" stroke="#ffa726" stroke-width="2" d="M20,-8C20,-8 1952.62,-8 1952.62,-8 1958.62,-8 1964.62,-14 1964.62,-20 1964.62,-20 1964.62,-624 1964.62,-624 1964.62,-630 1958.62,-636 1952.62,-636 1952.62,-636 20,-636 20,-636 14,-636 8,-630 8,-624 8,-624 8,-20 8,-20 8,-14 14,-8 20,-8"/>
<text xml:space="preserve" text-anchor="middle" x="55.38" y="-618.7" font-family="Helvetica Bold" font-size="14.00"> &#160;education &#160;</text>
</g>
<g id="clust4" class="cluster">
<title>cluster_user_management</title>
<path fill="#f3e5f5" stroke="#ab47bc" stroke-width="2" d="M1472.25,-644C1472.25,-644 1702.75,-644 1702.75,-644 1708.75,-644 1714.75,-650 1714.75,-656 1714.75,-656 1714.75,-1053 1714.75,-1053 1714.75,-1059 1708.75,-1065 1702.75,-1065 1702.75,-1065 1472.25,-1065 1472.25,-1065 1466.25,-1065 1460.25,-1059 1460.25,-1053 1460.25,-1053 1460.25,-656 1460.25,-656 1460.25,-650 1466.25,-644 1472.25,-644"/>
<text xml:space="preserve" text-anchor="middle" x="1536.12" y="-1047.7" font-family="Helvetica Bold" font-size="14.00"> &#160;user_management &#160;</text>
</g>
<!-- common__AnimalStatus -->
<g id="node1" class="node">
<title>common__AnimalStatus</title>
<path fill="white" stroke="none" d="M1870.88,-1550.5C1870.88,-1550.5 1946.38,-1550.5 1946.38,-1550.5 1952.38,-1550.5 1958.38,-1556.5 1958.38,-1562.5 1958.38,-1562.5 1958.38,-1615.5 1958.38,-1615.5 1958.38,-1621.5 1952.38,-1627.5 1946.38,-1627.5 1946.38,-1627.5 1870.88,-1627.5 1870.88,-1627.5 1864.88,-1627.5 1858.88,-1621.5 1858.88,-1615.5 1858.88,-1615.5 1858.88,-1562.5 1858.88,-1562.5 1858.88,-1556.5 1864.88,-1550.5 1870.88,-1550.5"/>
<text xml:space="preserve" text-anchor="start" x="1865.88" y="-1609.15" font-family="Helvetica,sans-Serif" font-weight="bold" font-size="13.00">AnimalStatus</text>
<text xml:space="preserve" text-anchor="start" x="1865.88" y="-1584" font-family="Helvetica,sans-Serif" font-size="10.00">code : Char</text>
<text xml:space="preserve" text-anchor="start" x="1865.88" y="-1560" font-family="Helvetica,sans-Serif" font-size="10.00">label : Char</text>
<polygon fill="#aaaaaa" stroke="#aaaaaa" points="1858.88,-1599.5 1858.88,-1599.5 1958.38,-1599.5 1958.38,-1599.5 1858.88,-1599.5"/>
<path fill="none" stroke="#aaaaaa" d="M1870.88,-1550.5C1870.88,-1550.5 1946.38,-1550.5 1946.38,-1550.5 1952.38,-1550.5 1958.38,-1556.5 1958.38,-1562.5 1958.38,-1562.5 1958.38,-1615.5 1958.38,-1615.5 1958.38,-1621.5 1952.38,-1627.5 1946.38,-1627.5 1946.38,-1627.5 1870.88,-1627.5 1870.88,-1627.5 1864.88,-1627.5 1858.88,-1621.5 1858.88,-1615.5 1858.88,-1615.5 1858.88,-1562.5 1858.88,-1562.5 1858.88,-1556.5 1864.88,-1550.5 1870.88,-1550.5"/>
</g>
<!-- common__AnimalSex -->
<g id="node2" class="node">
<title>common__AnimalSex</title>
<path fill="white" stroke="none" d="M1879.5,-1179.5C1879.5,-1179.5 1937.75,-1179.5 1937.75,-1179.5 1943.75,-1179.5 1949.75,-1185.5 1949.75,-1191.5 1949.75,-1191.5 1949.75,-1244.5 1949.75,-1244.5 1949.75,-1250.5 1943.75,-1256.5 1937.75,-1256.5 1937.75,-1256.5 1879.5,-1256.5 1879.5,-1256.5 1873.5,-1256.5 1867.5,-1250.5 1867.5,-1244.5 1867.5,-1244.5 1867.5,-1191.5 1867.5,-1191.5 1867.5,-1185.5 1873.5,-1179.5 1879.5,-1179.5"/>
<text xml:space="preserve" text-anchor="start" x="1874.5" y="-1238.15" font-family="Helvetica,sans-Serif" font-weight="bold" font-size="13.00">AnimalSex</text>
<text xml:space="preserve" text-anchor="start" x="1874.5" y="-1213" font-family="Helvetica,sans-Serif" font-size="10.00">code : Char</text>
<text xml:space="preserve" text-anchor="start" x="1874.5" y="-1189" font-family="Helvetica,sans-Serif" font-size="10.00">label : Char</text>
<polygon fill="#aaaaaa" stroke="#aaaaaa" points="1867.5,-1228.5 1867.5,-1228.5 1949.75,-1228.5 1949.75,-1228.5 1867.5,-1228.5"/>
<path fill="none" stroke="#aaaaaa" d="M1879.5,-1179.5C1879.5,-1179.5 1937.75,-1179.5 1937.75,-1179.5 1943.75,-1179.5 1949.75,-1185.5 1949.75,-1191.5 1949.75,-1191.5 1949.75,-1244.5 1949.75,-1244.5 1949.75,-1250.5 1943.75,-1256.5 1937.75,-1256.5 1937.75,-1256.5 1879.5,-1256.5 1879.5,-1256.5 1873.5,-1256.5 1867.5,-1250.5 1867.5,-1244.5 1867.5,-1244.5 1867.5,-1191.5 1867.5,-1191.5 1867.5,-1185.5 1873.5,-1179.5 1879.5,-1179.5"/>
</g>
<!-- common__AnimalPotential -->
<g id="node3" class="node">
<title>common__AnimalPotential</title>
<path fill="white" stroke="none" d="M1863,-1350.5C1863,-1350.5 1954.25,-1350.5 1954.25,-1350.5 1960.25,-1350.5 1966.25,-1356.5 1966.25,-1362.5 1966.25,-1362.5 1966.25,-1415.5 1966.25,-1415.5 1966.25,-1421.5 1960.25,-1427.5 1954.25,-1427.5 1954.25,-1427.5 1863,-1427.5 1863,-1427.5 1857,-1427.5 1851,-1421.5 1851,-1415.5 1851,-1415.5 1851,-1362.5 1851,-1362.5 1851,-1356.5 1857,-1350.5 1863,-1350.5"/>
<text xml:space="preserve" text-anchor="start" x="1858" y="-1409.15" font-family="Helvetica,sans-Serif" font-weight="bold" font-size="13.00">AnimalPotential</text>
<text xml:space="preserve" text-anchor="start" x="1858" y="-1384" font-family="Helvetica,sans-Serif" font-size="10.00">code : Char</text>
<text xml:space="preserve" text-anchor="start" x="1858" y="-1360" font-family="Helvetica,sans-Serif" font-size="10.00">label : Char</text>
<polygon fill="#aaaaaa" stroke="#aaaaaa" points="1851,-1399.5 1851,-1399.5 1966.25,-1399.5 1966.25,-1399.5 1851,-1399.5"/>
<path fill="none" stroke="#aaaaaa" d="M1863,-1350.5C1863,-1350.5 1954.25,-1350.5 1954.25,-1350.5 1960.25,-1350.5 1966.25,-1356.5 1966.25,-1362.5 1966.25,-1362.5 1966.25,-1415.5 1966.25,-1415.5 1966.25,-1421.5 1960.25,-1427.5 1954.25,-1427.5 1954.25,-1427.5 1863,-1427.5 1863,-1427.5 1857,-1427.5 1851,-1421.5 1851,-1415.5 1851,-1415.5 1851,-1362.5 1851,-1362.5 1851,-1356.5 1857,-1350.5 1863,-1350.5"/>
</g>
<!-- common__Breed -->
<g id="node4" class="node">
<title>common__Breed</title>
<path fill="white" stroke="none" d="M1877.62,-1718.5C1877.62,-1718.5 1939.62,-1718.5 1939.62,-1718.5 1945.62,-1718.5 1951.62,-1724.5 1951.62,-1730.5 1951.62,-1730.5 1951.62,-1807.5 1951.62,-1807.5 1951.62,-1813.5 1945.62,-1819.5 1939.62,-1819.5 1939.62,-1819.5 1877.62,-1819.5 1877.62,-1819.5 1871.62,-1819.5 1865.62,-1813.5 1865.62,-1807.5 1865.62,-1807.5 1865.62,-1730.5 1865.62,-1730.5 1865.62,-1724.5 1871.62,-1718.5 1877.62,-1718.5"/>
<text xml:space="preserve" text-anchor="start" x="1889.5" y="-1801.15" font-family="Helvetica,sans-Serif" font-weight="bold" font-size="13.00">Breed</text>
<text xml:space="preserve" text-anchor="start" x="1872.62" y="-1776" font-family="Helvetica,sans-Serif" font-size="10.00">name : Char</text>
<text xml:space="preserve" text-anchor="start" x="1872.62" y="-1752" font-family="Helvetica,sans-Serif" font-size="10.00">full_name : Char</text>
<text xml:space="preserve" text-anchor="start" x="1872.62" y="-1728" font-family="Helvetica,sans-Serif" font-size="10.00">photo : Image</text>
<polygon fill="#aaaaaa" stroke="#aaaaaa" points="1865.62,-1791.5 1865.62,-1791.5 1951.62,-1791.5 1951.62,-1791.5 1865.62,-1791.5"/>
<path fill="none" stroke="#aaaaaa" d="M1877.62,-1718.5C1877.62,-1718.5 1939.62,-1718.5 1939.62,-1718.5 1945.62,-1718.5 1951.62,-1724.5 1951.62,-1730.5 1951.62,-1730.5 1951.62,-1807.5 1951.62,-1807.5 1951.62,-1813.5 1945.62,-1819.5 1939.62,-1819.5 1939.62,-1819.5 1877.62,-1819.5 1877.62,-1819.5 1871.62,-1819.5 1865.62,-1813.5 1865.62,-1807.5 1865.62,-1807.5 1865.62,-1730.5 1865.62,-1730.5 1865.62,-1724.5 1871.62,-1718.5 1877.62,-1718.5"/>
</g>
<!-- common__BreedDescription -->
<g id="node5" class="node">
<title>common__BreedDescription</title>
<path fill="white" stroke="none" d="M1532.12,-1870.5C1532.12,-1870.5 1642.88,-1870.5 1642.88,-1870.5 1648.88,-1870.5 1654.88,-1876.5 1654.88,-1882.5 1654.88,-1882.5 1654.88,-2127.5 1654.88,-2127.5 1654.88,-2133.5 1648.88,-2139.5 1642.88,-2139.5 1642.88,-2139.5 1532.12,-2139.5 1532.12,-2139.5 1526.12,-2139.5 1520.12,-2133.5 1520.12,-2127.5 1520.12,-2127.5 1520.12,-1882.5 1520.12,-1882.5 1520.12,-1876.5 1526.12,-1870.5 1532.12,-1870.5"/>
<text xml:space="preserve" text-anchor="start" x="1531.25" y="-2121.15" font-family="Helvetica,sans-Serif" font-weight="bold" font-size="13.00">BreedDescription</text>
<text xml:space="preserve" text-anchor="start" x="1527.12" y="-2096" font-family="Helvetica,sans-Serif" font-size="10.00">breed : OneToOne → Breed</text>
<text xml:space="preserve" text-anchor="start" x="1527.12" y="-2072" font-family="Helvetica,sans-Serif" font-size="10.00">appearance : Text</text>
<text xml:space="preserve" text-anchor="start" x="1527.12" y="-2048" font-family="Helvetica,sans-Serif" font-size="10.00">character_rating : Int</text>
<text xml:space="preserve" text-anchor="start" x="1527.12" y="-2024" font-family="Helvetica,sans-Serif" font-size="10.00">character_text : Text</text>
<text xml:space="preserve" text-anchor="start" x="1527.12" y="-2000" font-family="Helvetica,sans-Serif" font-size="10.00">adaptability_rating : Int</text>
<text xml:space="preserve" text-anchor="start" x="1527.12" y="-1976" font-family="Helvetica,sans-Serif" font-size="10.00">adaptability_text : Text</text>
<text xml:space="preserve" text-anchor="start" x="1527.12" y="-1952" font-family="Helvetica,sans-Serif" font-size="10.00">care_rating : Int</text>
<text xml:space="preserve" text-anchor="start" x="1527.12" y="-1928" font-family="Helvetica,sans-Serif" font-size="10.00">care_text : Text</text>
<text xml:space="preserve" text-anchor="start" x="1527.12" y="-1904" font-family="Helvetica,sans-Serif" font-size="10.00">activity_rating : Int</text>
<text xml:space="preserve" text-anchor="start" x="1527.12" y="-1880" font-family="Helvetica,sans-Serif" font-size="10.00">activity_text : Text</text>
<polygon fill="#aaaaaa" stroke="#aaaaaa" points="1520.12,-2111.5 1520.12,-2111.5 1654.88,-2111.5 1654.88,-2111.5 1520.12,-2111.5"/>
<path fill="none" stroke="#aaaaaa" d="M1532.12,-1870.5C1532.12,-1870.5 1642.88,-1870.5 1642.88,-1870.5 1648.88,-1870.5 1654.88,-1876.5 1654.88,-1882.5 1654.88,-1882.5 1654.88,-2127.5 1654.88,-2127.5 1654.88,-2133.5 1648.88,-2139.5 1642.88,-2139.5 1642.88,-2139.5 1532.12,-2139.5 1532.12,-2139.5 1526.12,-2139.5 1520.12,-2133.5 1520.12,-2127.5 1520.12,-2127.5 1520.12,-1882.5 1520.12,-1882.5 1520.12,-1876.5 1526.12,-1870.5 1532.12,-1870.5"/>
</g>
<!-- common__BreedDescription&#45;&gt;common__Breed -->
<g id="edge1" class="edge">
<title>common__BreedDescription&#45;&gt;common__Breed</title>
<path fill="none" stroke="#1565c0" stroke-width="1.2" stroke-dasharray="5,2" d="M1654.62,-1956.1C1714.18,-1912.05 1800.57,-1848.17 1855.41,-1807.62"/>
<polygon fill="#1565c0" stroke="#1565c0" stroke-width="1.2" points="1855.42,-1807.61 1857.86,-1800.82 1865.07,-1800.47 1862.62,-1807.26 1855.42,-1807.61"/>
<text xml:space="preserve" text-anchor="middle" x="1774.88" y="-1881.87" font-family="Helvetica,sans-Serif" font-size="9.00" fill="#1565c0"> &#160;breed &#160;</text>
</g>
<!-- common__Puppy -->
<g id="node6" class="node">
<title>common__Puppy</title>
<path fill="white" stroke="none" d="M1521.62,-1089.5C1521.62,-1089.5 1653.38,-1089.5 1653.38,-1089.5 1659.38,-1089.5 1665.38,-1095.5 1665.38,-1101.5 1665.38,-1101.5 1665.38,-1346.5 1665.38,-1346.5 1665.38,-1352.5 1659.38,-1358.5 1653.38,-1358.5 1653.38,-1358.5 1521.62,-1358.5 1521.62,-1358.5 1515.62,-1358.5 1509.62,-1352.5 1509.62,-1346.5 1509.62,-1346.5 1509.62,-1101.5 1509.62,-1101.5 1509.62,-1095.5 1515.62,-1089.5 1521.62,-1089.5"/>
<text xml:space="preserve" text-anchor="start" x="1566.88" y="-1340.15" font-family="Helvetica,sans-Serif" font-weight="bold" font-size="13.00">Puppy</text>
<text xml:space="preserve" text-anchor="start" x="1516.62" y="-1315" font-family="Helvetica,sans-Serif" font-size="10.00">created_at : DT</text>
<text xml:space="preserve" text-anchor="start" x="1516.62" y="-1291" font-family="Helvetica,sans-Serif" font-size="10.00">updated_at : DT</text>
<text xml:space="preserve" text-anchor="start" x="1516.62" y="-1267" font-family="Helvetica,sans-Serif" font-size="10.00">name : Char</text>
<text xml:space="preserve" text-anchor="start" x="1516.62" y="-1243" font-family="Helvetica,sans-Serif" font-size="10.00">breed : FK → Breed</text>
<text xml:space="preserve" text-anchor="start" x="1516.62" y="-1219" font-family="Helvetica,sans-Serif" font-size="10.00">status : FK → AnimalStatus</text>
<text xml:space="preserve" text-anchor="start" x="1516.62" y="-1195" font-family="Helvetica,sans-Serif" font-size="10.00">birth_date : Date</text>
<text xml:space="preserve" text-anchor="start" x="1516.62" y="-1171" font-family="Helvetica,sans-Serif" font-size="10.00">sex : FK → AnimalSex</text>
<text xml:space="preserve" text-anchor="start" x="1516.62" y="-1147" font-family="Helvetica,sans-Serif" font-size="10.00">color : Char</text>
<text xml:space="preserve" text-anchor="start" x="1516.62" y="-1123" font-family="Helvetica,sans-Serif" font-size="10.00">potential : FK → AnimalPotential</text>
<text xml:space="preserve" text-anchor="start" x="1516.62" y="-1099" font-family="Helvetica,sans-Serif" font-size="10.00">description : Text</text>
<polygon fill="#aaaaaa" stroke="#aaaaaa" points="1509.62,-1330.5 1509.62,-1330.5 1665.38,-1330.5 1665.38,-1330.5 1509.62,-1330.5"/>
<path fill="none" stroke="#aaaaaa" d="M1521.62,-1089.5C1521.62,-1089.5 1653.38,-1089.5 1653.38,-1089.5 1659.38,-1089.5 1665.38,-1095.5 1665.38,-1101.5 1665.38,-1101.5 1665.38,-1346.5 1665.38,-1346.5 1665.38,-1352.5 1659.38,-1358.5 1653.38,-1358.5 1653.38,-1358.5 1521.62,-1358.5 1521.62,-1358.5 1515.62,-1358.5 1509.62,-1352.5 1509.62,-1346.5 1509.62,-1346.5 1509.62,-1101.5 1509.62,-1101.5 1509.62,-1095.5 1515.62,-1089.5 1521.62,-1089.5"/>
</g>
<!-- common__Puppy&#45;&gt;common__AnimalStatus -->
<g id="edge3" class="edge">
<title>common__Puppy&#45;&gt;common__AnimalStatus</title>
<path fill="none" stroke="#555555" stroke-width="1.2" d="M1664.95,-1288.71C1706.29,-1325.55 1756.94,-1373.75 1797,-1421.5 1828.6,-1459.16 1858.97,-1506.18 1879.86,-1540.81"/>
<polygon fill="#555555" stroke="#555555" stroke-width="1.2" points="1876.7,-1542.33 1884.83,-1549.12 1882.71,-1538.74 1876.7,-1542.33"/>
<text xml:space="preserve" text-anchor="middle" x="1774.88" y="-1423.45" font-family="Helvetica,sans-Serif" font-size="9.00" fill="#555555"> &#160;status &#160;</text>
</g>
<!-- common__Puppy&#45;&gt;common__AnimalSex -->
<g id="edge4" class="edge">
<title>common__Puppy&#45;&gt;common__AnimalSex</title>
<path fill="none" stroke="#555555" stroke-width="1.2" d="M1664.97,-1195.65C1704.29,-1184.41 1753.06,-1175.62 1797,-1182.5 1816.89,-1185.61 1838.08,-1191.69 1856.54,-1197.95"/>
<polygon fill="#555555" stroke="#555555" stroke-width="1.2" points="1855.33,-1201.24 1865.92,-1201.25 1857.65,-1194.63 1855.33,-1201.24"/>
<text xml:space="preserve" text-anchor="middle" x="1774.88" y="-1184.45" font-family="Helvetica,sans-Serif" font-size="9.00" fill="#555555"> &#160;sex &#160;</text>
</g>
<!-- common__Puppy&#45;&gt;common__AnimalPotential -->
<g id="edge5" class="edge">
<title>common__Puppy&#45;&gt;common__AnimalPotential</title>
<path fill="none" stroke="#555555" stroke-width="1.2" d="M1665.1,-1223.11C1706.5,-1225.67 1757.14,-1233.95 1797,-1256.5 1832.03,-1276.32 1860.76,-1311.82 1880.15,-1341.08"/>
<polygon fill="#555555" stroke="#555555" stroke-width="1.2" points="1877.02,-1342.7 1885.38,-1349.21 1882.91,-1338.91 1877.02,-1342.7"/>
<text xml:space="preserve" text-anchor="middle" x="1774.88" y="-1258.45" font-family="Helvetica,sans-Serif" font-size="9.00" fill="#555555"> &#160;potential &#160;</text>
</g>
<!-- common__Puppy&#45;&gt;common__Breed -->
<g id="edge2" class="edge">
<title>common__Puppy&#45;&gt;common__Breed</title>
<path fill="none" stroke="#555555" stroke-width="1.2" d="M1665.37,-1313.88C1683.03,-1337.1 1700.72,-1362.7 1714.75,-1388 1738.21,-1430.31 1730.14,-1447.23 1752.75,-1490 1768.66,-1520.09 1779.38,-1523.38 1797,-1552.5 1801.49,-1559.91 1845.75,-1646.94 1876.91,-1708.36"/>
<polygon fill="#555555" stroke="#555555" stroke-width="1.2" points="1873.71,-1709.79 1881.35,-1717.12 1879.95,-1706.62 1873.71,-1709.79"/>
<text xml:space="preserve" text-anchor="middle" x="1774.88" y="-1554.45" font-family="Helvetica,sans-Serif" font-size="9.00" fill="#555555"> &#160;breed &#160;</text>
</g>
<!-- common__PuppyPhoto -->
<g id="node7" class="node">
<title>common__PuppyPhoto</title>
<path fill="white" stroke="none" d="M1221.12,-1368.5C1221.12,-1368.5 1302.62,-1368.5 1302.62,-1368.5 1308.62,-1368.5 1314.62,-1374.5 1314.62,-1380.5 1314.62,-1380.5 1314.62,-1457.5 1314.62,-1457.5 1314.62,-1463.5 1308.62,-1469.5 1302.62,-1469.5 1302.62,-1469.5 1221.12,-1469.5 1221.12,-1469.5 1215.12,-1469.5 1209.12,-1463.5 1209.12,-1457.5 1209.12,-1457.5 1209.12,-1380.5 1209.12,-1380.5 1209.12,-1374.5 1215.12,-1368.5 1221.12,-1368.5"/>
<text xml:space="preserve" text-anchor="start" x="1222.12" y="-1451.15" font-family="Helvetica,sans-Serif" font-weight="bold" font-size="13.00">PuppyPhoto</text>
<text xml:space="preserve" text-anchor="start" x="1216.12" y="-1426" font-family="Helvetica,sans-Serif" font-size="10.00">puppy : FK → Puppy</text>
<text xml:space="preserve" text-anchor="start" x="1216.12" y="-1402" font-family="Helvetica,sans-Serif" font-size="10.00">photo : Image</text>
<text xml:space="preserve" text-anchor="start" x="1216.12" y="-1378" font-family="Helvetica,sans-Serif" font-size="10.00">order : +SmInt</text>
<polygon fill="#aaaaaa" stroke="#aaaaaa" points="1209.12,-1441.5 1209.12,-1441.5 1314.62,-1441.5 1314.62,-1441.5 1209.12,-1441.5"/>
<path fill="none" stroke="#aaaaaa" d="M1221.12,-1368.5C1221.12,-1368.5 1302.62,-1368.5 1302.62,-1368.5 1308.62,-1368.5 1314.62,-1374.5 1314.62,-1380.5 1314.62,-1380.5 1314.62,-1457.5 1314.62,-1457.5 1314.62,-1463.5 1308.62,-1469.5 1302.62,-1469.5 1302.62,-1469.5 1221.12,-1469.5 1221.12,-1469.5 1215.12,-1469.5 1209.12,-1463.5 1209.12,-1457.5 1209.12,-1457.5 1209.12,-1380.5 1209.12,-1380.5 1209.12,-1374.5 1215.12,-1368.5 1221.12,-1368.5"/>
</g>
<!-- common__PuppyPhoto&#45;&gt;common__Puppy -->
<g id="edge6" class="edge">
<title>common__PuppyPhoto&#45;&gt;common__Puppy</title>
<path fill="none" stroke="#555555" stroke-width="1.2" d="M1314.51,-1387.89C1364.28,-1357.9 1440.52,-1311.96 1499.63,-1276.34"/>
<polygon fill="#555555" stroke="#555555" stroke-width="1.2" points="1501.4,-1279.37 1508.16,-1271.21 1497.78,-1273.37 1501.4,-1279.37"/>
<text xml:space="preserve" text-anchor="middle" x="1401.62" y="-1346.65" font-family="Helvetica,sans-Serif" font-size="9.00" fill="#555555"> &#160;puppy &#160;</text>
</g>
<!-- common__PuppyDocument -->
<g id="node8" class="node">
<title>common__PuppyDocument</title>
<path fill="white" stroke="none" d="M1213.62,-1527.5C1213.62,-1527.5 1310.12,-1527.5 1310.12,-1527.5 1316.12,-1527.5 1322.12,-1533.5 1322.12,-1539.5 1322.12,-1539.5 1322.12,-1616.5 1322.12,-1616.5 1322.12,-1622.5 1316.12,-1628.5 1310.12,-1628.5 1310.12,-1628.5 1213.62,-1628.5 1213.62,-1628.5 1207.62,-1628.5 1201.62,-1622.5 1201.62,-1616.5 1201.62,-1616.5 1201.62,-1539.5 1201.62,-1539.5 1201.62,-1533.5 1207.62,-1527.5 1213.62,-1527.5"/>
<text xml:space="preserve" text-anchor="start" x="1208.62" y="-1610.15" font-family="Helvetica,sans-Serif" font-weight="bold" font-size="13.00">PuppyDocument</text>
<text xml:space="preserve" text-anchor="start" x="1208.62" y="-1585" font-family="Helvetica,sans-Serif" font-size="10.00">puppy : FK → Puppy</text>
<text xml:space="preserve" text-anchor="start" x="1208.62" y="-1561" font-family="Helvetica,sans-Serif" font-size="10.00">file : File</text>
<text xml:space="preserve" text-anchor="start" x="1208.62" y="-1537" font-family="Helvetica,sans-Serif" font-size="10.00">name : Char</text>
<polygon fill="#aaaaaa" stroke="#aaaaaa" points="1201.62,-1600.5 1201.62,-1600.5 1322.12,-1600.5 1322.12,-1600.5 1201.62,-1600.5"/>
<path fill="none" stroke="#aaaaaa" d="M1213.62,-1527.5C1213.62,-1527.5 1310.12,-1527.5 1310.12,-1527.5 1316.12,-1527.5 1322.12,-1533.5 1322.12,-1539.5 1322.12,-1539.5 1322.12,-1616.5 1322.12,-1616.5 1322.12,-1622.5 1316.12,-1628.5 1310.12,-1628.5 1310.12,-1628.5 1213.62,-1628.5 1213.62,-1628.5 1207.62,-1628.5 1201.62,-1622.5 1201.62,-1616.5 1201.62,-1616.5 1201.62,-1539.5 1201.62,-1539.5 1201.62,-1533.5 1207.62,-1527.5 1213.62,-1527.5"/>
</g>
<!-- common__PuppyDocument&#45;&gt;common__Puppy -->
<g id="edge7" class="edge">
<title>common__PuppyDocument&#45;&gt;common__Puppy</title>
<path fill="none" stroke="#555555" stroke-width="1.2" d="M1308.9,-1527.66C1359.02,-1472.83 1440.27,-1383.96 1501.94,-1316.49"/>
<polygon fill="#555555" stroke="#555555" stroke-width="1.2" points="1504.36,-1319.04 1508.52,-1309.3 1499.19,-1314.32 1504.36,-1319.04"/>
<text xml:space="preserve" text-anchor="middle" x="1401.62" y="-1445.07" font-family="Helvetica,sans-Serif" font-size="9.00" fill="#555555"> &#160;puppy &#160;</text>
</g>
<!-- common__Dog -->
<g id="node9" class="node">
<title>common__Dog</title>
<path fill="white" stroke="none" d="M1521.62,-1416.5C1521.62,-1416.5 1653.38,-1416.5 1653.38,-1416.5 1659.38,-1416.5 1665.38,-1422.5 1665.38,-1428.5 1665.38,-1428.5 1665.38,-1673.5 1665.38,-1673.5 1665.38,-1679.5 1659.38,-1685.5 1653.38,-1685.5 1653.38,-1685.5 1521.62,-1685.5 1521.62,-1685.5 1515.62,-1685.5 1509.62,-1679.5 1509.62,-1673.5 1509.62,-1673.5 1509.62,-1428.5 1509.62,-1428.5 1509.62,-1422.5 1515.62,-1416.5 1521.62,-1416.5"/>
<text xml:space="preserve" text-anchor="start" x="1574.38" y="-1667.15" font-family="Helvetica,sans-Serif" font-weight="bold" font-size="13.00">Dog</text>
<text xml:space="preserve" text-anchor="start" x="1516.62" y="-1642" font-family="Helvetica,sans-Serif" font-size="10.00">created_at : DT</text>
<text xml:space="preserve" text-anchor="start" x="1516.62" y="-1618" font-family="Helvetica,sans-Serif" font-size="10.00">updated_at : DT</text>
<text xml:space="preserve" text-anchor="start" x="1516.62" y="-1594" font-family="Helvetica,sans-Serif" font-size="10.00">name : Char</text>
<text xml:space="preserve" text-anchor="start" x="1516.62" y="-1570" font-family="Helvetica,sans-Serif" font-size="10.00">breed : FK → Breed</text>
<text xml:space="preserve" text-anchor="start" x="1516.62" y="-1546" font-family="Helvetica,sans-Serif" font-size="10.00">status : FK → AnimalStatus</text>
<text xml:space="preserve" text-anchor="start" x="1516.62" y="-1522" font-family="Helvetica,sans-Serif" font-size="10.00">birth_date : Date</text>
<text xml:space="preserve" text-anchor="start" x="1516.62" y="-1498" font-family="Helvetica,sans-Serif" font-size="10.00">sex : FK → AnimalSex</text>
<text xml:space="preserve" text-anchor="start" x="1516.62" y="-1474" font-family="Helvetica,sans-Serif" font-size="10.00">color : Char</text>
<text xml:space="preserve" text-anchor="start" x="1516.62" y="-1450" font-family="Helvetica,sans-Serif" font-size="10.00">potential : FK → AnimalPotential</text>
<text xml:space="preserve" text-anchor="start" x="1516.62" y="-1426" font-family="Helvetica,sans-Serif" font-size="10.00">description : Text</text>
<polygon fill="#aaaaaa" stroke="#aaaaaa" points="1509.62,-1657.5 1509.62,-1657.5 1665.38,-1657.5 1665.38,-1657.5 1509.62,-1657.5"/>
<path fill="none" stroke="#aaaaaa" d="M1521.62,-1416.5C1521.62,-1416.5 1653.38,-1416.5 1653.38,-1416.5 1659.38,-1416.5 1665.38,-1422.5 1665.38,-1428.5 1665.38,-1428.5 1665.38,-1673.5 1665.38,-1673.5 1665.38,-1679.5 1659.38,-1685.5 1653.38,-1685.5 1653.38,-1685.5 1521.62,-1685.5 1521.62,-1685.5 1515.62,-1685.5 1509.62,-1679.5 1509.62,-1673.5 1509.62,-1673.5 1509.62,-1428.5 1509.62,-1428.5 1509.62,-1422.5 1515.62,-1416.5 1521.62,-1416.5"/>
</g>
<!-- common__Dog&#45;&gt;common__AnimalStatus -->
<g id="edge9" class="edge">
<title>common__Dog&#45;&gt;common__AnimalStatus</title>
<path fill="none" stroke="#555555" stroke-width="1.2" d="M1665.34,-1560.15C1721.3,-1566.81 1796,-1575.71 1847.59,-1581.85"/>
<polygon fill="#555555" stroke="#555555" stroke-width="1.2" points="1847.06,-1585.31 1857.41,-1583.02 1847.89,-1578.36 1847.06,-1585.31"/>
<text xml:space="preserve" text-anchor="middle" x="1774.88" y="-1577.57" font-family="Helvetica,sans-Serif" font-size="9.00" fill="#555555"> &#160;status &#160;</text>
</g>
<!-- common__Dog&#45;&gt;common__AnimalSex -->
<g id="edge10" class="edge">
<title>common__Dog&#45;&gt;common__AnimalSex</title>
<path fill="none" stroke="#555555" stroke-width="1.2" d="M1665.15,-1454.51C1681.81,-1432.85 1699.12,-1409.83 1714.75,-1388 1732.59,-1363.1 1731.57,-1352.63 1752.75,-1330.5 1783.98,-1297.86 1825.71,-1268.16 1857.99,-1247.48"/>
<polygon fill="#555555" stroke="#555555" stroke-width="1.2" points="1859.56,-1250.63 1866.14,-1242.33 1855.82,-1244.71 1859.56,-1250.63"/>
<text xml:space="preserve" text-anchor="middle" x="1774.88" y="-1332.45" font-family="Helvetica,sans-Serif" font-size="9.00" fill="#555555"> &#160;sex &#160;</text>
</g>
<!-- common__Dog&#45;&gt;common__AnimalPotential -->
<g id="edge11" class="edge">
<title>common__Dog&#45;&gt;common__AnimalPotential</title>
<path fill="none" stroke="#555555" stroke-width="1.2" d="M1665.34,-1511.99C1719.01,-1484.75 1789.92,-1448.75 1841.15,-1422.75"/>
<polygon fill="#555555" stroke="#555555" stroke-width="1.2" points="1842.49,-1425.99 1849.82,-1418.34 1839.32,-1419.75 1842.49,-1425.99"/>
<text xml:space="preserve" text-anchor="middle" x="1774.88" y="-1467.09" font-family="Helvetica,sans-Serif" font-size="9.00" fill="#555555"> &#160;potential &#160;</text>
</g>
<!-- common__Dog&#45;&gt;common__Breed -->
<g id="edge8" class="edge">
<title>common__Dog&#45;&gt;common__Breed</title>
<path fill="none" stroke="#555555" stroke-width="1.2" d="M1665.34,-1603.49C1724.43,-1643.85 1804.43,-1698.5 1856.04,-1733.76"/>
<polygon fill="#555555" stroke="#555555" stroke-width="1.2" points="1853.92,-1736.55 1864.15,-1739.3 1857.86,-1730.77 1853.92,-1736.55"/>
<text xml:space="preserve" text-anchor="middle" x="1774.88" y="-1694.21" font-family="Helvetica,sans-Serif" font-size="9.00" fill="#555555"> &#160;breed &#160;</text>
</g>
<!-- common__PuppyParents -->
<g id="node10" class="node">
<title>common__PuppyParents</title>
<path fill="white" stroke="none" d="M1221.12,-1686.5C1221.12,-1686.5 1302.62,-1686.5 1302.62,-1686.5 1308.62,-1686.5 1314.62,-1692.5 1314.62,-1698.5 1314.62,-1698.5 1314.62,-1799.5 1314.62,-1799.5 1314.62,-1805.5 1308.62,-1811.5 1302.62,-1811.5 1302.62,-1811.5 1221.12,-1811.5 1221.12,-1811.5 1215.12,-1811.5 1209.12,-1805.5 1209.12,-1799.5 1209.12,-1799.5 1209.12,-1698.5 1209.12,-1698.5 1209.12,-1692.5 1215.12,-1686.5 1221.12,-1686.5"/>
<text xml:space="preserve" text-anchor="start" x="1216.5" y="-1793.15" font-family="Helvetica,sans-Serif" font-weight="bold" font-size="13.00">PuppyParents</text>
<text xml:space="preserve" text-anchor="start" x="1216.12" y="-1768" font-family="Helvetica,sans-Serif" font-size="10.00">puppy : FK → Puppy</text>
<text xml:space="preserve" text-anchor="start" x="1216.12" y="-1744" font-family="Helvetica,sans-Serif" font-size="10.00">dog : FK → Dog</text>
<text xml:space="preserve" text-anchor="start" x="1216.12" y="-1720" font-family="Helvetica,sans-Serif" font-size="10.00">breed : FK → Breed</text>
<text xml:space="preserve" text-anchor="start" x="1216.12" y="-1696" font-family="Helvetica,sans-Serif" font-size="10.00">role : Char</text>
<polygon fill="#aaaaaa" stroke="#aaaaaa" points="1209.12,-1783.5 1209.12,-1783.5 1314.62,-1783.5 1314.62,-1783.5 1209.12,-1783.5"/>
<path fill="none" stroke="#aaaaaa" d="M1221.12,-1686.5C1221.12,-1686.5 1302.62,-1686.5 1302.62,-1686.5 1308.62,-1686.5 1314.62,-1692.5 1314.62,-1698.5 1314.62,-1698.5 1314.62,-1799.5 1314.62,-1799.5 1314.62,-1805.5 1308.62,-1811.5 1302.62,-1811.5 1302.62,-1811.5 1221.12,-1811.5 1221.12,-1811.5 1215.12,-1811.5 1209.12,-1805.5 1209.12,-1799.5 1209.12,-1799.5 1209.12,-1698.5 1209.12,-1698.5 1209.12,-1692.5 1215.12,-1686.5 1221.12,-1686.5"/>
</g>
<!-- common__PuppyParents&#45;&gt;common__Breed -->
<g id="edge14" class="edge">
<title>common__PuppyParents&#45;&gt;common__Breed</title>
<path fill="none" stroke="#555555" stroke-width="1.2" d="M1314.55,-1750.6C1434.85,-1754.33 1732.66,-1763.57 1854.44,-1767.35"/>
<polygon fill="#555555" stroke="#555555" stroke-width="1.2" points="1854.08,-1770.84 1864.19,-1767.65 1854.3,-1763.84 1854.08,-1770.84"/>
<text xml:space="preserve" text-anchor="middle" x="1587.5" y="-1764.86" font-family="Helvetica,sans-Serif" font-size="9.00" fill="#555555"> &#160;breed &#160;</text>
</g>
<!-- common__PuppyParents&#45;&gt;common__Puppy -->
<g id="edge12" class="edge">
<title>common__PuppyParents&#45;&gt;common__Puppy</title>
<path fill="none" stroke="#555555" stroke-width="1.2" d="M1308.62,-1686.66C1315.03,-1677.21 1321.34,-1667.45 1327,-1658 1375.51,-1576.94 1380.82,-1552.89 1422.25,-1468 1439.52,-1432.63 1439.68,-1421.56 1460.25,-1388 1472.97,-1367.24 1487.81,-1345.98 1502.74,-1325.93"/>
<polygon fill="#555555" stroke="#555555" stroke-width="1.2" points="1505.53,-1328.05 1508.75,-1317.96 1499.93,-1323.84 1505.53,-1328.05"/>
<text xml:space="preserve" text-anchor="middle" x="1401.62" y="-1556.71" font-family="Helvetica,sans-Serif" font-size="9.00" fill="#555555"> &#160;puppy &#160;</text>
</g>
<!-- common__PuppyParents&#45;&gt;common__Dog -->
<g id="edge13" class="edge">
<title>common__PuppyParents&#45;&gt;common__Dog</title>
<path fill="none" stroke="#555555" stroke-width="1.2" d="M1314.51,-1717.41C1364.28,-1686.96 1440.52,-1640.31 1499.63,-1604.15"/>
<polygon fill="#555555" stroke="#555555" stroke-width="1.2" points="1501.46,-1607.13 1508.16,-1598.93 1497.81,-1601.16 1501.46,-1607.13"/>
<text xml:space="preserve" text-anchor="middle" x="1401.62" y="-1675.51" font-family="Helvetica,sans-Serif" font-size="9.00" fill="#555555"> &#160;dog &#160;</text>
</g>
<!-- common__Request -->
<g id="node11" class="node">
<title>common__Request</title>
<path fill="white" stroke="none" d="M1210.25,-1089.5C1210.25,-1089.5 1313.5,-1089.5 1313.5,-1089.5 1319.5,-1089.5 1325.5,-1095.5 1325.5,-1101.5 1325.5,-1101.5 1325.5,-1298.5 1325.5,-1298.5 1325.5,-1304.5 1319.5,-1310.5 1313.5,-1310.5 1313.5,-1310.5 1210.25,-1310.5 1210.25,-1310.5 1204.25,-1310.5 1198.25,-1304.5 1198.25,-1298.5 1198.25,-1298.5 1198.25,-1101.5 1198.25,-1101.5 1198.25,-1095.5 1204.25,-1089.5 1210.25,-1089.5"/>
<text xml:space="preserve" text-anchor="start" x="1235.25" y="-1292.15" font-family="Helvetica,sans-Serif" font-weight="bold" font-size="13.00">Request</text>
<text xml:space="preserve" text-anchor="start" x="1205.25" y="-1267" font-family="Helvetica,sans-Serif" font-size="10.00">user : FK → UserAccount</text>
<text xml:space="preserve" text-anchor="start" x="1205.25" y="-1243" font-family="Helvetica,sans-Serif" font-size="10.00">first_name : Char</text>
<text xml:space="preserve" text-anchor="start" x="1205.25" y="-1219" font-family="Helvetica,sans-Serif" font-size="10.00">last_name : Char</text>
<text xml:space="preserve" text-anchor="start" x="1205.25" y="-1195" font-family="Helvetica,sans-Serif" font-size="10.00">email : Email</text>
<text xml:space="preserve" text-anchor="start" x="1205.25" y="-1171" font-family="Helvetica,sans-Serif" font-size="10.00">phone : Char</text>
<text xml:space="preserve" text-anchor="start" x="1205.25" y="-1147" font-family="Helvetica,sans-Serif" font-size="10.00">messenger : Char</text>
<text xml:space="preserve" text-anchor="start" x="1205.25" y="-1123" font-family="Helvetica,sans-Serif" font-size="10.00">message : Text</text>
<text xml:space="preserve" text-anchor="start" x="1205.25" y="-1099" font-family="Helvetica,sans-Serif" font-size="10.00">puppy : FK → Puppy</text>
<polygon fill="#aaaaaa" stroke="#aaaaaa" points="1198.25,-1282.5 1198.25,-1282.5 1325.5,-1282.5 1325.5,-1282.5 1198.25,-1282.5"/>
<path fill="none" stroke="#aaaaaa" d="M1210.25,-1089.5C1210.25,-1089.5 1313.5,-1089.5 1313.5,-1089.5 1319.5,-1089.5 1325.5,-1095.5 1325.5,-1101.5 1325.5,-1101.5 1325.5,-1298.5 1325.5,-1298.5 1325.5,-1304.5 1319.5,-1310.5 1313.5,-1310.5 1313.5,-1310.5 1210.25,-1310.5 1210.25,-1310.5 1204.25,-1310.5 1198.25,-1304.5 1198.25,-1298.5 1198.25,-1298.5 1198.25,-1101.5 1198.25,-1101.5 1198.25,-1095.5 1204.25,-1089.5 1210.25,-1089.5"/>
</g>
<!-- common__Request&#45;&gt;common__Puppy -->
<g id="edge16" class="edge">
<title>common__Request&#45;&gt;common__Puppy</title>
<path fill="none" stroke="#555555" stroke-width="1.2" d="M1325.27,-1204.63C1374.4,-1208.27 1443.49,-1213.39 1498.28,-1217.46"/>
<polygon fill="#555555" stroke="#555555" stroke-width="1.2" points="1497.7,-1220.92 1507.93,-1218.17 1498.22,-1213.94 1497.7,-1220.92"/>
<text xml:space="preserve" text-anchor="middle" x="1401.62" y="-1213.23" font-family="Helvetica,sans-Serif" font-size="9.00" fill="#555555"> &#160;puppy &#160;</text>
</g>
<!-- user_management__UserAccount -->
<g id="node23" class="node">
<title>user_management__UserAccount</title>
<path fill="white" stroke="none" d="M1488.25,-660.5C1488.25,-660.5 1686.75,-660.5 1686.75,-660.5 1692.75,-660.5 1698.75,-666.5 1698.75,-672.5 1698.75,-672.5 1698.75,-1013.5 1698.75,-1013.5 1698.75,-1019.5 1692.75,-1025.5 1686.75,-1025.5 1686.75,-1025.5 1488.25,-1025.5 1488.25,-1025.5 1482.25,-1025.5 1476.25,-1019.5 1476.25,-1013.5 1476.25,-1013.5 1476.25,-672.5 1476.25,-672.5 1476.25,-666.5 1482.25,-660.5 1488.25,-660.5"/>
<text xml:space="preserve" text-anchor="start" x="1545.5" y="-1007.15" font-family="Helvetica,sans-Serif" font-weight="bold" font-size="13.00">UserAccount</text>
<text xml:space="preserve" text-anchor="start" x="1483.25" y="-982" font-family="Helvetica,sans-Serif" font-size="10.00">password : Char</text>
<text xml:space="preserve" text-anchor="start" x="1483.25" y="-958" font-family="Helvetica,sans-Serif" font-size="10.00">last_login : DT</text>
<text xml:space="preserve" text-anchor="start" x="1483.25" y="-934" font-family="Helvetica,sans-Serif" font-size="10.00">is_superuser : Bool</text>
<text xml:space="preserve" text-anchor="start" x="1483.25" y="-910" font-family="Helvetica,sans-Serif" font-size="10.00">email : Email</text>
<text xml:space="preserve" text-anchor="start" x="1483.25" y="-886" font-family="Helvetica,sans-Serif" font-size="10.00">first_name : Char</text>
<text xml:space="preserve" text-anchor="start" x="1483.25" y="-862" font-family="Helvetica,sans-Serif" font-size="10.00">last_name : Char</text>
<text xml:space="preserve" text-anchor="start" x="1483.25" y="-838" font-family="Helvetica,sans-Serif" font-size="10.00">phone : Char</text>
<text xml:space="preserve" text-anchor="start" x="1483.25" y="-814" font-family="Helvetica,sans-Serif" font-size="10.00">telegram : Char</text>
<text xml:space="preserve" text-anchor="start" x="1483.25" y="-790" font-family="Helvetica,sans-Serif" font-size="10.00">is_active : Bool</text>
<text xml:space="preserve" text-anchor="start" x="1483.25" y="-766" font-family="Helvetica,sans-Serif" font-size="10.00">is_staff : Bool</text>
<text xml:space="preserve" text-anchor="start" x="1483.25" y="-742" font-family="Helvetica,sans-Serif" font-size="10.00">date_joined : DT</text>
<text xml:space="preserve" text-anchor="start" x="1483.25" y="-718" font-family="Helvetica,sans-Serif" font-size="10.00">groups : ManyToMany → Group</text>
<text xml:space="preserve" text-anchor="start" x="1483.25" y="-694" font-family="Helvetica,sans-Serif" font-size="10.00">user_permissions : ManyToMany → Permission</text>
<text xml:space="preserve" text-anchor="start" x="1483.25" y="-670" font-family="Helvetica,sans-Serif" font-size="10.00">courses : ManyToMany → Course</text>
<polygon fill="#aaaaaa" stroke="#aaaaaa" points="1476.25,-997.5 1476.25,-997.5 1698.75,-997.5 1698.75,-997.5 1476.25,-997.5"/>
<path fill="none" stroke="#aaaaaa" d="M1488.25,-660.5C1488.25,-660.5 1686.75,-660.5 1686.75,-660.5 1692.75,-660.5 1698.75,-666.5 1698.75,-672.5 1698.75,-672.5 1698.75,-1013.5 1698.75,-1013.5 1698.75,-1019.5 1692.75,-1025.5 1686.75,-1025.5 1686.75,-1025.5 1488.25,-1025.5 1488.25,-1025.5 1482.25,-1025.5 1476.25,-1019.5 1476.25,-1013.5 1476.25,-1013.5 1476.25,-672.5 1476.25,-672.5 1476.25,-666.5 1482.25,-660.5 1488.25,-660.5"/>
</g>
<!-- common__Request&#45;&gt;user_management__UserAccount -->
<g id="edge15" class="edge">
<title>common__Request&#45;&gt;user_management__UserAccount</title>
<path fill="none" stroke="#555555" stroke-width="1.2" d="M1325.27,-1131.17C1365.9,-1086.35 1420.17,-1026.49 1468.72,-972.93"/>
<polygon fill="#555555" stroke="#555555" stroke-width="1.2" points="1471.11,-975.5 1475.24,-965.74 1465.93,-970.8 1471.11,-975.5"/>
<text xml:space="preserve" text-anchor="middle" x="1401.62" y="-1065.92" font-family="Helvetica,sans-Serif" font-size="9.00" fill="#555555"> &#160;user &#160;</text>
</g>
<!-- consumer__FAQItem -->
<g id="node12" class="node">
<title>consumer__FAQItem</title>
<path fill="white" stroke="none" d="M85.12,-1349.5C85.12,-1349.5 142.62,-1349.5 142.62,-1349.5 148.62,-1349.5 154.62,-1355.5 154.62,-1361.5 154.62,-1361.5 154.62,-1438.5 154.62,-1438.5 154.62,-1444.5 148.62,-1450.5 142.62,-1450.5 142.62,-1450.5 85.12,-1450.5 85.12,-1450.5 79.12,-1450.5 73.12,-1444.5 73.12,-1438.5 73.12,-1438.5 73.12,-1361.5 73.12,-1361.5 73.12,-1355.5 79.12,-1349.5 85.12,-1349.5"/>
<text xml:space="preserve" text-anchor="start" x="86.88" y="-1432.15" font-family="Helvetica,sans-Serif" font-weight="bold" font-size="13.00">FAQItem</text>
<text xml:space="preserve" text-anchor="start" x="80.12" y="-1407" font-family="Helvetica,sans-Serif" font-size="10.00">category : Char</text>
<text xml:space="preserve" text-anchor="start" x="80.12" y="-1383" font-family="Helvetica,sans-Serif" font-size="10.00">title : Char</text>
<text xml:space="preserve" text-anchor="start" x="80.12" y="-1359" font-family="Helvetica,sans-Serif" font-size="10.00">content : Text</text>
<polygon fill="#aaaaaa" stroke="#aaaaaa" points="73.12,-1422.5 73.12,-1422.5 154.62,-1422.5 154.62,-1422.5 73.12,-1422.5"/>
<path fill="none" stroke="#aaaaaa" d="M85.12,-1349.5C85.12,-1349.5 142.62,-1349.5 142.62,-1349.5 148.62,-1349.5 154.62,-1355.5 154.62,-1361.5 154.62,-1361.5 154.62,-1438.5 154.62,-1438.5 154.62,-1444.5 148.62,-1450.5 142.62,-1450.5 142.62,-1450.5 85.12,-1450.5 85.12,-1450.5 79.12,-1450.5 73.12,-1444.5 73.12,-1438.5 73.12,-1438.5 73.12,-1361.5 73.12,-1361.5 73.12,-1355.5 79.12,-1349.5 85.12,-1349.5"/>
</g>
<!-- education__InfoTag -->
<g id="node13" class="node">
<title>education__InfoTag</title>
<path fill="white" stroke="none" d="M1882.12,-150.5C1882.12,-150.5 1935.12,-150.5 1935.12,-150.5 1941.12,-150.5 1947.12,-156.5 1947.12,-162.5 1947.12,-162.5 1947.12,-239.5 1947.12,-239.5 1947.12,-245.5 1941.12,-251.5 1935.12,-251.5 1935.12,-251.5 1882.12,-251.5 1882.12,-251.5 1876.12,-251.5 1870.12,-245.5 1870.12,-239.5 1870.12,-239.5 1870.12,-162.5 1870.12,-162.5 1870.12,-156.5 1876.12,-150.5 1882.12,-150.5"/>
<text xml:space="preserve" text-anchor="start" x="1885" y="-233.15" font-family="Helvetica,sans-Serif" font-weight="bold" font-size="13.00">InfoTag</text>
<text xml:space="preserve" text-anchor="start" x="1877.12" y="-208" font-family="Helvetica,sans-Serif" font-size="10.00">code : Char</text>
<text xml:space="preserve" text-anchor="start" x="1877.12" y="-184" font-family="Helvetica,sans-Serif" font-size="10.00">label : Char</text>
<text xml:space="preserve" text-anchor="start" x="1877.12" y="-160" font-family="Helvetica,sans-Serif" font-size="10.00">order : +SmInt</text>
<polygon fill="#aaaaaa" stroke="#aaaaaa" points="1870.12,-223.5 1870.12,-223.5 1947.12,-223.5 1947.12,-223.5 1870.12,-223.5"/>
<path fill="none" stroke="#aaaaaa" d="M1882.12,-150.5C1882.12,-150.5 1935.12,-150.5 1935.12,-150.5 1941.12,-150.5 1947.12,-156.5 1947.12,-162.5 1947.12,-162.5 1947.12,-239.5 1947.12,-239.5 1947.12,-245.5 1941.12,-251.5 1935.12,-251.5 1935.12,-251.5 1882.12,-251.5 1882.12,-251.5 1876.12,-251.5 1870.12,-245.5 1870.12,-239.5 1870.12,-239.5 1870.12,-162.5 1870.12,-162.5 1870.12,-156.5 1876.12,-150.5 1882.12,-150.5"/>
</g>
<!-- education__InfoStatus -->
<g id="node14" class="node">
<title>education__InfoStatus</title>
<path fill="white" stroke="none" d="M1880.62,-380.5C1880.62,-380.5 1936.62,-380.5 1936.62,-380.5 1942.62,-380.5 1948.62,-386.5 1948.62,-392.5 1948.62,-392.5 1948.62,-469.5 1948.62,-469.5 1948.62,-475.5 1942.62,-481.5 1936.62,-481.5 1936.62,-481.5 1880.62,-481.5 1880.62,-481.5 1874.62,-481.5 1868.62,-475.5 1868.62,-469.5 1868.62,-469.5 1868.62,-392.5 1868.62,-392.5 1868.62,-386.5 1874.62,-380.5 1880.62,-380.5"/>
<text xml:space="preserve" text-anchor="start" x="1875.62" y="-463.15" font-family="Helvetica,sans-Serif" font-weight="bold" font-size="13.00">InfoStatus</text>
<text xml:space="preserve" text-anchor="start" x="1875.62" y="-438" font-family="Helvetica,sans-Serif" font-size="10.00">code : Char</text>
<text xml:space="preserve" text-anchor="start" x="1875.62" y="-414" font-family="Helvetica,sans-Serif" font-size="10.00">label : Char</text>
<text xml:space="preserve" text-anchor="start" x="1875.62" y="-390" font-family="Helvetica,sans-Serif" font-size="10.00">order : +SmInt</text>
<polygon fill="#aaaaaa" stroke="#aaaaaa" points="1868.62,-453.5 1868.62,-453.5 1948.62,-453.5 1948.62,-453.5 1868.62,-453.5"/>
<path fill="none" stroke="#aaaaaa" d="M1880.62,-380.5C1880.62,-380.5 1936.62,-380.5 1936.62,-380.5 1942.62,-380.5 1948.62,-386.5 1948.62,-392.5 1948.62,-392.5 1948.62,-469.5 1948.62,-469.5 1948.62,-475.5 1942.62,-481.5 1936.62,-481.5 1936.62,-481.5 1880.62,-481.5 1880.62,-481.5 1874.62,-481.5 1868.62,-475.5 1868.62,-469.5 1868.62,-469.5 1868.62,-392.5 1868.62,-392.5 1868.62,-386.5 1874.62,-380.5 1880.62,-380.5"/>
</g>
<!-- education__Article -->
<g id="node15" class="node">
<title>education__Article</title>
<path fill="white" stroke="none" d="M1525.38,-351.5C1525.38,-351.5 1649.62,-351.5 1649.62,-351.5 1655.62,-351.5 1661.62,-357.5 1661.62,-363.5 1661.62,-363.5 1661.62,-584.5 1661.62,-584.5 1661.62,-590.5 1655.62,-596.5 1649.62,-596.5 1649.62,-596.5 1525.38,-596.5 1525.38,-596.5 1519.38,-596.5 1513.38,-590.5 1513.38,-584.5 1513.38,-584.5 1513.38,-363.5 1513.38,-363.5 1513.38,-357.5 1519.38,-351.5 1525.38,-351.5"/>
<text xml:space="preserve" text-anchor="start" x="1566.5" y="-578.15" font-family="Helvetica,sans-Serif" font-weight="bold" font-size="13.00">Article</text>
<text xml:space="preserve" text-anchor="start" x="1520.38" y="-553" font-family="Helvetica,sans-Serif" font-size="10.00">created_at : DT</text>
<text xml:space="preserve" text-anchor="start" x="1520.38" y="-529" font-family="Helvetica,sans-Serif" font-size="10.00">updated_at : DT</text>
<text xml:space="preserve" text-anchor="start" x="1520.38" y="-505" font-family="Helvetica,sans-Serif" font-size="10.00">title : Char</text>
<text xml:space="preserve" text-anchor="start" x="1520.38" y="-481" font-family="Helvetica,sans-Serif" font-size="10.00">slug : Slug</text>
<text xml:space="preserve" text-anchor="start" x="1520.38" y="-457" font-family="Helvetica,sans-Serif" font-size="10.00">description : Text</text>
<text xml:space="preserve" text-anchor="start" x="1520.38" y="-433" font-family="Helvetica,sans-Serif" font-size="10.00">image_preview : Image</text>
<text xml:space="preserve" text-anchor="start" x="1520.38" y="-409" font-family="Helvetica,sans-Serif" font-size="10.00">status : FK → InfoStatus</text>
<text xml:space="preserve" text-anchor="start" x="1520.38" y="-385" font-family="Helvetica,sans-Serif" font-size="10.00">content : Text</text>
<text xml:space="preserve" text-anchor="start" x="1520.38" y="-361" font-family="Helvetica,sans-Serif" font-size="10.00">tags : ManyToMany → InfoTag</text>
<polygon fill="#aaaaaa" stroke="#aaaaaa" points="1513.38,-568.5 1513.38,-568.5 1661.62,-568.5 1661.62,-568.5 1513.38,-568.5"/>
<path fill="none" stroke="#aaaaaa" d="M1525.38,-351.5C1525.38,-351.5 1649.62,-351.5 1649.62,-351.5 1655.62,-351.5 1661.62,-357.5 1661.62,-363.5 1661.62,-363.5 1661.62,-584.5 1661.62,-584.5 1661.62,-590.5 1655.62,-596.5 1649.62,-596.5 1649.62,-596.5 1525.38,-596.5 1525.38,-596.5 1519.38,-596.5 1513.38,-590.5 1513.38,-584.5 1513.38,-584.5 1513.38,-363.5 1513.38,-363.5 1513.38,-357.5 1519.38,-351.5 1525.38,-351.5"/>
</g>
<!-- education__Article&#45;&gt;education__InfoTag -->
<g id="edge18" class="edge">
<title>education__Article&#45;&gt;education__InfoTag</title>
<path fill="none" stroke="#c62828" stroke-width="1.4" stroke-dasharray="1,5" d="M1661.32,-424.18C1702.49,-394.89 1754.13,-356.2 1797,-318 1820.05,-297.46 1843.8,-272.87 1863.36,-251.54"/>
<polygon fill="#c62828" stroke="#c62828" stroke-width="1.4" points="1863.31,-251.59 1873.37,-247.22 1867,-247.54 1869.73,-244.54 1869.73,-244.54 1869.73,-244.54 1867,-247.54 1866.72,-241.16 1863.31,-251.59"/>
<text xml:space="preserve" text-anchor="middle" x="1774.88" y="-356.73" font-family="Helvetica,sans-Serif" font-size="9.00" fill="#c62828"> &#160;tags &#160;</text>
</g>
<!-- education__Article&#45;&gt;education__InfoStatus -->
<g id="edge17" class="edge">
<title>education__Article&#45;&gt;education__InfoStatus</title>
<path fill="none" stroke="#555555" stroke-width="1.2" d="M1661.31,-464.19C1721.34,-456.1 1804.91,-444.84 1857.62,-437.74"/>
<polygon fill="#555555" stroke="#555555" stroke-width="1.2" points="1857.79,-441.25 1867.23,-436.44 1856.85,-434.31 1857.79,-441.25"/>
<text xml:space="preserve" text-anchor="middle" x="1774.88" y="-453.16" font-family="Helvetica,sans-Serif" font-size="9.00" fill="#555555"> &#160;status &#160;</text>
</g>
<!-- education__Course -->
<g id="node16" class="node">
<title>education__Course</title>
<path fill="white" stroke="none" d="M1525.38,-24.5C1525.38,-24.5 1649.62,-24.5 1649.62,-24.5 1655.62,-24.5 1661.62,-30.5 1661.62,-36.5 1661.62,-36.5 1661.62,-281.5 1661.62,-281.5 1661.62,-287.5 1655.62,-293.5 1649.62,-293.5 1649.62,-293.5 1525.38,-293.5 1525.38,-293.5 1519.38,-293.5 1513.38,-287.5 1513.38,-281.5 1513.38,-281.5 1513.38,-36.5 1513.38,-36.5 1513.38,-30.5 1519.38,-24.5 1525.38,-24.5"/>
<text xml:space="preserve" text-anchor="start" x="1564.25" y="-275.15" font-family="Helvetica,sans-Serif" font-weight="bold" font-size="13.00">Course</text>
<text xml:space="preserve" text-anchor="start" x="1520.38" y="-250" font-family="Helvetica,sans-Serif" font-size="10.00">created_at : DT</text>
<text xml:space="preserve" text-anchor="start" x="1520.38" y="-226" font-family="Helvetica,sans-Serif" font-size="10.00">updated_at : DT</text>
<text xml:space="preserve" text-anchor="start" x="1520.38" y="-202" font-family="Helvetica,sans-Serif" font-size="10.00">title : Char</text>
<text xml:space="preserve" text-anchor="start" x="1520.38" y="-178" font-family="Helvetica,sans-Serif" font-size="10.00">slug : Slug</text>
<text xml:space="preserve" text-anchor="start" x="1520.38" y="-154" font-family="Helvetica,sans-Serif" font-size="10.00">description : Text</text>
<text xml:space="preserve" text-anchor="start" x="1520.38" y="-130" font-family="Helvetica,sans-Serif" font-size="10.00">image_preview : Image</text>
<text xml:space="preserve" text-anchor="start" x="1520.38" y="-106" font-family="Helvetica,sans-Serif" font-size="10.00">action_text : Char</text>
<text xml:space="preserve" text-anchor="start" x="1520.38" y="-82" font-family="Helvetica,sans-Serif" font-size="10.00">difficulty : Char</text>
<text xml:space="preserve" text-anchor="start" x="1520.38" y="-58" font-family="Helvetica,sans-Serif" font-size="10.00">status : FK → InfoStatus</text>
<text xml:space="preserve" text-anchor="start" x="1520.38" y="-34" font-family="Helvetica,sans-Serif" font-size="10.00">tags : ManyToMany → InfoTag</text>
<polygon fill="#aaaaaa" stroke="#aaaaaa" points="1513.38,-265.5 1513.38,-265.5 1661.62,-265.5 1661.62,-265.5 1513.38,-265.5"/>
<path fill="none" stroke="#aaaaaa" d="M1525.38,-24.5C1525.38,-24.5 1649.62,-24.5 1649.62,-24.5 1655.62,-24.5 1661.62,-30.5 1661.62,-36.5 1661.62,-36.5 1661.62,-281.5 1661.62,-281.5 1661.62,-287.5 1655.62,-293.5 1649.62,-293.5 1649.62,-293.5 1525.38,-293.5 1525.38,-293.5 1519.38,-293.5 1513.38,-287.5 1513.38,-281.5 1513.38,-281.5 1513.38,-36.5 1513.38,-36.5 1513.38,-30.5 1519.38,-24.5 1525.38,-24.5"/>
</g>
<!-- education__Course&#45;&gt;education__InfoTag -->
<g id="edge20" class="edge">
<title>education__Course&#45;&gt;education__InfoTag</title>
<path fill="none" stroke="#c62828" stroke-width="1.4" stroke-dasharray="1,5" d="M1661.31,-168.58C1722.24,-176.6 1807.4,-187.81 1859.96,-194.73"/>
<polygon fill="#c62828" stroke="#c62828" stroke-width="1.4" points="1859.96,-194.73 1869.29,-200.49 1865.38,-195.44 1869.41,-195.97 1869.41,-195.97 1869.41,-195.97 1865.38,-195.44 1870.46,-191.57 1859.96,-194.73"/>
<text xml:space="preserve" text-anchor="middle" x="1774.88" y="-188.17" font-family="Helvetica,sans-Serif" font-size="9.00" fill="#c62828"> &#160;tags &#160;</text>
</g>
<!-- education__Course&#45;&gt;education__InfoStatus -->
<g id="edge19" class="edge">
<title>education__Course&#45;&gt;education__InfoStatus</title>
<path fill="none" stroke="#555555" stroke-width="1.2" d="M1661.25,-200.05C1703.11,-225.4 1755.48,-260.15 1797,-297.5 1821.51,-319.55 1845.29,-347.16 1864.48,-371.54"/>
<polygon fill="#555555" stroke="#555555" stroke-width="1.2" points="1861.59,-373.53 1870.49,-379.28 1867.12,-369.23 1861.59,-373.53"/>
<text xml:space="preserve" text-anchor="middle" x="1774.88" y="-299.45" font-family="Helvetica,sans-Serif" font-size="9.00" fill="#555555"> &#160;status &#160;</text>
</g>
<!-- education__CourseStep -->
<g id="node17" class="node">
<title>education__CourseStep</title>
<path fill="white" stroke="none" d="M1217.75,-39.5C1217.75,-39.5 1306,-39.5 1306,-39.5 1312,-39.5 1318,-45.5 1318,-51.5 1318,-51.5 1318,-176.5 1318,-176.5 1318,-182.5 1312,-188.5 1306,-188.5 1306,-188.5 1217.75,-188.5 1217.75,-188.5 1211.75,-188.5 1205.75,-182.5 1205.75,-176.5 1205.75,-176.5 1205.75,-51.5 1205.75,-51.5 1205.75,-45.5 1211.75,-39.5 1217.75,-39.5"/>
<text xml:space="preserve" text-anchor="start" x="1224" y="-170.15" font-family="Helvetica,sans-Serif" font-weight="bold" font-size="13.00">CourseStep</text>
<text xml:space="preserve" text-anchor="start" x="1212.75" y="-145" font-family="Helvetica,sans-Serif" font-size="10.00">created_at : DT</text>
<text xml:space="preserve" text-anchor="start" x="1212.75" y="-121" font-family="Helvetica,sans-Serif" font-size="10.00">updated_at : DT</text>
<text xml:space="preserve" text-anchor="start" x="1212.75" y="-97" font-family="Helvetica,sans-Serif" font-size="10.00">order : +SmInt</text>
<text xml:space="preserve" text-anchor="start" x="1212.75" y="-73" font-family="Helvetica,sans-Serif" font-size="10.00">course : FK → Course</text>
<text xml:space="preserve" text-anchor="start" x="1212.75" y="-49" font-family="Helvetica,sans-Serif" font-size="10.00">title : Char</text>
<polygon fill="#aaaaaa" stroke="#aaaaaa" points="1205.75,-160.5 1205.75,-160.5 1318,-160.5 1318,-160.5 1205.75,-160.5"/>
<path fill="none" stroke="#aaaaaa" d="M1217.75,-39.5C1217.75,-39.5 1306,-39.5 1306,-39.5 1312,-39.5 1318,-45.5 1318,-51.5 1318,-51.5 1318,-176.5 1318,-176.5 1318,-182.5 1312,-188.5 1306,-188.5 1306,-188.5 1217.75,-188.5 1217.75,-188.5 1211.75,-188.5 1205.75,-182.5 1205.75,-176.5 1205.75,-176.5 1205.75,-51.5 1205.75,-51.5 1205.75,-45.5 1211.75,-39.5 1217.75,-39.5"/>
</g>
<!-- education__CourseStep&#45;&gt;education__Course -->
<g id="edge21" class="edge">
<title>education__CourseStep&#45;&gt;education__Course</title>
<path fill="none" stroke="#555555" stroke-width="1.2" d="M1317.77,-121.63C1368.32,-128.66 1444.07,-139.2 1502.27,-147.29"/>
<polygon fill="#555555" stroke="#555555" stroke-width="1.2" points="1501.48,-150.71 1511.87,-148.62 1502.45,-143.78 1501.48,-150.71"/>
<text xml:space="preserve" text-anchor="middle" x="1401.62" y="-137.1" font-family="Helvetica,sans-Serif" font-size="9.00" fill="#555555"> &#160;course &#160;</text>
</g>
<!-- education__CourseLesson -->
<g id="node18" class="node">
<title>education__CourseLesson</title>
<path fill="white" stroke="none" d="M936,-324.5C936,-324.5 1050.5,-324.5 1050.5,-324.5 1056.5,-324.5 1062.5,-330.5 1062.5,-336.5 1062.5,-336.5 1062.5,-485.5 1062.5,-485.5 1062.5,-491.5 1056.5,-497.5 1050.5,-497.5 1050.5,-497.5 936,-497.5 936,-497.5 930,-497.5 924,-491.5 924,-485.5 924,-485.5 924,-336.5 924,-336.5 924,-330.5 930,-324.5 936,-324.5"/>
<text xml:space="preserve" text-anchor="start" x="946.38" y="-479.15" font-family="Helvetica,sans-Serif" font-weight="bold" font-size="13.00">CourseLesson</text>
<text xml:space="preserve" text-anchor="start" x="931" y="-454" font-family="Helvetica,sans-Serif" font-size="10.00">created_at : DT</text>
<text xml:space="preserve" text-anchor="start" x="931" y="-430" font-family="Helvetica,sans-Serif" font-size="10.00">updated_at : DT</text>
<text xml:space="preserve" text-anchor="start" x="931" y="-406" font-family="Helvetica,sans-Serif" font-size="10.00">order : +SmInt</text>
<text xml:space="preserve" text-anchor="start" x="931" y="-382" font-family="Helvetica,sans-Serif" font-size="10.00">step : FK → CourseStep</text>
<text xml:space="preserve" text-anchor="start" x="931" y="-358" font-family="Helvetica,sans-Serif" font-size="10.00">article : OneToOne → Article</text>
<text xml:space="preserve" text-anchor="start" x="931" y="-334" font-family="Helvetica,sans-Serif" font-size="10.00">title : Char</text>
<polygon fill="#aaaaaa" stroke="#aaaaaa" points="924,-469.5 924,-469.5 1062.5,-469.5 1062.5,-469.5 924,-469.5"/>
<path fill="none" stroke="#aaaaaa" d="M936,-324.5C936,-324.5 1050.5,-324.5 1050.5,-324.5 1056.5,-324.5 1062.5,-330.5 1062.5,-336.5 1062.5,-336.5 1062.5,-485.5 1062.5,-485.5 1062.5,-491.5 1056.5,-497.5 1050.5,-497.5 1050.5,-497.5 936,-497.5 936,-497.5 930,-497.5 924,-491.5 924,-485.5 924,-485.5 924,-336.5 924,-336.5 924,-330.5 930,-324.5 936,-324.5"/>
</g>
<!-- education__CourseLesson&#45;&gt;education__Article -->
<g id="edge23" class="edge">
<title>education__CourseLesson&#45;&gt;education__Article</title>
<path fill="none" stroke="#1565c0" stroke-width="1.2" stroke-dasharray="5,2" d="M1062.29,-450.72C1096.96,-468.69 1140.52,-487.91 1182.25,-497 1290.31,-520.54 1418.24,-506.46 1500.8,-492.11"/>
<polygon fill="#1565c0" stroke="#1565c0" stroke-width="1.2" points="1500.77,-492.11 1505.97,-487.12 1512.58,-490 1507.38,-494.99 1500.77,-492.11"/>
<text xml:space="preserve" text-anchor="middle" x="1261.88" y="-511.54" font-family="Helvetica,sans-Serif" font-size="9.00" fill="#1565c0"> &#160;article &#160;</text>
</g>
<!-- education__CourseLesson&#45;&gt;education__CourseStep -->
<g id="edge22" class="edge">
<title>education__CourseLesson&#45;&gt;education__CourseStep</title>
<path fill="none" stroke="#555555" stroke-width="1.2" d="M1062.22,-335.29C1104.11,-288.62 1157.43,-229.23 1198.29,-183.72"/>
<polygon fill="#555555" stroke="#555555" stroke-width="1.2" points="1200.73,-186.23 1204.81,-176.45 1195.52,-181.56 1200.73,-186.23"/>
<text xml:space="preserve" text-anchor="middle" x="1129.62" y="-273.36" font-family="Helvetica,sans-Serif" font-size="9.00" fill="#555555"> &#160;step &#160;</text>
</g>
<!-- education__CourseTask -->
<g id="node19" class="node">
<title>education__CourseTask</title>
<path fill="white" stroke="none" d="M649,-324.5C649,-324.5 768,-324.5 768,-324.5 774,-324.5 780,-330.5 780,-336.5 780,-336.5 780,-485.5 780,-485.5 780,-491.5 774,-497.5 768,-497.5 768,-497.5 649,-497.5 649,-497.5 643,-497.5 637,-491.5 637,-485.5 637,-485.5 637,-336.5 637,-336.5 637,-330.5 643,-324.5 649,-324.5"/>
<text xml:space="preserve" text-anchor="start" x="670.62" y="-479.15" font-family="Helvetica,sans-Serif" font-weight="bold" font-size="13.00">CourseTask</text>
<text xml:space="preserve" text-anchor="start" x="644" y="-454" font-family="Helvetica,sans-Serif" font-size="10.00">created_at : DT</text>
<text xml:space="preserve" text-anchor="start" x="644" y="-430" font-family="Helvetica,sans-Serif" font-size="10.00">updated_at : DT</text>
<text xml:space="preserve" text-anchor="start" x="644" y="-406" font-family="Helvetica,sans-Serif" font-size="10.00">order : +SmInt</text>
<text xml:space="preserve" text-anchor="start" x="644" y="-382" font-family="Helvetica,sans-Serif" font-size="10.00">lesson : FK → CourseLesson</text>
<text xml:space="preserve" text-anchor="start" x="644" y="-358" font-family="Helvetica,sans-Serif" font-size="10.00">title : Char</text>
<text xml:space="preserve" text-anchor="start" x="644" y="-334" font-family="Helvetica,sans-Serif" font-size="10.00">description : Text</text>
<polygon fill="#aaaaaa" stroke="#aaaaaa" points="637,-469.5 637,-469.5 780,-469.5 780,-469.5 637,-469.5"/>
<path fill="none" stroke="#aaaaaa" d="M649,-324.5C649,-324.5 768,-324.5 768,-324.5 774,-324.5 780,-330.5 780,-336.5 780,-336.5 780,-485.5 780,-485.5 780,-491.5 774,-497.5 768,-497.5 768,-497.5 649,-497.5 649,-497.5 643,-497.5 637,-491.5 637,-485.5 637,-485.5 637,-336.5 637,-336.5 637,-330.5 643,-324.5 649,-324.5"/>
</g>
<!-- education__CourseTask&#45;&gt;education__CourseLesson -->
<g id="edge24" class="edge">
<title>education__CourseTask&#45;&gt;education__CourseLesson</title>
<path fill="none" stroke="#555555" stroke-width="1.2" d="M779.76,-411C820.04,-411 870.73,-411 912.5,-411"/>
<polygon fill="#555555" stroke="#555555" stroke-width="1.2" points="912.49,-414.5 922.49,-411 912.49,-407.5 912.49,-414.5"/>
<text xml:space="preserve" text-anchor="middle" x="852" y="-412.95" font-family="Helvetica,sans-Serif" font-size="9.00" fill="#555555"> &#160;lesson &#160;</text>
</g>
<!-- education__CourseTaskQuestion -->
<g id="node20" class="node">
<title>education__CourseTaskQuestion</title>
<path fill="white" stroke="none" d="M368,-336.5C368,-336.5 491.5,-336.5 491.5,-336.5 497.5,-336.5 503.5,-342.5 503.5,-348.5 503.5,-348.5 503.5,-473.5 503.5,-473.5 503.5,-479.5 497.5,-485.5 491.5,-485.5 491.5,-485.5 368,-485.5 368,-485.5 362,-485.5 356,-479.5 356,-473.5 356,-473.5 356,-348.5 356,-348.5 356,-342.5 362,-336.5 368,-336.5"/>
<text xml:space="preserve" text-anchor="start" x="363" y="-467.15" font-family="Helvetica,sans-Serif" font-weight="bold" font-size="13.00">CourseTaskQuestion</text>
<text xml:space="preserve" text-anchor="start" x="363" y="-442" font-family="Helvetica,sans-Serif" font-size="10.00">created_at : DT</text>
<text xml:space="preserve" text-anchor="start" x="363" y="-418" font-family="Helvetica,sans-Serif" font-size="10.00">updated_at : DT</text>
<text xml:space="preserve" text-anchor="start" x="363" y="-394" font-family="Helvetica,sans-Serif" font-size="10.00">order : +SmInt</text>
<text xml:space="preserve" text-anchor="start" x="363" y="-370" font-family="Helvetica,sans-Serif" font-size="10.00">task : FK → CourseTask</text>
<text xml:space="preserve" text-anchor="start" x="363" y="-346" font-family="Helvetica,sans-Serif" font-size="10.00">text : Text</text>
<polygon fill="#aaaaaa" stroke="#aaaaaa" points="356,-457.5 356,-457.5 503.5,-457.5 503.5,-457.5 356,-457.5"/>
<path fill="none" stroke="#aaaaaa" d="M368,-336.5C368,-336.5 491.5,-336.5 491.5,-336.5 497.5,-336.5 503.5,-342.5 503.5,-348.5 503.5,-348.5 503.5,-473.5 503.5,-473.5 503.5,-479.5 497.5,-485.5 491.5,-485.5 491.5,-485.5 368,-485.5 368,-485.5 362,-485.5 356,-479.5 356,-473.5 356,-473.5 356,-348.5 356,-348.5 356,-342.5 362,-336.5 368,-336.5"/>
</g>
<!-- education__CourseTaskQuestion&#45;&gt;education__CourseTask -->
<g id="edge25" class="edge">
<title>education__CourseTaskQuestion&#45;&gt;education__CourseTask</title>
<path fill="none" stroke="#555555" stroke-width="1.2" d="M503.46,-411C540.91,-411 586.7,-411 625.41,-411"/>
<polygon fill="#555555" stroke="#555555" stroke-width="1.2" points="625.37,-414.5 635.37,-411 625.37,-407.5 625.37,-414.5"/>
<text xml:space="preserve" text-anchor="middle" x="570.25" y="-412.95" font-family="Helvetica,sans-Serif" font-size="9.00" fill="#555555"> &#160;task &#160;</text>
</g>
<!-- education__CourseTaskAnswer -->
<g id="node21" class="node">
<title>education__CourseTaskAnswer</title>
<path fill="white" stroke="none" d="M36,-324.5C36,-324.5 191.75,-324.5 191.75,-324.5 197.75,-324.5 203.75,-330.5 203.75,-336.5 203.75,-336.5 203.75,-485.5 203.75,-485.5 203.75,-491.5 197.75,-497.5 191.75,-497.5 191.75,-497.5 36,-497.5 36,-497.5 30,-497.5 24,-491.5 24,-485.5 24,-485.5 24,-336.5 24,-336.5 24,-330.5 30,-324.5 36,-324.5"/>
<text xml:space="preserve" text-anchor="start" x="52" y="-479.15" font-family="Helvetica,sans-Serif" font-weight="bold" font-size="13.00">CourseTaskAnswer</text>
<text xml:space="preserve" text-anchor="start" x="31" y="-454" font-family="Helvetica,sans-Serif" font-size="10.00">created_at : DT</text>
<text xml:space="preserve" text-anchor="start" x="31" y="-430" font-family="Helvetica,sans-Serif" font-size="10.00">updated_at : DT</text>
<text xml:space="preserve" text-anchor="start" x="31" y="-406" font-family="Helvetica,sans-Serif" font-size="10.00">order : +SmInt</text>
<text xml:space="preserve" text-anchor="start" x="31" y="-382" font-family="Helvetica,sans-Serif" font-size="10.00">question : FK → CourseTaskQuestion</text>
<text xml:space="preserve" text-anchor="start" x="31" y="-358" font-family="Helvetica,sans-Serif" font-size="10.00">text : Char</text>
<text xml:space="preserve" text-anchor="start" x="31" y="-334" font-family="Helvetica,sans-Serif" font-size="10.00">is_correct : Bool</text>
<polygon fill="#aaaaaa" stroke="#aaaaaa" points="24,-469.5 24,-469.5 203.75,-469.5 203.75,-469.5 24,-469.5"/>
<path fill="none" stroke="#aaaaaa" d="M36,-324.5C36,-324.5 191.75,-324.5 191.75,-324.5 197.75,-324.5 203.75,-330.5 203.75,-336.5 203.75,-336.5 203.75,-485.5 203.75,-485.5 203.75,-491.5 197.75,-497.5 191.75,-497.5 191.75,-497.5 36,-497.5 36,-497.5 30,-497.5 24,-491.5 24,-485.5 24,-485.5 24,-336.5 24,-336.5 24,-330.5 30,-324.5 36,-324.5"/>
</g>
<!-- education__CourseTaskAnswer&#45;&gt;education__CourseTaskQuestion -->
<g id="edge26" class="edge">
<title>education__CourseTaskAnswer&#45;&gt;education__CourseTaskQuestion</title>
<path fill="none" stroke="#555555" stroke-width="1.2" d="M203.56,-411C247.73,-411 300.86,-411 344.42,-411"/>
<polygon fill="#555555" stroke="#555555" stroke-width="1.2" points="344.33,-414.5 354.33,-411 344.33,-407.5 344.33,-414.5"/>
<text xml:space="preserve" text-anchor="middle" x="279.88" y="-412.95" font-family="Helvetica,sans-Serif" font-size="9.00" fill="#555555"> &#160;question &#160;</text>
</g>
<!-- education__CourseEnrollment -->
<g id="node22" class="node">
<title>education__CourseEnrollment</title>
<path fill="white" stroke="none" d="M1208.75,-246.5C1208.75,-246.5 1315,-246.5 1315,-246.5 1321,-246.5 1327,-252.5 1327,-258.5 1327,-258.5 1327,-455.5 1327,-455.5 1327,-461.5 1321,-467.5 1315,-467.5 1315,-467.5 1208.75,-467.5 1208.75,-467.5 1202.75,-467.5 1196.75,-461.5 1196.75,-455.5 1196.75,-455.5 1196.75,-258.5 1196.75,-258.5 1196.75,-252.5 1202.75,-246.5 1208.75,-246.5"/>
<text xml:space="preserve" text-anchor="start" x="1203.75" y="-449.15" font-family="Helvetica,sans-Serif" font-weight="bold" font-size="13.00">CourseEnrollment</text>
<text xml:space="preserve" text-anchor="start" x="1203.75" y="-424" font-family="Helvetica,sans-Serif" font-size="10.00">created_at : DT</text>
<text xml:space="preserve" text-anchor="start" x="1203.75" y="-400" font-family="Helvetica,sans-Serif" font-size="10.00">updated_at : DT</text>
<text xml:space="preserve" text-anchor="start" x="1203.75" y="-376" font-family="Helvetica,sans-Serif" font-size="10.00">user : FK → UserAccount</text>
<text xml:space="preserve" text-anchor="start" x="1203.75" y="-352" font-family="Helvetica,sans-Serif" font-size="10.00">course : FK → Course</text>
<text xml:space="preserve" text-anchor="start" x="1203.75" y="-328" font-family="Helvetica,sans-Serif" font-size="10.00">status : Char</text>
<text xml:space="preserve" text-anchor="start" x="1203.75" y="-304" font-family="Helvetica,sans-Serif" font-size="10.00">progress : +SmInt</text>
<text xml:space="preserve" text-anchor="start" x="1203.75" y="-280" font-family="Helvetica,sans-Serif" font-size="10.00">started_at : DT</text>
<text xml:space="preserve" text-anchor="start" x="1203.75" y="-256" font-family="Helvetica,sans-Serif" font-size="10.00">completed_at : DT</text>
<polygon fill="#aaaaaa" stroke="#aaaaaa" points="1196.75,-439.5 1196.75,-439.5 1327,-439.5 1327,-439.5 1196.75,-439.5"/>
<path fill="none" stroke="#aaaaaa" d="M1208.75,-246.5C1208.75,-246.5 1315,-246.5 1315,-246.5 1321,-246.5 1327,-252.5 1327,-258.5 1327,-258.5 1327,-455.5 1327,-455.5 1327,-461.5 1321,-467.5 1315,-467.5 1315,-467.5 1208.75,-467.5 1208.75,-467.5 1202.75,-467.5 1196.75,-461.5 1196.75,-455.5 1196.75,-455.5 1196.75,-258.5 1196.75,-258.5 1196.75,-252.5 1202.75,-246.5 1208.75,-246.5"/>
</g>
<!-- education__CourseEnrollment&#45;&gt;education__Course -->
<g id="edge28" class="edge">
<title>education__CourseEnrollment&#45;&gt;education__Course</title>
<path fill="none" stroke="#555555" stroke-width="1.2" d="M1326.81,-317.88C1377.45,-286.9 1448.57,-243.39 1503.58,-209.73"/>
<polygon fill="#555555" stroke="#555555" stroke-width="1.2" points="1505.41,-212.72 1512.11,-204.51 1501.75,-206.75 1505.41,-212.72"/>
<text xml:space="preserve" text-anchor="middle" x="1401.62" y="-283.51" font-family="Helvetica,sans-Serif" font-size="9.00" fill="#555555"> &#160;course &#160;</text>
</g>
<!-- education__CourseEnrollment&#45;&gt;user_management__UserAccount -->
<g id="edge27" class="edge">
<title>education__CourseEnrollment&#45;&gt;user_management__UserAccount</title>
<path fill="none" stroke="#555555" stroke-width="1.2" d="M1309.39,-467.26C1334.5,-524.91 1363.78,-588.81 1381,-615 1406.23,-653.38 1437.76,-691.77 1468.5,-725.8"/>
<polygon fill="#555555" stroke="#555555" stroke-width="1.2" points="1465.75,-727.98 1475.07,-733.01 1470.92,-723.26 1465.75,-727.98"/>
<text xml:space="preserve" text-anchor="middle" x="1401.62" y="-671.2" font-family="Helvetica,sans-Serif" font-size="9.00" fill="#555555"> &#160;user &#160;</text>
</g>
<!-- user_management__UserAccount&#45;&gt;education__Course -->
<g id="edge29" class="edge">
<title>user_management__UserAccount&#45;&gt;education__Course</title>
<path fill="none" stroke="#c62828" stroke-width="1.4" stroke-dasharray="1,5" d="M1476.32,-720.89C1450.08,-684.88 1425.76,-643.67 1411.98,-601.25 1373.21,-481.87 1409.17,-437.65 1460.25,-323 1472.19,-296.2 1489.4,-269.87 1507.33,-246.41"/>
<polygon fill="#c62828" stroke="#c62828" stroke-width="1.4" points="1507.26,-246.49 1516.95,-241.37 1510.62,-242.18 1513.11,-238.97 1513.11,-238.97 1513.11,-238.97 1510.62,-242.18 1509.85,-235.84 1507.26,-246.49"/>
<text xml:space="preserve" text-anchor="middle" x="1401.62" y="-592.7" font-family="Helvetica,sans-Serif" font-size="9.00" fill="#c62828"> &#160;courses &#160;</text>
</g>
</g>
</svg>
