<svg width="160" height="160" viewBox="0 0 160 160" fill="none" xmlns="http://www.w3.org/2000/svg">
  <path d="M33.2022 49.1433C33.3324 49.1181 33.5037 49.0897 33.6349 49.1039C33.8389 49.1257 33.99 49.2675 34.1124 49.4229C34.3066 49.6695 34.2947 49.9129 34.2463 50.2062C34.1009 50.4367 34.0331 50.5089 33.7863 50.6231C33.6959 50.6449 33.6821 50.6513 33.5789 50.6596C33.3984 50.6742 33.1824 50.6385 33.0482 50.5099C32.8713 50.3402 32.774 50.0266 32.7935 49.7837C32.82 49.456 32.9627 49.3295 33.2022 49.1433Z" fill="#EFE9E3"/>
  <path d="M40.7407 120.117C41.864 120.057 42.964 120.223 43.908 120.882C44.9117 121.582 45.6617 122.688 45.8571 123.909L45.8771 124.04L45.9117 124.251C46.0739 125.488 45.7616 126.764 45.006 127.761C44.2291 128.786 43.1223 129.415 41.8586 129.589C41.2853 129.647 40.6854 129.653 40.119 129.531C38.9016 129.269 37.8205 128.374 37.1871 127.323C36.5937 126.338 36.2788 125 36.5759 123.869L36.6125 123.736C36.7755 123.121 37.04 122.541 37.4202 122.028C38.2603 120.895 39.3606 120.319 40.7407 120.117Z" fill="#19191B"/>
  <path d="M41.005 122.834C41.3309 122.811 41.6352 122.833 41.9473 122.939C42.495 123.126 42.9714 123.592 43.1914 124.125C43.3937 124.614 43.3853 125.219 43.1478 125.697C42.8483 126.301 42.3088 126.629 41.7016 126.851C41.2747 126.888 40.8078 126.897 40.4132 126.709C39.8936 126.461 39.5322 126.07 39.3494 125.521C39.1748 124.996 39.235 124.309 39.5014 123.826C39.8213 123.247 40.3977 122.984 41.005 122.834Z" fill="#EFE9E3"/>
  <path d="M24.7875 119.97C25.8385 119.926 26.9062 120.247 27.7501 120.877C28.8242 121.68 29.5676 122.843 29.7326 124.187C29.885 125.428 29.4484 126.748 28.6879 127.719C27.8194 128.827 26.678 129.386 25.2914 129.561C24.1935 129.621 23.027 129.341 22.1441 128.661C21.13 127.88 20.4447 126.667 20.2935 125.394C20.1228 123.957 20.5199 122.621 21.4443 121.501C22.2736 120.496 23.5321 120.08 24.7875 119.97Z" fill="#19191B"/>
  <path d="M24.5219 122.682C24.926 122.638 25.3043 122.641 25.6845 122.806C26.2713 123.06 26.7134 123.551 26.9194 124.156C27.094 124.668 27.0591 125.182 26.8042 125.659C26.4958 126.236 26.0262 126.571 25.4158 126.774C25.0077 126.837 24.6466 126.826 24.2519 126.694C23.7602 126.531 23.3303 126.103 23.1182 125.632C22.8891 125.123 22.8585 124.52 23.0771 124.002C23.3642 123.322 23.869 122.96 24.5219 122.682Z" fill="#EFE9E3"/>
  <path d="M116.726 119.893C117.235 119.86 117.768 119.945 118.259 120.079C119.518 120.421 120.652 121.345 121.273 122.495C121.836 123.536 122.089 125.04 121.721 126.188L121.677 126.318C121.488 126.888 121.255 127.45 120.893 127.934C120.008 129.116 118.805 129.647 117.381 129.839C116.218 129.849 115.125 129.638 114.168 128.942C113.204 128.241 112.344 126.985 112.17 125.786C111.969 124.402 112.149 122.988 113.033 121.861C113.996 120.633 115.201 120.067 116.726 119.893Z" fill="#19191B"/>
  <path d="M116.465 122.992C116.864 122.966 117.278 122.938 117.653 123.106C118.148 123.328 118.539 123.758 118.718 124.268C118.902 124.79 118.883 125.422 118.623 125.916C118.328 126.477 117.886 126.749 117.302 126.941C116.975 126.977 116.635 126.978 116.32 126.873C115.785 126.694 115.305 126.234 115.069 125.723C114.836 125.217 114.803 124.863 115.01 124.344C115.29 123.641 115.793 123.268 116.465 122.992Z" fill="#EFE9E3"/>
  <path d="M134.61 119.819C135.788 119.773 137.026 120.208 137.952 120.931C139.005 121.753 139.63 123.043 139.779 124.359C139.928 125.674 139.512 126.921 138.696 127.948C137.787 129.093 136.596 129.63 135.163 129.786C133.979 129.881 132.605 129.413 131.692 128.657C130.729 127.859 130.038 126.693 129.923 125.435C129.796 124.041 130.199 122.652 131.091 121.573C131.979 120.498 133.244 119.942 134.61 119.819Z" fill="#19191B"/>
  <path d="M134.404 122.91C134.73 122.877 135.117 122.853 135.433 122.951C135.982 123.121 136.456 123.577 136.69 124.096C136.906 124.572 136.862 125.191 136.658 125.662C136.378 126.312 135.901 126.61 135.27 126.841C134.99 126.855 134.661 126.896 134.388 126.824C133.838 126.68 133.312 126.311 133.052 125.796C132.826 125.346 132.778 124.783 132.951 124.306C133.215 123.581 133.731 123.211 134.404 122.91Z" fill="#EFE9E3"/>
  <path d="M119.288 26.2761L119.367 26L119.471 26.0632L119.472 26.1282C119.482 26.4888 119.609 26.785 119.703 27.1261L120.062 28.6831C120.1 28.8622 120.198 29.1552 120.17 29.3287C121.978 28.3313 123.651 27.0624 125.549 26.2314C125.095 26.8918 124.525 27.4934 123.996 28.0935L121.055 31.306C121.625 33.5497 121.805 35.9354 121.998 38.238L131.465 35.1218C131.053 35.6358 130.387 36.0968 129.891 36.5404C128.221 38.0337 126.586 39.5801 124.759 40.8837C124.418 41.1272 122.138 42.4528 122.093 42.5521C122.066 42.6129 122.078 42.885 122.074 42.9658L121.99 44.1339C121.784 46.5005 120.917 48.6183 119.429 50.4582C119.097 50.1697 118.842 49.751 118.599 49.3855C117.577 47.8487 117.014 46.0537 116.819 44.2259L116.716 43.0373C116.707 42.9257 116.714 42.6117 116.666 42.5169C116.637 42.4597 116.267 42.2582 116.198 42.2122C115.716 41.893 115.26 41.5434 114.806 41.1857C113.304 40.0004 111.909 38.6768 110.576 37.3066L110.876 36.3911C112.91 36.8545 114.936 37.6845 116.888 38.4168L117.916 31.3739C117.587 30.8781 117.057 30.4126 116.648 29.976C115.47 28.7185 114.163 27.473 113.164 26.0682C113.984 26.3423 114.849 26.9701 115.593 27.4216C116.581 28.0209 117.594 28.585 118.542 29.2464L119.288 26.2761Z" fill="#8C6750"/>
  <path d="M119.288 26.2761L119.368 26L119.472 26.0632L119.472 26.1282C119.483 26.4888 119.609 26.785 119.703 27.1261L120.062 28.6831C120.1 28.8622 120.198 29.1552 120.171 29.3287C120.137 29.7616 120.308 30.2944 120.382 30.7275L120.873 33.7133L121.407 38.5336C121.577 40.7921 121.626 43.0414 121.192 45.2745C120.849 47.0408 120.234 48.6622 119.45 50.2734C118.667 48.8155 117.968 47.1516 117.655 45.5198C116.927 41.7185 117.555 37.4362 118.139 33.6465L119.378 26.3289L119.288 26.2761Z" fill="#8C6750"/>
  <path d="M33.4113 98.5961C32.6801 95.5128 32.396 92.2594 32.3704 89.0962C32.2952 79.8486 34.611 70.7632 39.4485 62.8534C42.0354 58.6233 45.2718 54.9102 48.9985 51.6534C50.6837 50.1807 52.4418 48.7752 54.3236 47.5614C58.7969 44.6761 63.8139 42.5799 68.98 41.3483C81.1161 38.4549 93.912 40.7651 104.488 47.3157C115.377 54.0606 122.991 65.1804 125.931 77.6372C126.975 82.0598 127.374 86.6681 127.091 91.2039C126.957 93.3483 126.623 95.4624 126.309 97.5848C127.025 97.8354 127.619 98.1401 127.959 98.8672C128.246 99.4792 128.182 100.118 128.184 100.775L128.184 103.22L132.548 103.229C133.559 103.228 134.819 103.09 135.787 103.355L135.916 103.388C136.898 103.658 137.644 104.315 138.34 105.03C139.444 106.163 140.358 107.438 141.127 108.821C142.905 112.018 143.545 115.436 143.546 119.064C143.546 119.285 143.484 120.379 143.621 120.444C144.219 120.727 144.697 121.186 144.918 121.824C145.041 122.179 145.031 122.664 144.85 122.997C144.357 123.898 143.176 124.199 142.246 124.433L140.772 124.778C140.546 122.954 139.907 121.344 138.435 120.178C137.263 119.251 135.586 118.759 134.103 118.97C132.537 119.192 131.081 120.003 130.15 121.296C129.428 122.299 129.132 123.481 128.915 124.676L122.813 124.717C122.588 122.945 121.982 121.318 120.531 120.18C119.345 119.249 117.697 118.76 116.196 118.978C114.577 119.214 113.241 120.042 112.291 121.382C111.552 122.424 111.294 123.367 111.141 124.62L108.882 124.659C108.61 124.658 108.131 124.589 107.88 124.654C107.723 124.695 107.28 125.182 107.109 125.319L104.877 126.993C103.077 128.28 101.095 129.401 99.1053 130.368C87.1884 136.16 72.323 135.932 60.379 130.362C56.575 128.588 53.1555 126.233 49.8473 123.667L49.8096 123.779C49.6967 124.112 49.5835 124.446 49.2486 124.617C48.677 124.911 47.4533 124.658 46.7755 124.703C46.7717 123.255 46.2521 121.807 45.2121 120.769C44.1646 119.723 42.7049 119.158 41.2303 119.188C39.6128 119.221 38.3048 119.756 37.1905 120.926C36.2748 121.888 35.8079 123.137 35.6507 124.437C35.6324 124.588 35.6426 124.53 35.5901 124.687C33.987 124.694 32.2581 124.539 30.6774 124.734C30.4823 122.898 30.033 121.509 28.5601 120.313C27.257 119.255 25.7708 118.949 24.1145 119.122C22.6632 119.273 21.4422 120.046 20.5412 121.181C19.7415 122.188 19.5152 123.174 19.3032 124.414C19.2825 124.535 19.2996 124.49 19.2339 124.583C18.091 124.45 16.1033 124.091 15.3593 123.114C15.0776 122.745 14.9486 122.237 15.0189 121.778C15.087 121.334 15.3608 120.894 15.7369 120.644C15.8823 120.547 16.0426 120.492 16.2065 120.435L16.1998 115.885C16.197 114.867 16.1538 113.825 16.2559 112.812C16.5792 109.603 17.9568 106.263 19.8073 103.644C20.3199 102.764 21.0425 102.012 21.777 101.317C23.3044 99.8733 25.2488 98.8477 27.3612 98.6324C28.1513 98.5518 28.9747 98.5984 29.7692 98.5911L33.4113 98.5961Z" fill="#19191B"/>
  <path d="M98.4641 88.5999C98.703 88.6396 98.9657 88.6264 99.1239 88.8155C99.0351 89.0221 98.9231 89.1735 98.7857 89.3477C98.5636 89.3371 98.5698 89.3125 98.4081 89.1541C98.3375 88.9509 98.4052 88.7959 98.4641 88.5999Z" fill="#EFE9E3"/>
  <path d="M99.4 125.843C99.9247 126.228 100.548 126.575 101.015 127.025C97.967 128.617 94.8885 129.97 91.5797 130.92C91.0919 131.036 90.6096 131.163 90.1084 131.201C93.4761 129.903 96.4904 127.952 99.4 125.843Z" fill="#EFE9E3"/>
  <path d="M128.67 107.755C129.17 107.683 129.747 107.737 130.256 107.74L133.153 107.761L133.095 113.181L132.912 113.286L131.274 113.286C131.18 113.286 130.895 113.318 130.815 113.286C130.659 113.223 130.399 112.952 130.263 112.843C129.58 112.292 128.901 111.753 128.275 111.135C128.371 110.435 128.326 109.696 128.33 108.989C128.331 108.705 128.297 108.37 128.357 108.097C128.406 107.874 128.487 107.867 128.67 107.755Z" fill="#EFE9E3"/>
  <path d="M108.068 116.841C108.471 118.12 108.618 119.614 108.816 120.941C106.832 122.713 104.909 124.437 102.702 125.935C102.334 126.184 101.855 126.585 101.434 126.7L101.179 126.484L99.9087 125.458C101.698 123.984 103.434 122.48 104.998 120.76C106.118 119.529 107.112 118.201 108.068 116.841Z" fill="#EFE9E3"/>
  <path d="M134.017 107.745L139.316 107.737C139.628 108.309 140.028 108.832 140.342 109.405C141.018 110.638 141.499 111.95 141.925 113.286L134.012 113.278L134.017 107.745Z" fill="#EFE9E3"/>
  <path d="M75.7688 42.2286L76.0317 42.2236C76.0273 42.2526 76.0333 42.2854 76.0183 42.3104C75.9627 42.4035 75.3768 42.6741 75.2527 42.7502C74.6351 43.1289 74.0378 43.558 73.4812 44.022C70.9722 46.1135 69.1342 48.922 67.4392 51.6846L63.6075 49.9207L61.355 48.6204C61.7958 48.0818 62.7362 47.5651 63.332 47.1703C67.0421 44.7121 71.3012 42.6899 75.7688 42.2286Z" fill="#EFE9E3"/>
  <path d="M83.1689 42.1393L86.4135 42.803C90.7263 43.9098 94.5955 45.9955 98.1202 48.6938L96.2501 49.8561L91.8559 51.8541C91.4427 50.9664 90.8731 50.1101 90.3411 49.2894C88.8338 46.9644 87.0827 44.7598 84.8194 43.1287C84.3022 42.7559 83.7247 42.4507 83.1689 42.1393Z" fill="#EFE9E3"/>
  <path d="M67.1699 122.028C67.2186 122.026 67.3689 122.046 67.4024 122.078C67.6062 122.271 67.8556 122.997 67.9947 123.275C69.3065 125.898 71.0074 128.57 73.2375 130.507C74.0568 131.218 74.9574 131.779 75.8856 132.331C74.0167 132.112 72.2786 131.654 70.5049 131.041C66.9665 129.648 63.5759 127.764 60.6641 125.296C62.7209 123.945 64.8714 122.899 67.1699 122.028Z" fill="#EFE9E3"/>
  <path d="M92.0673 121.98C94.5042 122.942 96.6577 124.088 98.8619 125.492C95.8119 127.743 92.6397 129.57 89.1151 130.956C87.261 131.644 85.3648 132.101 83.4028 132.336C84.3428 131.773 85.2703 131.218 86.1044 130.5C88.6925 128.27 90.4331 124.936 92.0673 121.98Z" fill="#EFE9E3"/>
  <path d="M20.3361 104.613L26.4941 104.601C27.5902 104.6 28.761 104.515 29.85 104.616C29.9915 104.629 30.0704 104.673 30.1778 104.762C30.3634 105.254 30.2565 106.119 30.2574 106.662V110.686L26.656 110.689L26.6591 108.112C26.6547 107.833 26.7211 107.434 26.5522 107.214L25.7453 107.239L25.7336 110.679L17.584 110.679C18.2225 108.515 19.0987 106.503 20.3361 104.613Z" fill="#EFE9E3"/>
  <path d="M90.168 43.2859C91.3277 43.4939 92.4718 43.9083 93.5915 44.2704C100.892 46.6312 107.505 51.0553 112.769 56.6092L110.946 59.0088L109.15 61.0361C108.43 59.5271 107.435 58.1058 106.485 56.7357C103.051 51.7846 98.5813 47.6971 93.3017 44.8039C92.2806 44.2443 91.213 43.7956 90.168 43.2859Z" fill="#EFE9E3"/>
  <path d="M47.9405 108.775C48.4785 110.231 49.1542 111.575 49.8758 112.944C51.6652 116.34 54.0143 119.697 56.6795 122.465C57.5958 123.416 58.6178 124.286 59.6175 125.148C62.0913 127.281 64.8422 129.174 67.8108 130.544C68.3152 130.776 68.9218 130.954 69.3537 131.297C65.2216 130.291 61.0384 128.613 57.4053 126.378C55.7607 125.367 54.129 124.299 52.6084 123.108L50.1871 121.183C49.9866 121.012 49.8416 120.776 49.6423 120.611C49.5448 120.53 49.4245 120.498 49.3053 120.467L49.18 120.434L49.0969 120.418C48.8505 120.33 48.2376 120.403 47.9572 120.405L47.8842 119.94L47.8574 119.826C47.9183 119.757 48.0596 119.614 48.0752 119.523C48.1708 118.959 48.0596 118.17 48.051 117.586L47.9016 111.28C47.894 110.47 47.8137 109.574 47.9405 108.775Z" fill="#EFE9E3"/>
  <path d="M100.045 94.624C102.378 95.6191 105.203 96.8072 106.212 99.3489C106.562 100.231 106.547 101.125 106.686 102.049C106.826 102.985 107.135 103.889 107.671 104.673C107.729 104.758 107.708 104.718 107.739 104.823C107.136 104.901 106.452 105.577 106.092 106.047C105.645 106.63 105.335 107.533 105.431 108.282L98.2178 105.432C99.1476 101.878 99.757 98.2856 100.045 94.624Z" fill="#EFE9E3"/>
  <path d="M79.9648 42.0339C80.6356 42.0415 81.2751 42.1475 81.9146 42.3472C84.9207 43.2854 87.1497 45.8677 88.9326 48.3415C89.7857 49.5251 90.6265 50.773 91.3018 52.0673L89.9493 52.4663C88.2242 52.8575 86.5309 53.2751 84.7783 53.537C83.1792 53.776 81.5714 53.8583 79.958 53.9137L79.9648 42.0339Z" fill="#EFE9E3"/>
  <path d="M79.9774 119.87C83.8306 119.841 87.8527 120.55 91.4946 121.785C90.2853 124.077 88.9901 126.229 87.3784 128.258L86.9287 128.783C85.0237 130.889 82.8761 132.348 79.9688 132.473L79.9774 119.87Z" fill="#EFE9E3"/>
  <path d="M18.3913 111.627L30.2351 111.588L30.2078 120.523C29.6017 119.883 29.0167 119.393 28.265 118.932C25.8605 117.717 23.0998 117.811 20.8791 119.382C20.5457 119.618 20.2429 119.873 19.9437 120.151C19.8804 120.21 19.6902 120.432 19.618 120.458C19.4891 120.505 19.1617 120.459 19.003 120.459L17.1791 120.464L17.1605 115.87C17.1567 114.463 17.031 112.991 17.4447 111.633L18.3913 111.627Z" fill="#8C6750"/>
  <path d="M78.5151 119.897L79.3815 119.872L79.3739 132.459H79.0734C76.3242 132.406 74.2554 130.777 72.4276 128.87C71.3276 127.578 70.2963 126.224 69.4276 124.763C68.8546 123.799 68.3838 122.765 67.897 121.755C71.4151 120.612 74.8325 120.115 78.5151 119.897Z" fill="#EFE9E3"/>
  <path d="M126.989 104.103L135.109 104.161C136.305 104.231 137.388 105.283 138.133 106.147C138.235 106.265 138.649 106.694 138.639 106.834L131.696 106.867C130.661 106.861 129.515 106.715 128.497 106.837C128.241 106.868 128.002 106.975 127.813 107.152C127.247 107.682 127.422 108.94 127.425 109.643L127.436 110.945C127.438 111.075 127.41 111.315 127.444 111.426C127.496 111.593 127.725 111.8 127.846 111.918C128.214 112.279 130.188 114.148 130.561 114.208C130.81 114.248 131.151 114.202 131.408 114.2L133.268 114.191L141.061 114.156L142.098 114.117C142.618 116.186 142.671 118.345 142.55 120.463C142.227 120.467 140.47 120.577 140.27 120.493C140.051 120.4 139.597 119.861 139.385 119.675C138.133 118.573 136.518 117.947 134.852 117.947C133.097 117.946 131.674 118.478 130.333 119.596C130.082 119.806 129.678 120.305 129.407 120.429C129.215 120.517 128.763 120.462 128.543 120.463L125.924 120.466L125.905 110.148C125.902 108.444 125.815 106.682 125.911 104.984C125.921 104.8 125.967 104.639 126.076 104.489C126.295 104.188 126.647 104.149 126.989 104.103Z" fill="#8C6750"/>
  <path d="M98.645 49.1505C99.1069 49.4324 99.5578 49.9151 99.9684 50.2747C102.053 52.1006 103.876 54.2255 105.512 56.4584C106.688 58.0624 107.789 59.7206 108.704 61.4903C106.303 63.558 103.772 65.2944 100.966 66.7585L97.985 68.1107C96.7495 62.6663 94.7877 57.3394 92.21 52.3925C94.4514 51.5279 96.6102 50.4294 98.645 49.1505Z" fill="#EFE9E3"/>
  <path d="M107.264 112.529L107.939 116.065C107.438 116.93 106.728 117.712 106.088 118.478C104.018 120.953 101.87 123.096 99.3356 125.092L97.7155 124.041C95.9992 123.015 94.1924 122.138 92.3101 121.467L94.802 116.14C96.1593 112.853 97.1836 109.451 98.0961 106.017L105.382 108.922C105.547 109.126 105.519 109.432 105.57 109.691C105.637 110.032 105.761 110.385 105.911 110.697C106.255 111.41 106.856 111.881 107.264 112.529Z" fill="#EFE9E3"/>
  <path d="M79.9813 103.261C84.2171 103.187 88.6148 103.719 92.7497 104.612L97.5685 105.843L93.5737 117.414L91.7428 121.191C91.5968 121.252 91.1464 121.051 90.9786 120.996L89.2421 120.494C86.2005 119.686 83.1107 119.376 79.9756 119.262L79.9813 103.261Z" fill="#EFE9E3"/>
  <path d="M91.3391 52.6358L91.5968 52.5991C92.1512 53.3659 92.5511 54.3456 92.9543 55.2048C94.9268 59.4105 96.3222 63.8001 97.4313 68.3039C93.5525 69.5794 89.6732 70.4965 85.6096 70.9407L79.984 71.267L79.9741 54.5692L83.7603 54.2355C86.323 53.9133 88.8647 53.3767 91.3391 52.6358Z" fill="#EFE9E3"/>
  <path d="M99.5082 94.4289L97.7018 105.263C91.9938 103.496 85.9308 102.773 79.9771 102.659L79.9775 87.2586C83.2471 87.205 86.6459 87.3975 89.8881 87.8407L97.4927 89.1273C97.5208 89.3494 97.5326 89.5977 97.5969 89.8109C97.48 90.6181 97.3348 91.4399 97.5874 92.234L97.6251 92.357C97.843 93.0417 98.287 93.5576 98.8612 93.9757C99.0595 94.1199 99.3413 94.257 99.5082 94.4289Z" fill="#EFE9E3"/>
  <path d="M97.6126 88.5891C97.3536 88.6694 96.6472 88.4192 96.3577 88.3605L92.761 87.6877C88.5352 86.9923 84.2487 86.7308 79.9688 86.6925L79.9769 71.8831C82.4018 71.7849 84.8115 71.6546 87.2173 71.3155C90.7447 70.8181 94.151 69.9682 97.5454 68.8992C97.6885 69.1633 97.7261 69.535 97.7905 69.8306L98.1624 71.6614C99.0097 76.3219 99.7292 81.0113 99.7248 85.7619L99.6633 85.8049C99.5474 85.8784 99.6193 85.838 99.5017 85.87C99.0123 86.0033 98.286 86.7384 98.0487 87.1842C97.8421 87.5723 97.574 88.1422 97.6126 88.5891Z" fill="#EFE9E3"/>
  <path d="M78.7 54.4881C78.9185 54.5148 79.2015 54.5025 79.3655 54.6477L79.3805 71.2617C76.2385 71.1676 73.1465 70.8767 70.0648 70.236C67.2448 69.6498 64.506 68.7853 61.7764 67.8752C63.4822 60.5844 66.4718 53.2314 71.1709 47.352C72.6866 45.4558 74.6169 43.4775 76.9084 42.5706C77.6914 42.2607 78.4776 42.1206 79.3109 42.0276L79.3963 50.5412C79.5921 51.2946 79.5677 52.1029 79.5576 52.8776C79.5538 53.1581 79.5866 53.5141 79.4972 53.7815C79.2511 53.9707 78.8068 54.2003 78.7 54.4881Z" fill="#EFE9E3"/>
  <path d="M78.6997 54.488C77.1267 54.8558 75.2827 55.8924 74.061 56.9465C72.5901 58.2159 71.1678 60.1041 71.0304 62.1178L71.0241 62.2249C70.3685 61.4907 69.8716 60.4656 69.4948 59.559C68.6446 57.5133 68.2428 54.7612 69.1154 52.6715C69.5311 51.6762 70.2904 50.7261 71.3269 50.3444C72.1723 50.0329 73.3268 50.1913 74.218 50.1886C75.6061 50.1843 77.1326 50.0808 78.5044 50.2693C78.8225 50.3132 79.1014 50.4165 79.396 50.5411C79.5919 51.2946 79.5675 52.1029 79.5574 52.8776C79.5536 53.158 79.5864 53.5141 79.497 53.7815C79.2509 53.9707 78.8066 54.2003 78.6997 54.488Z" fill="#8C6750"/>
  <path d="M108.166 105.212L108.204 100.884C108.217 100.064 108.34 99.4443 108.966 98.8676C109.249 98.6064 109.62 98.4103 110.001 98.3444C110.508 98.2566 111.094 98.3053 111.61 98.3046L114.793 98.3099C117.88 98.3151 121.024 98.1904 124.104 98.3658L125.602 98.3998C126.145 98.4182 126.497 98.4212 126.906 98.8242C127.1 99.0152 127.225 99.2544 127.283 99.5174L127.304 99.6051C127.387 100.01 127.352 100.459 127.35 100.871L127.324 103.149C126.586 103.169 125.946 103.226 125.414 103.812C125.212 104.036 125.057 104.341 125.021 104.642C124.955 105.185 125.005 105.794 125.007 106.343L125.018 109.687L125.003 120.618L122.509 120.635C121.227 119.15 119.707 118.04 117.69 117.89C115.632 117.737 113.823 118.271 112.264 119.649C112.021 119.864 111.809 120.105 111.598 120.351C111.576 120.377 111.448 120.55 111.42 120.561C111.123 120.679 110.252 120.627 109.917 120.638L109.173 116.957C108.919 115.688 108.72 114.356 108.3 113.129C108.12 112.278 108.213 111.282 108.205 110.411L108.166 105.212Z" fill="#EFE9E3"/>
  <path d="M120.542 110.21L120.425 110.342L112.442 110.311L112.436 105.943C112.436 105.505 112.332 104.653 112.496 104.274L112.671 104.231L112.814 104.338L112.818 109.919L116.311 109.923L116.324 105.826C116.326 105.356 116.233 104.688 116.398 104.262L116.606 104.233C116.64 104.268 116.689 104.293 116.71 104.338C116.788 104.506 116.711 105.246 116.712 105.459L116.719 109.921L119.132 109.922C119.434 109.921 119.852 109.969 120.137 109.884L120.235 109.853L120.235 107.953L120.237 104.338L120.351 104.226L120.529 104.3L120.553 108.128C120.555 108.797 120.63 109.552 120.542 110.21Z" fill="#19191B"/>
  <path d="M33.4116 98.5961L35.4256 98.6157L47.8562 98.5916L47.821 104.648C47.8223 105.443 47.6742 106.548 47.9285 107.28C47.7422 107.69 47.826 108.288 47.9285 108.708L47.9411 108.775C47.8142 109.574 47.8946 110.47 47.9022 111.28L48.0515 117.586C48.0602 118.17 48.1714 118.959 48.0758 119.523C48.0602 119.614 47.9188 119.757 47.858 119.826L47.8848 119.94L47.9577 120.405C48.2381 120.403 48.851 120.33 49.0974 120.418C48.9919 120.473 48.7362 120.453 48.6109 120.457L46.8257 120.478C46.7081 120.479 46.3547 120.523 46.2568 120.482C46.0919 120.415 45.7433 119.967 45.5923 119.826C44.3026 118.624 42.7821 118.11 41.0318 118.204C39.0848 118.308 37.5857 119.039 36.2805 120.478L31.1565 120.452L31.1671 109.572V106.481C31.1665 105.942 31.2098 105.36 31.1426 104.827C31.1025 104.508 30.9945 104.212 30.761 103.985C30.5674 103.797 30.3342 103.699 30.0699 103.659C29.0433 103.503 27.8305 103.623 26.7865 103.621L19.8076 103.644C20.3202 102.764 21.0428 102.012 21.7773 101.317C23.3047 99.8733 25.2491 98.8477 27.3615 98.6324C28.1516 98.5518 28.975 98.5984 29.7695 98.5911L33.4116 98.5961Z" fill="#8C6750"/>
  <path d="M34.8013 81.5773L34.8681 81.6971C35.1429 82.2106 35.2481 82.8535 35.4858 83.3983C36.457 85.6222 37.9997 87.0414 40.3005 87.7895C40.9697 88.0072 41.6655 88.1222 42.3334 88.3498C44.1563 88.9713 46.0104 90.2217 47.1343 91.8088L47.5535 91.7035L49.7519 91.4756C50.2014 91.4331 50.6517 91.4287 51.0816 91.2764C51.6417 91.3047 52.28 91.7537 52.754 92.0321L55.6099 93.7111L59.6178 95.9312C60.2479 96.2871 61.0605 96.9283 61.7534 97.1029L61.7516 110.639C61.7515 111.276 61.6225 114.622 61.8128 115.001C62.5448 114.854 63.4734 114.154 64.1526 113.781C64.6363 115.323 65.1187 116.872 65.7239 118.371L66.4995 120.205C66.6742 120.579 66.9619 121.034 67.0401 121.435C64.6195 122.324 62.4261 123.5 60.2682 124.905C59.9683 124.758 59.7092 124.465 59.4613 124.239L58.0464 122.916C55.4321 120.375 53.1147 117.475 51.2818 114.318C49.9609 112.043 48.9302 109.707 47.9279 107.28C47.6736 106.548 47.8216 105.443 47.8204 104.648L47.8555 98.5916L35.425 98.6158L34.6884 93.7755C34.2172 89.6962 34.254 85.6456 34.8013 81.5773Z" fill="#EFE9E3"/>
  <path d="M51.0821 91.2764L50.9955 91.8493L50.7946 91.9587C49.7337 92.0908 48.5268 92.2841 47.4601 92.2078L47.1348 91.8088L47.554 91.7036L49.7524 91.4756C50.2019 91.4331 50.6521 91.4287 51.0821 91.2764Z" fill="#19191B"/>
  <path d="M51.082 91.2764C51.6421 91.3047 52.2804 91.7537 52.7544 92.0322L55.6103 93.7111L59.6182 95.9312C60.2483 96.2871 61.0609 96.9283 61.7538 97.103L61.752 110.639C61.7519 111.276 61.6229 114.622 61.8131 115.001C61.418 114.911 61.0372 114.683 60.6799 114.495L58.7947 113.484L51.0856 109.184L50.963 92.087L50.7944 91.9587L50.9954 91.8493L51.082 91.2764Z" fill="#8C6750"/>
  <path d="M100.281 85.1736C100.315 83.9475 100.203 82.6968 100.123 81.4737C99.8403 77.1748 99.1372 72.9059 98.1034 68.7249C102.04 67.1659 105.869 64.886 109.024 62.0497C109.792 63.5979 110.612 65.2023 111.178 66.8378C111.31 67.2189 111.64 68.8035 111.914 69.0087C112.129 69.0049 112.273 69.0346 112.463 68.9232C112.439 68.5035 112.224 68.002 112.091 67.5973C111.415 65.5315 110.459 63.5583 109.504 61.6113L113.175 57.0853C116.019 60.0232 118.24 63.609 120.136 67.2095C120.998 68.7729 121.69 70.4126 122.326 72.0791C124.865 78.7418 125.831 86.22 125.035 93.3097C124.865 94.8173 124.654 96.4718 124.23 97.9303L124.104 98.3658C121.024 98.1904 117.88 98.3151 114.793 98.3099L111.61 98.3046C111.094 98.3053 110.508 98.2566 110.001 98.3444C109.62 98.4103 109.249 98.6064 108.966 98.8676C108.34 99.4443 108.217 100.064 108.204 100.884L108.166 105.212L108.205 110.411C108.213 111.282 108.12 112.278 108.3 113.129C107.937 112.96 107.662 112.607 107.264 112.529C106.856 111.881 106.254 111.41 105.911 110.697C105.76 110.385 105.637 110.032 105.57 109.691C105.519 109.432 105.547 109.126 105.382 108.922L105.431 108.282C105.335 107.533 105.644 106.63 106.091 106.047C106.451 105.577 107.135 104.901 107.739 104.823C107.707 104.718 107.728 104.758 107.67 104.673C107.134 103.889 106.826 102.985 106.685 102.049C106.546 101.125 106.562 100.231 106.211 99.349C105.203 96.8073 102.378 95.6191 100.044 94.624L99.508 94.4289C99.3411 94.257 99.0593 94.1199 98.861 93.9757C98.2869 93.5577 97.8428 93.0417 97.6249 92.357L97.5872 92.234C97.3346 91.4399 97.4798 90.6181 97.5968 89.8109L98.1703 90.365C98.4933 90.3697 98.8969 90.4042 99.2023 90.2929C99.3845 90.2264 99.5694 90.0241 99.6285 89.8373C99.6946 89.6287 99.6743 89.3851 99.577 89.192C99.4715 88.9829 99.3426 88.8923 99.1236 88.8154C98.9655 88.6264 98.7027 88.6396 98.4638 88.5998C98.2191 88.5187 97.8726 88.5787 97.6125 88.589C97.5739 88.1422 97.8421 87.5723 98.0487 87.1842C98.286 86.7384 99.0122 86.0033 99.5016 85.87C99.6192 85.8379 99.5473 85.8783 99.6633 85.8048L99.7247 85.7619C99.9764 85.6572 100.14 85.3944 100.281 85.1736Z" fill="#8C6750"/>
  <path d="M100.281 85.1736C100.315 83.9475 100.203 82.6968 100.122 81.4737C99.8399 77.1748 99.1368 72.9059 98.103 68.7249C102.04 67.1659 105.868 64.886 109.023 62.0497C109.791 63.5979 110.612 65.2023 111.178 66.8378C111.31 67.2189 111.64 68.8035 111.913 69.0087C112.128 69.0049 112.273 69.0346 112.462 68.9232C112.438 68.5035 112.223 68.002 112.091 67.5973C111.415 65.5315 110.458 63.5583 109.503 61.6113L113.175 57.0853C116.019 60.0232 118.24 63.609 120.136 67.2095C118.708 68.7389 116.8 70.8194 114.562 70.8914L111.661 70.8973C110.121 70.8943 108.585 70.866 107.442 72.1057C106.802 72.7991 106.582 73.5622 106.629 74.4869C106.648 74.8738 106.813 75.4734 106.734 75.8293C105.583 75.8214 104.235 75.624 103.337 76.5122C102.839 77.0051 102.71 77.5409 102.736 78.2213C102.754 78.7069 103.005 79.2488 103.364 79.5749C104.17 80.3061 105.227 80.2926 106.238 80.2225C106.937 78.9764 107.749 78.1981 109.147 77.7921L109.833 77.6434L109.945 77.6232C111.26 77.4035 112.754 77.7902 113.824 78.581C114.474 79.0618 114.819 79.6341 115.177 80.3465C115.345 79.917 115.55 79.121 116.039 78.9657C116.349 78.8668 116.829 78.9119 117.097 79.1055C117.514 79.4078 117.711 79.9335 117.761 80.4291L117.783 80.7313C118.83 81.1514 119.781 81.7578 120.755 82.3205L122.887 83.4967L113.017 83.5346C112.792 83.133 112.571 82.7072 112.277 82.3518C111.66 81.6071 110.596 81.0775 109.677 80.8268C107.723 80.2941 105.179 80.7999 103.448 81.8232C102.123 82.6061 101.109 83.8962 100.281 85.1736Z" fill="#EFE9E3"/>
  <path d="M104.072 67.8961C104.249 67.8808 104.234 67.849 104.385 67.9641C104.52 68.4379 104.969 69.4616 104.839 69.9132L104.617 69.8685C104.433 69.4648 103.938 68.2724 104.072 67.8961Z" fill="#19191B"/>
  <path d="M106.798 66.0738L106.967 66.0606L107.644 67.4538C107.903 67.5582 108.699 67.16 109.076 67.1516C109.157 67.3329 109.134 67.2966 109.076 67.468C108.678 67.6916 108.245 67.8382 107.819 67.9984C107.992 68.573 108.246 69.1271 108.359 69.7181L108.168 69.8585L107.984 69.7881L107.238 68.1796C106.828 68.3401 106.136 68.679 105.708 68.5472L105.654 68.4274C105.861 68.2312 106.134 68.1802 106.39 68.0728C106.469 68.0394 107.067 67.7893 107.086 67.7524C107.087 67.7499 107.04 67.5431 107.034 67.5188C106.927 67.0745 106.632 66.4959 106.798 66.0738Z" fill="#19191B"/>
  <path d="M114.659 60.7457L116.18 63.579C116.494 64.1906 116.846 64.845 116.948 65.5329C117.051 66.2288 116.886 66.8573 116.447 67.4117C115.928 68.0664 115.256 68.2793 114.465 68.3467C113.883 68.2969 113.349 68.1326 112.897 67.749C112.547 67.4531 112.013 66.7528 112.049 66.2664L112.08 66.1163C112.289 65.0095 112.84 64.0767 113.386 63.106L114.659 60.7457Z" fill="#8C6750"/>
  <path d="M52.8714 50.9444C53.9913 50.0843 55.227 49.326 56.4334 48.5966C59.7804 46.573 63.0826 45.0838 66.8152 43.9036C67.7586 43.6053 68.759 43.2139 69.749 43.1188L67.7983 43.95C65.8469 44.8924 63.9371 46.0195 62.1551 47.252C61.5418 47.6761 60.8717 48.0955 60.3504 48.6306C62.2911 50.2063 64.8284 51.2502 67.11 52.2417C62.4944 60.3761 60.0598 69.8792 59.5604 79.1906C59.4838 80.6205 59.3747 82.1136 59.4379 83.5445L59.5514 83.629C59.7094 83.5424 59.8741 83.4946 59.9377 83.3081L61.6509 68.4398C62.784 68.9222 63.9794 69.2755 65.1565 69.6352C69.7196 71.0299 74.5927 71.8892 79.3728 71.8866L79.4051 86.6298C77.9993 86.691 76.6014 86.736 75.2049 86.9179C74.8734 86.9612 74.1994 86.9959 73.9468 87.2246L73.9155 87.5597L74.042 87.665C75.4667 87.482 76.883 87.328 78.3191 87.2706C78.6154 87.2588 79.1154 87.1759 79.3848 87.2797L79.3857 102.663C78.0489 102.688 76.5894 102.612 75.2731 102.82C75.1911 103.013 75.2179 103.172 75.2374 103.373C75.4591 103.5 75.8618 103.407 76.1223 103.387L78.4572 103.276C78.7213 103.269 79.1263 103.201 79.3695 103.3L79.3827 119.257C75.3455 119.27 71.4525 119.99 67.6159 121.222C66.438 118.763 65.3331 116.11 64.7077 113.45L70.9366 109.977L72.5046 109.121C72.7238 108.998 73.0323 108.858 73.1912 108.662L73.1549 90.0767L61.7539 97.1029C61.0609 96.9283 60.2484 96.2871 59.6182 95.9312L55.6103 93.7111L52.7544 92.0321C52.2805 91.7536 51.6421 91.3046 51.082 91.2764C50.6521 91.4287 50.2018 91.4331 49.7524 91.4756L47.5539 91.7035L47.1347 91.8088C46.0109 90.2217 44.1567 88.9713 42.3338 88.3498C41.666 88.1222 40.9701 88.0072 40.3009 87.7895C38.0001 87.0413 36.4574 85.6222 35.4863 83.3983C35.2485 82.8535 35.1433 82.2106 34.8685 81.6971L34.8018 81.5773C34.8024 81.4171 34.8285 81.2634 34.8523 81.1053C36.6541 69.1431 43.1419 58.1203 52.8714 50.9444Z" fill="#EFE9E3"/>
  <path d="M46.6314 84.5648L51.2274 84.5637C51.8287 84.5627 52.8494 84.4161 53.3839 84.6536C53.4245 84.874 53.4236 84.8632 53.3057 85.0543C52.7733 85.1763 52.1085 85.0953 51.5546 85.0915C49.7966 85.0796 47.9821 84.9578 46.2314 85.0285L46.2414 84.9101C46.4441 84.8457 46.5132 84.7291 46.6314 84.5648Z" fill="#19191B"/>
  <path d="M62.1606 84.6722C62.831 84.8953 63.5137 85.3564 64.1474 85.6888L67.1375 87.1846C68.7568 87.9792 70.5085 88.6144 72.0761 89.4958L62.0899 95.6508L61.7453 95.8178C61.3384 95.734 60.9031 95.3918 60.5346 95.1825L57.8676 93.6737L54.6629 91.8468C53.8225 91.3767 52.9576 90.9352 52.1851 90.3571C52.9024 89.7321 53.82 89.3164 54.64 88.8444L59.2483 86.238C60.2182 85.7137 61.235 85.2749 62.1606 84.6722Z" fill="#8C6750"/>
  <path d="M52.8714 50.9444C52.6978 52.0383 52.5697 52.7553 53.2563 53.7026L53.6181 54.1641L55.191 52.8857C56.1318 52.0914 56.9365 51.3614 58.2651 51.5612C59.1363 51.6924 60.0179 52.2984 60.5255 53.0212C61.1182 53.8653 61.3431 54.8831 61.1685 55.9004L61.1512 56.0075C60.9233 57.2749 59.3835 58.3861 58.4954 59.2569C58.7976 59.6953 59.1501 60.3854 59.5823 60.678C60.0598 61.0011 60.7898 60.9703 61.2634 61.2927C61.4657 61.4302 61.6581 61.8654 61.7455 62.088C61.8908 62.4575 61.9527 62.9025 61.8684 63.2955C61.7307 63.9384 61.0798 64.489 60.5391 64.7913C59.405 65.4254 58.2975 65.3059 57.0579 65.2412C58.0182 66.2211 58.9092 66.8726 60.1028 67.5397C58.5001 68.5529 56.9014 69.5079 55.4216 70.7051C52.0598 73.425 49.657 77.3793 48.4766 81.5149C47.3275 80.5006 46.144 79.9005 44.584 80.0039C43.3036 80.0889 42.0873 80.703 41.2511 81.6802C40.6611 82.3701 40.2665 83.4465 40.3458 84.3568C40.4032 85.0147 40.6388 85.6008 41.167 86.0198C41.32 86.1411 41.4338 86.183 41.618 86.2415L41.7185 86.2815C42.1393 86.4076 42.6291 86.2948 42.9876 86.0573C43.4121 85.7761 43.53 85.3867 43.6524 84.9183C43.6644 84.8721 43.7278 84.5654 43.7446 84.5493C43.844 84.4541 46.3399 84.5262 46.6319 84.5648C46.5137 84.7291 46.4446 84.8457 46.2419 84.9101L46.232 85.0285C45.8134 85.1204 45.4377 85.2792 45.2106 85.6684C45.0517 85.9407 45.0571 86.3934 45.1398 86.6929C45.2439 87.0708 45.5305 87.3947 45.8742 87.5727C46.3347 87.8111 46.7317 87.6868 47.2032 87.5722L47.5539 91.7036L47.1347 91.8088C46.0109 90.2217 44.1567 88.9713 42.3338 88.3498C41.666 88.1222 40.9701 88.0072 40.3009 87.7895C38.0001 87.0414 36.4574 85.6222 35.4863 83.3983C35.2485 82.8535 35.1433 82.2106 34.8685 81.6971L34.8018 81.5773C34.8024 81.4171 34.8285 81.2634 34.8523 81.1054C36.6541 69.1431 43.1419 58.1204 52.8714 50.9444Z" fill="#8C6750"/>
  <path d="M57.4491 53.8874C57.8615 53.8767 58.2105 53.8675 58.5495 54.1371C58.8823 54.402 59.0495 54.6701 59.0693 55.1032C59.076 55.2461 59.0568 55.3852 59.0114 55.5207C58.9088 55.8272 58.6224 56.0642 58.4016 56.2885L57.0907 57.6253C56.5255 58.2308 55.9731 58.8543 55.4903 59.5288C54.8354 60.4438 54.396 61.5342 54.1409 62.6285C54.0413 63.0557 53.9971 63.6107 53.7725 63.9887C53.3568 64.6886 52.5085 65.4241 51.9351 66.0084C51.6689 64.9109 51.209 63.6457 51.2621 62.5083L51.8004 61.2462L51.4189 61.4272C50.9493 61.6214 50.4336 61.7334 49.9407 61.8537C49.8026 61.8874 49.5629 61.9849 49.434 61.9756C49.3153 61.9673 48.9798 61.7524 48.8577 61.6906L47.0952 60.846C48.7224 59.4681 50.8137 59.0207 52.5459 57.8552C53.4201 57.2671 54.2572 56.5964 55.0489 55.9011C55.808 55.2344 56.5626 54.3629 57.4491 53.8874Z" fill="#EFE9E3"/>
  </svg>
  