<svg width="160" height="160" viewBox="0 0 160 160" fill="none" xmlns="http://www.w3.org/2000/svg">
  <path d="M141.409 114.718C141.621 114.679 141.865 114.711 142.07 114.775C142.372 114.869 142.664 115.158 142.791 115.445C142.928 115.753 142.897 116.132 142.788 116.443C142.631 116.888 142.258 117.079 141.857 117.264C141.605 117.27 141.361 117.258 141.126 117.152C140.824 117.015 140.566 116.713 140.453 116.403C140.34 116.093 140.365 115.703 140.517 115.411C140.716 115.027 141.013 114.852 141.409 114.718Z" fill="#19191B"/>
  <path d="M134.57 123.477C134.928 123.478 135.299 123.499 135.62 123.675C136.071 123.922 136.378 124.391 136.506 124.883C136.633 125.367 136.519 125.895 136.257 126.314C135.929 126.839 135.439 127.016 134.865 127.142C134.581 127.136 134.239 127.055 133.986 126.927C133.492 126.676 133.158 126.296 132.981 125.775C132.824 125.315 132.896 124.957 133.123 124.52C133.448 123.895 133.92 123.667 134.57 123.477Z" fill="#8C6750"/>
  <path d="M28.0464 116.713C31.9948 117.343 36.1211 118.066 39.7914 119.712C41.2502 120.365 42.6044 121.205 43.9066 122.129L45.8881 123.614C46.0227 123.718 46.3803 123.955 46.4456 124.096C46.4719 124.153 46.4666 124.22 46.477 124.282L46.1536 124.533C45.1706 124.795 44.0205 124.904 43.0034 124.84C38.3817 124.551 34.3436 122.126 30.8444 119.256C29.8881 118.472 28.8656 117.642 28.0464 116.713Z" fill="#19191B"/>
  <path d="M20.9155 101.272L27.9682 104.545C31.1384 106.357 34.1729 108.525 36.3101 111.542C36.6787 112.062 37.1579 112.713 37.3009 113.346C37.3782 113.689 37.368 113.883 37.1801 114.17C36.802 114.408 36.536 114.389 36.1046 114.304C34.8084 114.05 33.5441 113.436 32.3988 112.794C27.6016 110.104 23.9333 105.804 20.9155 101.272Z" fill="#19191B"/>
  <path d="M129.005 117.299L132.189 117.278C128.239 120.503 123.734 123.77 118.594 124.662C117.65 124.826 116.741 124.862 115.785 124.81C114.76 124.763 113.576 124.703 112.603 124.36C113.692 123.782 114.663 122.941 115.687 122.25C117.428 121.076 119.252 119.759 121.166 118.887C123.61 117.775 126.352 117.452 129.005 117.299Z" fill="#19191B"/>
  <path d="M20.4697 83.1502C21.2385 83.8355 21.9257 84.7073 22.6219 85.4693C25.396 88.5056 28.3482 91.7319 30.1129 95.4882C30.9429 97.255 31.631 99.1716 30.9346 101.1C30.8094 101.232 30.7108 101.355 30.5299 101.409C30.1591 101.519 29.5038 101.088 29.1958 100.883C27.7268 99.9012 26.5269 98.4556 25.5791 96.9787C23.6705 94.0047 22.6096 90.8231 21.6243 87.4588C21.2093 86.042 20.7558 84.5985 20.4697 83.1502Z" fill="#19191B"/>
  <path d="M138.365 101.393H138.585C138.412 101.84 138.06 102.282 137.792 102.683L136.105 105.077C133.784 108.199 131.142 110.925 127.762 112.898C126.117 113.857 124.508 114.56 122.618 114.837L122.401 114.76C122.333 114.235 122.369 113.641 122.563 113.145C123.109 111.748 124.099 110.608 125.14 109.557C128.885 105.778 133.567 103.521 138.365 101.393Z" fill="#19191B"/>
  <path d="M139.325 83.2072L139.473 83.25C139.448 84.1926 139.1 85.2617 138.865 86.1756C137.869 90.0583 136.655 93.9193 134.464 97.3078C133.452 98.8727 132.181 100.364 130.568 101.326C130.206 101.541 129.807 101.777 129.389 101.855C129.153 101.899 129.065 101.928 128.865 101.785C128.519 101.235 128.496 100.284 128.538 99.6457C128.593 98.839 128.774 98.0568 129.089 97.3118C130.043 95.0554 131.461 92.965 132.908 90.9992L136.779 86.0443C137.58 85.0832 138.383 84.029 139.325 83.2072Z" fill="#19191B"/>
  <path d="M74.0503 18.4557L74.0625 16.6959L79.5073 16.6992L79.465 64.2783L78.988 64.3164C77.9744 63.4996 77.0426 62.6463 76.1101 61.7392C75.4534 61.1005 74.7911 60.3756 74.0564 59.8302L74.0503 18.4557Z" fill="#8C6750"/>
  <path d="M76.3266 38.9188C76.5255 38.8708 76.75 38.8565 76.9532 38.8898C77.2294 38.9348 77.4742 39.158 77.6166 39.3897C77.92 39.884 77.9423 43.3834 77.7869 44.0227C77.6827 44.4511 77.3625 44.6758 77.0034 44.8826C76.8275 44.9014 76.662 44.9144 76.4863 44.884C76.0462 44.8076 75.8208 44.4856 75.5692 44.1498C75.4526 43.2768 75.533 42.3096 75.5382 41.4264C75.5414 40.8792 75.4533 40.1244 75.6421 39.6152C75.7733 39.2607 75.9975 39.0795 76.3266 38.9188Z" fill="#EFE9E3"/>
  <path d="M80.4751 16.6968L86.0156 16.6498L86.0217 59.5157L82.3962 63.0435C82.1125 63.3193 81.2832 64.0064 81.2262 64.3946L80.4763 64.2794L80.4751 16.6968Z" fill="#8C6750"/>
  <path d="M82.7867 44.1707C82.9957 44.1251 83.2246 44.1097 83.4375 44.1441C83.6867 44.184 83.9188 44.4382 84.0468 44.641C84.3699 45.1532 84.3625 48.6428 84.1927 49.2995C84.0833 49.7228 83.8042 49.8808 83.4431 50.0834C83.245 50.0937 83.0266 50.1157 82.831 50.077C82.5242 50.016 82.263 49.7803 82.1168 49.511C81.8368 48.9955 81.8626 45.5597 82.0563 44.9358C82.1712 44.5659 82.4539 44.3374 82.7867 44.1707Z" fill="#EFE9E3"/>
  <path d="M86.9635 16.6714L87.0767 16.6816L93.3044 16.7034L93.285 28.9029C98.8675 30.5075 104.33 32.9958 109.168 36.2266C110.581 37.1697 111.886 38.2148 113.223 39.2568C113.436 39.4229 113.689 39.5259 113.909 39.6974L117.141 42.3628C120.029 44.7715 123.007 47.3134 124.863 50.6475C126.762 54.061 127.34 57.8777 126.905 61.7293L126.647 64.0079C126.626 64.1912 126.521 64.5853 126.548 64.7487C126.577 64.9215 126.771 65.2269 126.85 65.3918L127.551 66.9145L128.557 69.6616C128.579 68.7571 128.573 67.8359 128.682 66.9371C128.951 64.7166 129.596 62.6429 130.456 60.5865L131.887 57.3437L133.558 52.5772C133.984 54.0659 134.215 55.6783 134.42 57.213C135.154 62.7243 134.949 68.3206 132.202 73.271C131.786 74.0199 131.318 74.7469 130.827 75.4478L129.965 76.6369C129.884 76.7523 129.684 76.9828 129.644 77.111C129.609 77.2242 129.691 77.652 129.7 77.7955L129.833 80.4296L129.914 85.1276C129.9 85.9959 129.726 87.0432 129.856 87.8901C130.508 85.7089 130.578 83.3038 131.081 81.0714C131.402 79.649 131.842 78.2048 132.428 76.8699C133.207 75.0946 134.218 73.409 135.127 71.6976C135.963 70.1235 136.836 68.3567 137.884 66.9158C138.033 70.3228 138.178 73.697 137.754 77.093C137.379 80.1018 136.61 82.8418 134.526 85.1271C133.761 85.9668 132.894 86.6977 131.993 87.3848L130.341 88.5266C130.203 88.6173 129.869 88.7878 129.799 88.9191C129.715 89.0762 129.585 91.4065 129.518 91.8332C129.061 94.734 128.468 97.6302 127.611 100.441C125.932 105.948 123.546 111.228 120.257 115.95C119.632 116.846 119.026 117.767 118.325 118.606C116.932 120.27 115.346 121.754 113.721 123.184C113.323 123.534 112.932 123.958 112.505 124.266C112.308 124.409 112.083 124.497 111.88 124.655C109.038 126.874 106.114 128.751 102.91 130.407C100.853 131.47 98.7521 132.411 96.5896 133.237C95.9136 133.496 95.1692 133.846 94.4532 133.953C94.2652 133.836 94.2032 133.774 94.1138 133.57C94.1307 133.363 94.1005 133.288 94.2811 133.157C94.6586 132.883 95.353 132.735 95.7963 132.573L98.3278 131.577C101.955 130.018 105.352 128.167 108.631 125.963C109.83 125.157 111.056 124.349 112.083 123.324C111.522 121.749 110.954 120.194 110.758 118.521C110.206 113.796 111.317 108.555 112.586 104.034C112.858 103.061 113.102 101.991 113.521 101.071C113.966 102.414 114.227 103.868 114.468 105.261C115.224 109.627 115.447 114.065 114.212 118.373C113.739 120.022 112.954 121.504 112.364 123.1C113.639 122.206 114.791 121.06 115.861 119.93C117.089 118.631 118.243 117.302 119.282 115.844C119.754 115.182 120.274 114.513 120.636 113.784C119.293 112.373 118.391 110.621 117.73 108.8C116.224 104.654 115.912 100.342 116.011 95.9668C116.031 95.0529 116.037 94.1193 116.23 93.2225C117.054 94.4157 117.767 95.7569 118.434 97.0423C119.37 98.843 120.226 100.727 120.775 102.686C121.608 105.656 121.71 108.863 121.17 111.892L120.769 113.574C122.616 110.656 124.233 107.601 125.249 104.285L122.377 100.755C119.415 96.7874 117.744 92.3038 117.106 87.4008L116.82 84.0364C116.789 83.4429 116.722 82.7371 116.803 82.1489C116.818 82.0403 116.861 81.9666 116.911 81.8717C117.441 82.2152 117.918 83.1276 118.292 83.6658C120.262 86.4931 122.278 89.4327 123.721 92.5711C124.352 93.9417 124.826 95.4134 125.143 96.8876C125.466 98.3899 125.486 99.9205 125.461 101.45C125.453 101.999 125.384 102.572 125.405 103.117C125.411 103.29 125.427 103.398 125.547 103.526C125.841 103.227 126.004 102.426 126.147 102.004C127.14 99.0788 127.973 96.1278 128.5 93.0811C128.595 92.5307 128.767 91.8229 128.762 91.2662L128.749 91.1281C124.766 89.4959 121.595 86.4951 119.911 82.4907C118.937 80.1765 118.291 77.8248 117.752 75.3787C117.668 74.9985 117.439 74.3966 117.539 74.0318C118.23 73.9255 119.765 75.2871 120.337 75.7077C123.586 78.0962 126.032 81.1103 127.23 85.016C127.556 86.0784 127.822 87.1752 128.049 88.263L128.282 89.4388C128.314 89.6124 128.326 89.8855 128.398 90.0394C128.488 90.2282 128.517 90.2417 128.711 90.2379C129.06 89.5197 129.002 88.1328 129.036 87.3373C129.143 84.8575 129.233 82.3598 129.035 79.8813C128.786 79.5789 128.525 79.2431 128.203 79.0174C127.456 78.4937 126.221 78.276 125.362 77.9422C123.668 77.2844 122.062 76.3958 120.691 75.1915C118.27 73.0655 116.641 70.1671 115.204 67.3249C114.918 66.7585 113.578 64.4027 113.648 63.8628L113.67 63.7673L113.828 63.6692C114.955 64.1459 116.083 64.926 117.164 65.5283C119.492 66.8256 121.933 68.0927 123.802 70.0382C124.964 71.248 125.898 72.671 126.738 74.1174C127.605 75.6099 128.134 77.2902 129.02 78.7479C128.944 77.1268 128.91 75.4793 128.695 73.8704C128.335 71.1754 127.463 68.4409 126.345 65.969C125.076 66.1173 123.814 66.2305 122.538 66.1101C120.099 65.8798 117.89 64.7652 115.988 63.26C114.249 61.8827 112.902 60.1691 111.542 58.4325C110.823 57.5151 110.052 56.5914 109.472 55.5759C109.592 55.3597 109.574 55.3445 109.805 55.2688C113.052 56.5755 116.332 58.0614 119.291 59.9538L125.632 64.3376C121.512 59.0834 117.535 53.4062 115.199 47.1011C114.617 45.529 114.103 43.9464 113.695 42.3191L113.364 40.903C113.325 40.7078 113.293 40.3019 113.193 40.1407C113.133 40.0437 112.873 39.901 112.766 39.8217L111.203 38.6564C108.053 36.3238 104.633 34.2334 101.056 32.6258C98.5341 31.4922 95.9671 30.6218 93.3497 29.7517L93.2938 48.0447L93.2975 51.735C93.2983 51.9625 93.3802 52.5443 93.3105 52.733C93.3099 52.7349 93.1691 52.8744 93.1533 52.8901L87.0703 58.5764L86.9431 58.5444L86.9263 58.5435C87.0889 57.1052 86.9686 55.52 86.9681 54.0654L86.9589 45.0504L86.9635 16.6714Z" fill="#19191B"/>
  <path d="M111.268 56.6803C112.828 57.3127 114.337 58.0903 115.826 58.8745C116.969 59.4768 118.122 60.0617 119.204 60.7735L125.61 65.2827C124.221 65.4878 122.699 65.4276 121.332 65.1136C117.687 64.2766 115.127 61.8347 112.912 58.9391C112.343 58.1955 111.766 57.4762 111.268 56.6803Z" fill="#8C6750"/>
  <path d="M118.54 75.3564L118.618 75.4097C120.127 76.4448 121.591 77.5307 122.852 78.8667C125.724 81.9072 126.827 85.7487 127.588 89.7642L125.505 88.4619C122.436 86.3022 120.793 83.1139 119.655 79.6258C119.199 78.2271 118.797 76.8063 118.54 75.3564Z" fill="#8C6750"/>
  <path d="M117.588 83.9402L119.838 87.3281C122.702 91.7312 125.339 96.7387 124.705 102.177C124.664 102.2 124.616 102.207 124.571 102.22C123.359 100.786 122.202 99.3363 121.252 97.7086C118.809 93.5176 117.861 88.7366 117.588 83.9402Z" fill="#8C6750"/>
  <path d="M115.053 65.2731C117.448 66.5377 120.083 67.8186 122.175 69.5499C124.719 71.6544 126.505 74.8958 127.704 77.9314L126.889 77.6734C125.343 77.1534 123.834 76.5355 122.476 75.6153C118.867 73.1685 116.94 69.0644 115.053 65.2731Z" fill="#8C6750"/>
  <path d="M137.208 69.5544C137.289 70.3033 137.259 71.0992 137.271 71.8549C137.301 73.8733 137.221 75.8784 136.899 77.8746C136.611 79.6601 136.111 81.5091 135.154 83.0585C134.113 84.7442 132.613 86.053 131.028 87.2048L130.922 87.2106L130.86 87.1264C131.318 84.2952 131.617 81.4829 132.54 78.7485C133.641 75.4898 135.593 72.5699 137.208 69.5544Z" fill="#8C6750"/>
  <path d="M133.336 55.4857C133.372 55.5936 133.391 55.6873 133.411 55.7994C134.251 60.5473 134.469 66.2435 132.606 70.7805C131.898 72.5067 130.905 74.0023 129.846 75.5252C129.735 75.6686 129.803 75.6156 129.648 75.6892L129.423 72.1491C129.349 70.6138 129.267 69.0668 129.392 67.5317C129.548 65.6167 130.008 63.7119 130.691 61.9194C131.52 59.7448 132.557 57.691 133.336 55.4857Z" fill="#8C6750"/>
  <path d="M114.118 40.8129C115.05 41.7041 116.11 42.4858 117.105 43.3057C118.964 44.836 120.849 46.517 122.385 48.374C124.615 51.0691 126.08 54.6023 126.236 58.1192C126.309 59.7469 126.128 61.3744 125.976 62.9927L125.915 63.2969L125.82 63.3162C123.257 59.8694 120.683 56.4182 118.592 52.6539C116.573 49.0191 114.98 44.8897 114.118 40.8129Z" fill="#8C6750"/>
  <path d="M73.0356 58.8564C72.8186 58.7976 67.0742 53.3421 66.5431 52.8362L66.4915 29.7413L61.3909 31.6195C56.9881 33.4813 52.8786 35.9 49.0529 38.7628L47.4664 39.982C47.3415 40.0808 47.0651 40.2428 46.9901 40.3607C46.9275 40.4593 46.9076 40.7471 46.8765 40.8783L46.5265 42.2404L45.5175 45.4769C44.7523 47.6744 43.7811 49.8142 42.7098 51.8773C41.1528 54.8762 39.2782 57.6017 37.3056 60.334C36.2529 61.7919 35.0914 63.2623 34.1528 64.7949C37.7329 61.4427 42.504 58.6991 47.027 56.8973C48.2693 56.4024 49.4804 55.9224 50.7958 55.6559C50.3718 56.3339 49.6978 56.9621 49.1647 57.5602C46.9389 60.0569 44.7209 62.525 41.884 64.3433C39.1593 66.0897 36.8178 66.6115 33.627 65.9011C32.5836 67.7642 31.9223 69.4807 31.487 71.5688C31.3717 72.122 31.214 72.7286 31.1756 73.2911L31.0051 77.4833C31.8879 75.2829 33.0754 72.925 34.6365 71.1354C36.1556 69.3942 38.2139 68.0864 40.1709 66.8971C42.279 65.6161 44.3725 64.455 46.6434 63.4827L44.3015 67.5109C43.2072 69.3717 42.1239 71.2008 40.8036 72.9148C39.3514 74.7997 37.4714 76.6532 35.2739 77.6189C33.9214 78.2133 32.4818 78.4683 31.0281 78.6572L30.9437 87.4812C30.9818 88.4935 30.9471 89.6081 31.2387 90.5848C31.8006 86.7019 33.2309 82.9708 35.7948 79.9638C36.7064 78.8946 37.7628 77.9243 38.7515 76.9265L42.4275 73.162C42.0754 75.8698 41.5242 78.3311 40.5859 80.9014C39.4889 83.9069 37.9867 86.6998 35.5453 88.8291C34.2973 89.9174 32.8262 90.7767 31.3306 91.4699C31.2718 91.7713 31.4603 92.3101 31.5165 92.6249C31.8864 94.697 32.3728 96.7457 32.9582 98.7666C33.2121 99.6433 33.4407 100.56 33.8054 101.398L33.7681 100.53C33.647 97.5399 34.4115 94.5284 35.8642 91.9243C36.9386 89.998 38.3664 88.2169 39.6537 86.4308C40.7647 84.8896 41.8186 83.1988 43.1098 81.8073C42.9726 85.3996 42.4454 88.8119 41.5865 92.3013C40.5221 96.6253 38.3059 100.469 34.4392 102.82C34.8337 104.349 35.4456 105.827 36.0562 107.281C36.9059 109.304 37.8122 111.314 39.0489 113.132C38.8839 111.328 38.4989 109.62 38.5176 107.789C38.5593 103.731 40.3042 99.6743 42.0987 96.1209C42.5481 95.2309 42.9754 94.3052 43.5245 93.473L43.5968 93.8233C44.1572 97.5374 44.2325 101.081 43.4995 104.78C43.2172 106.205 42.8417 107.675 42.2425 109C41.4845 110.677 40.4397 112.194 39.3534 113.67C40.5909 115.577 41.8665 117.355 43.3942 119.044C44.5812 120.357 45.8954 121.537 47.2114 122.716C47.0787 121.868 46.6226 120.928 46.3118 120.129C45.99 119.3 45.712 118.445 45.475 117.588C44.0139 112.304 44.7659 106.795 46.2214 101.607C46.3797 101.781 46.4626 102.09 46.5536 102.307L47.3381 104.294C49.1961 109.276 50.3579 114.963 48.9633 120.218C48.6831 121.274 48.2512 122.265 47.8023 123.257C51.3281 126.044 55.0322 128.419 59.1678 130.2L61.9673 131.338L63.9415 132.028C64.3511 132.155 64.989 132.26 65.3276 132.512C65.5161 132.652 65.5164 132.805 65.5445 133.021C65.4451 133.155 65.4419 133.235 65.2672 133.256C64.7064 133.324 63.5628 132.818 63.0198 132.636C58.7556 131.21 54.8295 129.21 51.1004 126.705C49.8522 125.866 48.5734 125.005 47.4351 124.02C44.8128 121.75 42.4047 119.385 40.3275 116.592C38.31 113.878 36.7153 110.88 35.3326 107.8C33.1709 102.984 31.6381 98.0916 30.7517 92.8845C30.5392 91.6368 30.3006 90.3896 30.207 89.126L28.6223 88.1672C25.3035 85.9335 23.0726 82.7821 22.304 78.8201C21.9375 76.9304 21.9234 74.9919 22.0037 73.075C22.071 71.4705 22.1831 69.8999 22.4365 68.3123C22.4937 67.9545 22.5223 67.1928 22.7376 66.9076C22.8389 66.7734 22.9273 66.8115 23.0853 66.7952C23.1345 66.8309 23.2017 66.8502 23.2331 66.9026C23.3698 67.1312 23.4493 67.5805 23.5373 67.846L24.2982 69.8936C25.4921 72.7544 27.2293 75.3194 28.1192 78.3131C29.055 81.4608 29.1573 84.8335 30.0714 87.9854C30.1537 87.4136 30.0778 86.747 30.0743 86.1665L30.0845 82.369L30.2765 77.8886C30.2886 77.507 30.3728 76.9851 30.3159 76.6154C30.3015 76.5217 30.1037 76.3285 30.0451 76.2605L28.9707 74.9641C28.2764 74.0357 27.7085 73.0374 27.1998 71.9971C24.9115 67.3172 25.0064 62.2668 25.7393 57.2319C25.9687 55.6559 26.2082 53.9916 26.7182 52.4817C26.9476 52.9854 27.057 53.5366 27.2025 54.0692L27.9568 56.7356C29.2451 61.0833 30.8743 65.2331 31.0286 69.8223C31.4048 68.8215 31.7776 67.8235 32.2428 66.8595L33.0695 65.3142C33.1614 65.1376 33.3415 64.8685 33.3889 64.6808C33.4259 64.5337 33.3111 64.0836 33.2906 63.9164L33.1201 61.9434C32.9261 57.9458 33.672 53.6761 35.5348 50.123C36.9853 47.3566 39.244 45.008 41.7881 43.2299C42.5687 42.6843 43.4525 42.2485 44.2093 41.6844C44.7583 41.2753 45.2711 40.7524 45.7937 40.3044L48.6406 38.0238C54.0289 33.9723 60.0681 30.8696 66.5037 28.8877L66.5248 16.6941L73.0405 16.7L73.0356 58.8564Z" fill="#19191B"/>
  <path d="M48.2074 57.2611L48.2925 57.2693L48.3225 57.3395C46.7624 59.0908 45.1789 60.8559 43.3455 62.3263C41.8133 63.5552 39.9008 64.8727 37.9411 65.2763C36.9788 65.4744 36.1167 65.4462 35.1455 65.3349L34.8516 65.2756L34.8648 65.1607C37.6711 62.7919 40.7394 60.7653 44.0217 59.1178L48.2074 57.2611Z" fill="#8C6750"/>
  <path d="M41.1846 75.5253C41.3885 76.0014 40.8423 77.553 40.6918 78.1007C39.6499 81.8924 38.0118 85.7647 34.9274 88.3339C34.0401 89.0731 33.0518 89.6508 32.0522 90.22C32.1927 88.9251 32.5732 87.5994 33.0063 86.3743C33.8327 84.0366 35.0296 82.0607 36.6557 80.19C38.0708 78.5616 39.7082 77.1026 41.1846 75.5253Z" fill="#8C6750"/>
  <path d="M26.7956 55.6036C27.2461 56.7221 27.5143 57.9822 27.8817 59.1379C28.809 62.0551 29.854 65.1295 30.1723 68.184C30.3289 69.6865 30.289 71.2408 30.3084 72.7502L30.3275 74.3986C30.3306 74.6899 30.3684 75.003 30.274 75.2821L29.8918 74.8306L29.2158 73.9357C25.3189 68.4667 25.744 61.8822 26.7956 55.6036Z" fill="#8C6750"/>
  <path d="M44.7107 65.2158C44.4346 65.8202 44.0302 66.4078 43.6936 66.9841L41.893 69.9913C39.9927 72.893 37.8924 75.6641 34.5888 77.0263C33.6616 77.4085 32.6974 77.6184 31.7197 77.8208C32.4611 75.9359 33.4055 73.9429 34.6591 72.3491C36.1043 70.5119 38.0125 69.1565 39.9782 67.9354L44.7107 65.2158Z" fill="#8C6750"/>
  <path d="M23.0856 69.1483C23.7917 71.153 24.9761 73.012 25.9079 74.9177C26.5858 76.304 27.1458 77.7144 27.5362 79.2094C27.9222 80.6874 28.1387 82.2018 28.4117 83.7031L28.8255 85.852C28.9251 86.3463 29.0705 86.8541 29.0548 87.3615L28.8676 87.3335C27.7523 86.6565 26.7351 85.7973 25.9219 84.7724C22.28 80.1839 22.4422 74.6808 23.0856 69.1483Z" fill="#8C6750"/>
  <path d="M42.1349 84.3149C42.1346 85.3305 42.006 86.3334 41.8391 87.3339C41.186 91.2479 40.3602 95.4764 37.8721 98.6775C36.9221 99.8999 35.8049 100.863 34.5554 101.76C34.4126 98.7954 34.7574 95.866 36.0771 93.1767C36.9521 91.3932 38.1507 89.8009 39.3218 88.2073L42.1349 84.3149Z" fill="#8C6750"/>
  <path d="M45.7078 41.6624L45.8494 41.7052C44.6208 46.2741 42.6426 50.7814 40.1334 54.7921C38.2511 57.8008 36.0973 60.5939 34.0368 63.4771C33.7829 60.5607 33.9462 57.8019 34.597 54.9432C35.6503 50.316 38.4026 46.6184 42.2084 43.8917C43.3281 43.0895 44.5431 42.399 45.7078 41.6624Z" fill="#8C6750"/>
  <path d="M80.4763 64.2794L81.2261 64.3946C82.2219 64.6883 83.1158 65.2059 83.7731 66.027C84.7108 67.1982 84.8116 68.5987 84.6694 70.0316C88.2188 70.6814 91.7597 72.4082 94.625 74.573C100.312 78.8696 103.873 84.9491 104.834 92.0279C105.441 96.4943 104.844 101.216 102.988 105.332C102.158 107.17 101.056 108.884 99.8394 110.485C97.0656 114.136 93.066 117.262 88.8019 118.948C86.6266 119.808 84.3958 120.303 82.0855 120.613L82.1217 124.283C83.2027 124.559 84.196 124.89 85.1313 125.515C87.323 126.981 89.0152 129.248 89.5317 131.872C90.0711 134.612 89.4961 137.282 87.9491 139.581C86.5769 141.621 84.2631 143.064 81.875 143.544C79.6819 143.985 77.3117 143.569 75.347 142.518C73.1533 141.345 71.4084 139.223 70.6942 136.834C69.9489 134.341 70.1931 131.595 71.4378 129.298C72.8027 126.78 75.1631 125.055 77.8764 124.257L77.8573 120.691C77.5469 120.596 77.1977 120.595 76.875 120.554L75.0416 120.265C72.2328 119.725 69.5441 118.664 67.1197 117.143C61.2703 113.475 57.0192 107.469 55.492 100.712C54.0151 94.1778 55.2537 87.1455 58.8105 81.4909C62.5217 75.5904 68.3983 71.5635 75.155 70.036L75.1178 69.3104C75.1331 67.9658 75.5069 66.6078 76.5072 65.6565C77.2453 64.9545 78.017 64.5796 78.9883 64.3164L79.4653 64.2783L80.4763 64.2794Z" fill="#19191B"/>
  <path d="M78.5759 120.711L81.2447 120.707L81.2534 124.092L78.6717 124.103C78.5317 123.916 78.5828 121.174 78.5759 120.711Z" fill="#EFE9E3"/>
  <path d="M79.5865 65.0876C79.9282 65.0575 80.2384 65.0541 80.5772 65.103C81.5792 65.248 82.604 65.7917 83.1967 66.6292C83.9 67.6231 84.0554 68.7497 83.8715 69.9261L80.4759 69.561C79.5984 69.5404 78.7007 69.5865 77.8265 69.6622L76.5473 69.7953C76.4343 69.8079 76.1964 69.8693 76.0939 69.8463C76.0406 69.8342 76.0025 69.7866 75.9567 69.7566L75.9146 69.552C75.7454 68.56 76.1296 67.3666 76.7226 66.5849C77.4257 65.6581 78.4728 65.2539 79.5865 65.0876Z" fill="#EFE9E3"/>
  <path d="M104.246 94.0795C104.561 100.73 102.075 107.009 97.6444 111.908C93.421 116.579 87.3508 119.708 81.0185 120.002C74.7083 120.295 68.4863 117.933 63.8481 113.652C60.013 110.112 57.1414 105.243 56.1675 100.087C55.8586 98.4517 55.7625 96.7808 55.6914 95.1208L57.0722 96.2191C57.3698 96.4353 57.7306 96.6366 57.9845 96.9012L57.9973 97.1145C58.6034 102.371 60.4958 107.049 64.145 110.915C64.8713 111.684 65.6277 112.444 66.4699 113.086C71.118 116.63 76.8492 118.495 82.6955 117.655C88.526 116.818 93.8177 113.587 97.3732 108.907C99.7971 105.717 101.313 102.011 101.852 98.0388C101.96 97.2378 102.119 96.3508 102.01 95.5464C102.495 94.9538 103.141 94.3369 103.867 94.0684L104.102 94.1018L104.246 94.0795Z" fill="#8C6750"/>
  <path d="M102.01 95.5464C102.119 96.3508 101.96 97.2379 101.851 98.0388C101.312 102.011 99.7969 105.717 97.373 108.907C93.8175 113.588 88.5258 116.818 82.6953 117.655C76.8491 118.495 71.1178 116.63 66.4697 113.086C65.6275 112.444 64.8711 111.684 64.1449 110.915C60.4956 107.049 58.6033 102.371 57.9972 97.1145L57.9844 96.9013L60.3367 98.5482C60.6525 98.7623 61.1838 99.0202 61.4386 99.2881C61.5525 99.4081 61.6781 100.268 61.7414 100.474C62.1064 101.662 62.5344 102.834 63.0878 103.948C66.7881 111.401 74.7158 115.808 82.9708 114.302C83.6905 114.171 84.4075 114.004 85.1044 113.781C85.2078 113.747 85.465 113.698 85.5338 113.618C86.2438 113.48 87.026 113.089 87.6752 112.774C89.1928 112.036 90.8607 111.162 92.1032 110.01C92.6191 109.712 93.0796 109.217 93.4997 108.793C95.6102 106.667 97.2533 104.019 98.2399 101.187C98.385 100.771 98.5325 100.347 98.6407 99.9196C98.7392 99.5299 98.7793 98.8987 98.9969 98.5708C99.2121 98.2465 99.61 97.9379 99.8891 97.6594L102.01 95.5464Z" fill="#8C6750"/>
  <path d="M79.5101 125.686C81.5264 125.53 83.549 126.187 85.115 127.458C86.8097 128.834 87.9076 130.842 88.1239 133.017C88.3409 135.2 87.7442 137.485 86.3075 139.175C84.8205 140.924 82.77 141.967 80.4884 142.145C78.5506 142.356 76.4133 141.613 74.8948 140.422C73.2033 139.095 72.1126 137.042 71.8634 134.914C71.6139 132.785 72.2387 130.535 73.5903 128.864C75.1545 126.93 77.0692 125.953 79.5101 125.686Z" fill="#EFE9E3"/>
  <path d="M79.2802 126.39C80.9649 126.148 82.8438 126.706 84.2199 127.681C85.8172 128.814 87.0589 130.674 87.3914 132.617C87.7563 134.749 87.2352 136.711 85.9971 138.454C84.7788 140.168 82.8525 141.07 80.8311 141.4C78.8169 141.58 76.8811 141.09 75.2858 139.812C73.7766 138.603 72.7331 136.817 72.5249 134.881C72.2922 132.719 72.9242 130.768 74.2761 129.091C75.5311 127.533 77.3055 126.594 79.2802 126.39Z" fill="#19191B"/>
  <path d="M55.7664 92.7014C56.371 86.2658 59.6729 80.1572 64.6268 76.0352C67.8534 73.3504 71.5507 71.5827 75.6643 70.7753C77.4234 70.4301 79.3664 70.218 81.1603 70.3951C83.1567 70.5922 85.1068 70.8993 87.0242 71.5126C91.5137 72.9488 95.6497 75.7757 98.6351 79.437C102.031 83.6012 103.92 88.7297 104.246 94.0796L104.102 94.1018L103.867 94.0684C103.141 94.337 102.495 94.9539 102.01 95.5465L99.8893 97.6595C99.6103 97.9379 99.2123 98.2466 98.9972 98.5708C98.7795 98.8987 98.7395 99.5299 98.6409 99.9196C98.5328 100.347 98.3853 100.771 98.2401 101.187C97.2536 104.019 95.6104 106.667 93.5 108.793C93.0798 109.217 92.6193 109.712 92.1034 110.01C90.8609 111.162 89.1931 112.036 87.6754 112.774C87.0262 113.089 86.244 113.48 85.534 113.618C85.4653 113.698 85.2081 113.747 85.1047 113.781C84.4078 114.004 83.6907 114.171 82.9711 114.302C74.716 115.808 66.7884 111.401 63.0881 103.948C62.5346 102.834 62.1067 101.662 61.7417 100.474C61.6784 100.268 61.5528 99.4081 61.4389 99.2882C61.184 99.0202 60.6528 98.7624 60.337 98.5482L57.9846 96.9013C57.7307 96.6367 57.3699 96.4354 57.0723 96.2192L55.6915 95.1208L55.6899 94.1029L55.7664 92.7014Z" fill="#EFE9E3"/>
  <path d="M55.7664 92.7014C57.367 94.1806 59.1842 96.0386 61.1575 96.9829L61.3514 98.4744C59.4164 97.0417 57.387 95.846 55.6899 94.103L55.7664 92.7014Z" fill="#8C6750"/>
  <path d="M78.6079 105.783C78.9279 105.623 80.9797 105.745 81.4888 105.756L81.5006 111.134C81.5021 111.984 81.5905 112.938 81.4746 113.778L81.032 113.869L78.6248 113.864L78.6079 105.783Z" fill="#8C6750"/>
  <path d="M68.0414 109.311L65.8247 106.864L72.195 102.497C72.8711 103.223 73.6214 103.84 74.4019 104.447L68.0414 109.311Z" fill="#8C6750"/>
  <path d="M85.6514 104.381L85.7468 104.324C86.5656 103.822 87.3817 103.074 87.9267 102.284L94.3118 106.792C93.8856 107.535 92.8612 108.567 92.1748 109.045C91.5257 108.703 90.9215 108.194 90.3318 107.754L87.337 105.526C86.7957 105.125 86.2562 104.679 85.6514 104.381Z" fill="#8C6750"/>
  <path d="M90.3388 96.9793L98.3719 96.9744C98.1947 98.5277 97.9013 99.8976 97.3747 101.373L97.0055 102.345C96.9805 102.349 96.9544 102.365 96.9303 102.357C96.7825 102.306 96.5197 102.057 96.3845 101.958L94.9784 100.94L90.2422 97.7252L90.3388 96.9793Z" fill="#8C6750"/>
  <path d="M61.9619 97.0366L67.5082 97.0866C68.256 97.0931 69.2835 96.9755 70 97.1462L70.1276 97.9404L67.3841 99.7718L63.2493 102.436C62.5218 100.685 62.1946 98.9086 61.9619 97.0366Z" fill="#8C6750"/>
  <path d="M70.1943 98.8058L70.2965 98.8016C70.5943 99.1799 70.7148 99.8439 70.9127 100.299C71.1423 100.827 71.4221 101.332 71.6987 101.836L71.5259 101.968C70.1191 103.021 68.5904 103.912 67.1441 104.91C66.8771 105.095 65.6221 106.08 65.3918 106.126C65.3237 106.139 65.2546 106.106 65.1858 106.096L63.5757 103.191L70.1943 98.8058Z" fill="#8C6750"/>
  <path d="M89.9817 98.5498L96.6452 103.096L94.9347 105.938C94.8296 106.103 94.898 106.035 94.7271 106.141L88.4849 101.647C89.0883 100.666 89.5703 99.6243 89.9817 98.5498Z" fill="#8C6750"/>
  <path d="M80.5693 81.955L80.5915 72.717C81.9432 72.8124 83.2635 72.9234 84.5885 73.2231C89.3274 74.2953 93.5348 77.0344 96.6915 80.6946C98.9232 83.2824 100.746 86.778 101.504 90.1252C101.825 91.54 101.95 92.9365 102.016 94.3811C101.302 95.6098 99.9284 96.4734 99.0335 97.5715C99.6379 92.519 98.0584 87.3723 94.9438 83.3809C92.4893 80.2352 89.2971 78.0519 85.5376 76.7751C84.4637 76.4103 83.3938 76.0935 82.2657 75.9436L82.109 75.9254L82.0934 83.7585L82.1096 85.133L80.5566 84.9428L80.5693 81.955Z" fill="#8C6750"/>
  <path d="M59.361 87.3822C59.5424 86.7504 59.8572 86.1142 60.135 85.5201C61.0044 83.6604 62.141 81.9472 63.4996 80.4115C66.7363 76.7532 71.0708 73.952 75.9082 73.0179C77.1194 72.784 78.3749 72.7316 79.6035 72.6566L79.6041 75.7754L79.6211 84.9246C79.3727 84.9642 78.2472 85.2401 78.1202 85.1625L78.111 75.8608C73.0343 76.5669 68.163 79.3533 65.0738 83.4656C62.89 86.3726 61.6302 89.6216 61.1364 93.2228C61.0564 93.8064 61.0213 94.3923 61.0039 94.9807C60.9944 95.2991 61.0219 95.6623 60.9552 95.9705C60.3719 95.5371 59.6438 95.1003 59.1361 94.5889L57.9966 93.6584C58.1742 91.5274 58.5506 89.3693 59.361 87.3822Z" fill="#8C6750"/>
  <path d="M79.18 86.1726C81.261 85.9897 83.4129 86.4844 85.1488 87.6715C87.1596 89.0464 88.7063 91.4236 89.1419 93.8297L89.1686 93.9829L89.1993 94.1375C89.6254 96.3403 88.8836 98.9656 87.6255 100.791C86.0718 103.046 84.0193 104.455 81.3291 104.938C79.0636 105.287 76.6969 104.696 74.8339 103.356C72.8121 101.901 71.443 99.6954 71.0749 97.2231C70.6708 94.5081 71.3538 91.7917 73.0004 89.607C74.4747 87.6508 76.7911 86.4951 79.18 86.1726Z" fill="#8C6750"/>
  <path d="M80.0493 88.434L81.991 93.1718C82.5098 93.4714 86.2829 93.4168 87.0431 93.4325L87.0376 93.4863L83.1581 96.5981L84.4577 101.227L80.4301 98.772L80.2335 98.6772C79.7179 98.8495 79.2026 99.2422 78.7437 99.5325L75.8626 101.332L77.1599 96.7351C77.0491 96.527 76.8101 96.383 76.6285 96.2354L75.1566 95.0791L73.3301 93.5203L78.2962 93.1942C78.7012 91.5984 79.4746 89.9865 80.0493 88.434Z" fill="#EFE9E3"/>
  </svg>
  