<svg width="160" height="160" viewBox="0 0 160 160" fill="none" xmlns="http://www.w3.org/2000/svg">
  <path d="M44.4821 54.1213L43.2792 55.1909C41.6806 56.7076 40.3397 58.7204 40.2958 60.9929C40.2713 62.2626 40.623 63.4468 41.5281 64.3735C42.4533 65.3207 43.737 65.8642 45.0599 65.8639C47.0686 65.8634 49.1648 64.6447 50.5431 63.2511L51.362 62.3478C49.8635 61.8075 48.4617 61.1178 47.7421 59.6011C47.3247 58.7217 47.1599 57.6146 47.1418 56.6515C47.1346 56.2682 47.1232 55.8715 47.2609 55.5073C47.4868 54.9099 48.0509 54.5525 48.6181 54.319C49.6021 53.9138 50.7365 53.9439 51.7819 53.9451C53.1102 53.9466 54.4742 53.9058 55.7154 54.4532C56.2144 54.6734 56.7172 54.9591 56.9277 55.4938C57.3644 56.6028 56.7934 58.6898 56.3005 59.7247C55.7786 60.8201 54.7049 61.6981 53.5653 62.0934L52.7609 62.3249C54.2121 63.9946 56.2988 65.6431 58.5957 65.8C59.8917 65.8886 61.3824 65.4986 62.3742 64.6277C63.3326 63.7862 63.8695 62.5788 63.9113 61.3114C63.9862 59.038 62.8136 57.063 61.2817 55.4685L60.3382 54.5693C60.7736 54.7548 61.1094 55.1023 61.4534 55.4188C61.86 55.7928 62.2851 56.1616 62.663 56.5648C64.0695 58.3085 64.8664 60.1147 64.5884 62.4026C64.4171 63.8127 63.5431 65.0869 62.4232 65.9273C61.2176 66.8319 59.5635 67.2024 58.0827 66.9659L56.8272 66.7502C56.4932 66.5045 55.8873 66.3594 55.4985 66.1681C54.1259 65.493 53.0611 64.5285 52.0492 63.3949C50.5425 65.2488 48.3206 66.7962 45.8903 67.0485C44.3192 67.2116 42.7536 66.7681 41.5428 65.7454C40.4335 64.8084 39.7491 63.42 39.6479 61.9758C39.502 59.894 40.3941 57.8956 41.7259 56.3417C42.5817 55.6514 43.477 54.5647 44.4821 54.1213Z" fill="#19191B"/>
  <path d="M54.6404 34.9581L53.8634 34.8506C56.2051 34.348 58.2743 34.6524 60.5683 35.2062C62.0263 32.0371 64.048 29.1469 66.2943 26.4893C68.8069 23.5171 71.6461 20.7647 74.9706 18.7126C77.3659 17.234 80.8734 15.4493 83.7846 16.1618C85.5478 16.5932 86.9623 17.5457 87.9539 19.0804C89.38 21.2875 89.8713 23.952 89.8832 26.5457C89.9026 30.7454 88.8004 34.8637 87.1722 38.7089C86.0998 41.2415 84.8089 43.6838 83.2351 45.9435C82.5498 46.9274 81.8438 47.9371 81.0626 48.8453C79.4936 50.6695 77.5308 52.1498 77.0108 54.6286C76.727 55.9817 76.948 57.4834 77.5444 58.7253C77.9707 59.6131 78.6394 60.3429 79.2843 61.0758L81.0871 63.2318C82.4911 65.0322 83.7697 66.9156 85.0116 68.83L80.9234 68.4528C81.5189 70.0384 82.0928 71.6257 82.5337 73.2625L82.8819 74.6327C82.9539 74.9304 82.9966 75.2561 83.1846 75.5064C85.0289 77.9635 87.1573 80.3651 89.9072 81.8313C91.5422 82.7031 93.4472 83.2036 95.2866 83.345C97.1693 83.4898 99.0886 83.3364 100.981 83.4252C106.236 83.672 111.68 85.2685 116.074 88.1779C122.297 92.2981 125.898 99.33 127.361 106.486C128.95 105.999 130.555 104.679 131.524 103.354C133.307 100.914 133.698 97.4612 133.236 94.5424C132.512 89.9601 130.354 85.5288 126.529 82.7436C127 82.6937 127.582 82.8035 128.055 82.8784C130.112 83.2047 132.249 84.0255 134.016 85.1281C139.252 88.3961 142.822 94.1289 144.192 100.082C145.103 104.044 145.291 108.069 144.513 112.066C144.154 113.914 143.55 115.871 142.541 117.472C140.937 120.018 138.898 121.658 135.952 122.317L136.187 122.783C136.731 123.753 137.506 124.318 138.558 124.632C138.124 125.054 137.629 125.381 137.037 125.53L136.918 125.559L136.678 125.621C134.76 126.03 132.64 125.208 131.071 124.174L131.292 125.032C131.704 126.359 132.535 127.045 133.72 127.663C133.331 127.86 132.953 128.007 132.52 128.075L132.416 128.091C131.994 128.158 131.575 128.163 131.151 128.117C129.345 127.923 128.152 126.952 127.056 125.593C126.398 129.919 125.253 134.117 123.727 138.217C123.094 139.917 122.403 141.969 121.1 143.277C120.661 143.717 120.005 144.083 119.4 144.24C118.35 144.515 116.935 144.331 115.847 144.325L110.033 144.3C110.037 143.905 110.009 143.471 110.099 143.085L110.123 142.988L110.227 142.577C110.765 140.686 112.368 139.535 114.011 138.634C112.205 133.318 109.484 127.488 104.771 124.159L104.82 125.226C104.871 127.611 104.456 130.028 103.911 132.341C103.367 134.649 102.698 136.85 101.789 139.044C101.183 140.507 100.499 142.101 99.3784 143.253C98.9331 143.711 98.3032 144.104 97.6758 144.241C96.8611 144.419 95.7328 144.299 94.8816 144.306L88.1889 144.346C88.137 143.637 88.1422 143.025 88.3866 142.349C88.9723 140.726 90.6222 139.644 92.1093 138.945C92.4105 138.423 92.5708 137.663 92.6771 137.07C93.2021 134.142 92.2315 131.304 90.5694 128.911C90.0521 128.977 89.2701 129.469 88.7666 129.695L85.6633 131.002C83.3834 131.875 81.0411 132.576 78.6708 133.151C78.4063 133.629 78.2838 134.295 78.1121 134.821L77.0194 138.188C76.7499 139.034 76.505 139.895 76.1439 140.707C75.5728 141.993 74.5103 143.64 73.1158 144.138L73.0279 144.167C72.5194 144.343 71.956 144.298 71.4228 144.305L68.9678 144.321L61.9684 144.34L62.0451 143.174C62.1939 141.918 63.2166 140.817 64.1993 140.107C64.5248 139.871 64.8984 139.678 65.202 139.416C66.1032 138.639 66.2506 133.962 66.3584 132.627C62.6483 132.208 58.7906 131.162 55.2918 129.855L54.3068 136.208C53.9896 138.016 53.765 139.855 52.8918 141.5C52.1949 142.812 51.1054 143.716 49.7013 144.166C49.1435 144.345 48.5626 144.298 47.9819 144.299L45.5947 144.297L39.1797 144.281C39.1184 144.009 39.1736 143.675 39.2027 143.398C39.3753 141.748 40.7353 140.849 41.9201 139.898C42.2069 139.668 42.5647 139.432 42.7241 139.092C43.8336 136.728 43.7012 133.477 42.8418 131.064C41.7496 127.998 39.3987 125.345 37.5413 122.711C35.9336 120.431 34.3845 118.044 33.0397 115.599C30.6072 111.175 28.6816 106.209 27.2435 101.378L26.2104 97.6587C26.022 96.9155 25.9007 96.1595 25.6476 95.4333L25.4266 95.4962C25.191 95.2098 25.1093 94.6682 25.0099 94.312C24.3486 91.9415 24.0736 89.5755 24.2308 87.1222L21.4182 89.9979C21.389 84.1776 22.9878 78.3282 25.518 73.1113L21.93 74.59C22.5735 72.4424 23.2238 70.4332 24.2582 68.4329C23.9806 68.3897 23.6387 68.4671 23.3574 68.4982C22.5372 68.5889 21.7342 68.7422 20.9262 68.9065C21.2976 65.6372 24.1019 62.6224 26.0439 60.1219C26.7848 59.1676 27.6021 58.2363 28.0154 57.081C28.4597 55.8391 28.4649 54.2087 27.8658 53.0135C27.4235 52.1312 26.7264 51.6038 26.005 50.9599C25.4757 50.4876 24.966 49.9779 24.4882 49.4536C22.1332 46.8698 19.9524 43.7374 18.4747 40.57C16.3582 36.0335 14.9519 31.3457 15.0013 26.3057C15.018 24.5907 15.2043 22.7973 15.8034 21.1801C16.4601 19.4076 17.6588 17.6649 19.4271 16.8673C21.7062 15.8395 24.4053 16.2606 26.6696 17.1248C32.9955 19.5393 38.0144 25.3251 41.482 30.9651C42.3346 32.352 43.1581 33.7436 43.822 35.2329C45.6158 34.823 47.2477 34.4994 49.097 34.6793C49.5177 34.7203 49.9608 34.7426 50.3668 34.864L49.8253 34.9632L48.5307 35.0617C50.0444 39.4013 50.7904 45.1475 48.7124 49.4194C47.7558 51.3862 46.2491 52.7542 44.5755 54.1054L44.4819 54.1213C43.4768 54.5647 42.5815 55.6514 41.7257 56.3417C40.3938 57.8956 39.5018 59.894 39.6477 61.9758C39.7489 63.42 40.4333 64.8084 41.5426 65.7454C42.7534 66.7681 44.3189 67.2116 45.8901 67.0485C48.3204 66.7962 50.5423 65.2489 52.049 63.3949C53.0608 64.5285 54.1257 65.493 55.4983 66.1681C55.8871 66.3594 56.493 66.5045 56.827 66.7502L58.0825 66.9659C59.5633 67.2024 61.2174 66.8319 62.423 65.9273C63.5429 65.0869 64.4169 63.8127 64.5882 62.4026C64.8662 60.1147 64.0693 58.3085 62.6628 56.5648C62.2849 56.1616 61.8598 55.7928 61.4531 55.4188C61.1092 55.1023 60.7734 54.7548 60.338 54.5693L60.3139 54.575C58.3428 53.2137 56.4043 51.3667 55.3575 49.195C53.2771 44.8796 54.0216 39.3806 55.5347 35.0168L54.6404 34.9581Z" fill="#19191B"/>
  <path d="M68.1729 26.2393C70.7785 23.2608 73.9585 20.439 77.5281 18.6788C78.9738 17.9659 80.5425 17.4074 82.1601 17.2901C83.4971 17.1931 84.8239 17.6354 85.8281 18.525C87.8625 20.3273 88.4539 23.3147 88.5816 25.9081C88.7624 29.5766 87.8522 33.2685 86.5759 36.6789C85.7708 38.8299 84.8343 40.8865 83.6089 42.8332C83.2961 43.0125 83.068 43.3514 82.8378 43.6248C82.8223 43.1853 82.7706 42.5465 82.9152 42.1342C82.9917 41.9158 83.0308 41.76 83.0588 41.5281L83.0703 41.4285L83.6594 40.1226C83.9526 39.873 84.0846 39.4978 84.2964 39.1818C85.9853 36.6622 86.767 33.6852 87.1746 30.7026C87.5815 27.7253 87.6451 22.7336 85.7327 20.2585C85.039 19.3607 84.1156 18.7358 82.975 18.6135C81.6345 18.4699 80.233 18.9657 79.0186 19.4746C76.4222 20.5624 73.9256 22.1287 71.826 24.0075L70.0468 25.6946C69.8674 25.8706 69.5605 26.2701 69.3454 26.3759C69.1045 26.4945 68.4923 26.3309 68.2354 26.2579L68.1729 26.2393Z" fill="#EFE9E3"/>
  <path d="M18.4747 37.6383C17.1502 33.957 16.1885 30.2917 16.2013 26.3532C16.207 24.5846 16.4251 22.7339 17.1051 21.0881C17.6859 19.6825 18.7315 18.3187 20.1742 17.729C22.2605 16.8762 24.7286 17.5382 26.7214 18.3621C28.7851 19.2153 30.7354 20.6079 32.4231 22.057C37.0159 26.0004 40.6197 31.1247 42.9505 36.7044C42.74 36.872 42.2392 37.1997 41.9682 37.1993L41.9042 37.19C41.3205 35.6879 40.4946 34.1998 39.6854 32.8058C38.5208 30.7997 37.2198 28.7323 35.633 27.0303C34.8778 26.0918 33.9408 25.2513 33.0545 24.4359C30.457 22.0466 27.5439 19.629 24.0219 18.8125C22.7427 18.5159 21.3442 18.5701 20.2054 19.2775C18.795 20.1539 18.1242 21.9177 17.776 23.4685C16.9724 27.0471 17.6533 31.1514 18.5219 34.6591L19.26 37.2902L18.4747 37.6383Z" fill="#EFE9E3"/>
  <path d="M79.4841 126.169C79.5268 126.227 79.5436 126.28 79.5374 126.355C79.5104 126.681 79.2904 127.14 79.1809 127.454L78.3066 129.985L76.0435 136.866C75.6888 137.928 75.389 139.04 74.937 140.063C74.5625 140.911 74.0707 141.783 73.4021 142.435C73.2117 142.621 72.9398 142.848 72.6771 142.919C72.3797 142.999 72.0209 142.972 71.7144 142.971L69.9878 142.966L63.7256 142.943L63.6094 142.832C63.8328 141.785 65.419 141.029 66.1657 140.368C66.4027 140.159 66.6035 139.917 66.7309 139.626C66.9961 139.021 67.0546 138.304 67.15 137.656L67.6259 133.296C69.2624 132.101 70.8834 130.813 72.5817 129.71C74.6888 128.341 77.13 127.031 79.4841 126.169Z" fill="#EFE9E3"/>
  <path d="M101.366 123.179C102.175 123.125 102.764 123.216 103.488 123.587L103.559 124.963C103.535 129.697 102.27 134.547 100.432 138.883C99.938 140.048 99.388 141.423 98.4656 142.321C98.1736 142.605 97.8733 142.799 97.4718 142.888C96.6438 143.073 95.6418 142.964 94.79 142.965L89.6981 142.964C89.68 142.881 89.6669 142.862 89.6818 142.778C89.87 141.714 91.4094 140.884 92.2322 140.4C92.523 140.228 92.8885 140.048 93.13 139.81C93.518 139.429 93.7197 138.622 93.8518 138.094C94.7415 134.544 93.5997 131.262 91.7794 128.236L95.6643 126.047C97.4982 124.91 99.1676 123.504 101.366 123.179Z" fill="#EFE9E3"/>
  <path d="M53.5863 129.124C53.7496 129.19 53.9062 129.249 54.0507 129.353C53.9581 130.496 53.6957 131.625 53.5165 132.757L52.7927 137.128C52.6157 138.124 52.4788 139.125 52.1037 140.071C51.7841 140.877 51.2746 141.638 50.6251 142.215C50.2785 142.523 49.7819 142.779 49.325 142.863C48.3539 143.041 47.155 142.922 46.1625 142.927C44.3325 142.935 42.4611 143.021 40.6356 142.908C41.3788 141.838 42.5615 141.287 43.3972 140.338C43.8088 139.87 44.0692 139.242 44.2644 138.656C44.6641 137.454 44.7919 136.206 44.793 134.944C44.7945 133.135 44.4439 131.362 43.7126 129.702C42.5839 127.139 40.7321 124.93 39.104 122.676C37.3751 120.282 35.6135 117.764 34.29 115.122C34.7071 115.385 35.1103 115.903 35.4668 116.25L38.0182 118.666L42.5841 122.556C43.3987 122.98 44.1597 123.634 44.9115 124.167L48.458 126.502L51.7809 128.295C52.3527 128.57 53.0651 128.786 53.5863 129.124Z" fill="#EFE9E3"/>
  <path d="M42.584 122.556C43.3986 122.98 44.1596 123.634 44.9114 124.167L48.4579 126.503L51.7808 128.295C52.3526 128.571 53.065 128.786 53.5862 129.124C53.1056 130.029 52.8423 131.211 51.8199 131.698C51.4502 131.873 51.2623 131.922 50.8821 131.788C50.4431 131.634 50.0929 131.394 49.7454 131.091C48.031 129.593 46.5728 127.655 45.1235 125.905C44.2748 124.88 43.1761 123.743 42.584 122.556Z" fill="#8C6750"/>
  <path d="M130.08 84.7709L129.154 83.8604C130.253 84.1885 131.332 84.5356 132.357 85.057C135.893 86.8556 138.876 90.096 140.758 93.5493C143.828 99.1834 145.105 106.894 143.244 113.115C142.541 115.465 141.577 117.642 139.726 119.315C139.345 119.66 138.953 120.02 138.5 120.267L138.428 120.305L138.412 120.334C137.658 120.711 136.738 121.226 135.877 121.221C135.59 120.927 135.661 119.582 135.639 119.134L135.166 119.569C134.734 120.025 134.528 120.746 134.533 121.362C134.544 122.584 135.205 123.664 136.056 124.489C135.518 124.522 134.898 124.452 134.376 124.318C133.21 124.019 132.136 123.554 131.254 122.712C130.871 122.346 130.543 121.901 130.214 121.486C130.115 121.641 130.056 121.815 130.001 121.99C129.507 123.566 130.028 125.4 130.753 126.812C130.252 126.72 129.587 126.349 129.177 126.049C128.644 125.658 127.588 124.662 127.385 124.01C127.336 123.856 127.44 123.447 127.467 123.275L127.779 121.06L128.045 118.33C128.337 114.844 128.188 111.185 127.59 107.74L128.38 107.409C130.966 106.211 132.829 104.128 133.796 101.453C135.375 97.0884 134.159 91.9747 132.064 87.9897C131.722 87.3382 131.341 86.7037 130.932 86.092C130.676 85.7095 130.319 85.3216 130.135 84.9014L130.08 84.7709Z" fill="#8C6750"/>
  <path d="M130.08 84.7709L129.153 83.8604C130.252 84.1885 131.331 84.5356 132.356 85.057C135.893 86.8556 138.875 90.096 140.757 93.5493C143.827 99.1834 145.105 106.894 143.243 113.115C142.54 115.465 141.576 117.642 139.726 119.315C139.345 119.66 138.952 120.02 138.5 120.267L138.427 120.305C138.543 120.031 138.817 119.788 138.994 119.546C139.267 119.171 139.505 118.759 139.725 118.352C141.017 115.95 141.79 113.112 142.041 110.4C141.091 112.11 140.113 113.267 138.305 114.1C139.678 111.512 140.409 108.731 140.546 105.809C139.955 106.792 139.253 107.939 138.186 108.469C137.607 108.757 136.913 108.902 136.29 109.076C137.473 105.041 138.276 100.836 137.338 96.6624C136.507 92.967 134.857 89.8409 132.39 86.9719C131.727 86.2003 130.947 85.3171 130.08 84.7709Z" fill="#EFE9E3"/>
  <path d="M81.5435 87.8791L82.3034 89.0804C82.5823 88.6921 82.704 87.9766 82.8317 87.5076C83.6635 84.4525 83.9845 81.1064 83.4797 77.9664C83.7303 78.1561 83.961 78.5009 84.1742 78.7409L85.346 79.9625C86.3483 80.9654 87.4165 81.7157 88.5589 82.542L88.7823 84.0456L89.121 88.477C89.5595 98.262 87.8107 108.179 84.5951 117.407L82.4037 122.957C82.0624 123.75 81.6165 124.492 81.3365 125.309C81.1714 124.928 81.0562 124.721 80.6932 124.509C80.0666 124.436 79.3753 124.788 78.7955 125.007C76.4692 125.886 74.1107 127.142 72.029 128.504L67.7397 131.56C67.564 130.946 67.6003 130.255 67.4454 129.622C67.2028 128.632 66.8889 127.735 66.3261 126.876C64.7509 124.469 61.4934 123.292 58.7979 122.74L58.911 122.684C59.2201 122.505 59.5433 122.159 59.8141 121.921L62.1856 119.683C69.1895 112.974 74.5596 104.799 78.5631 96.0086L80.7134 90.5842C81.0189 89.6873 81.3421 88.8066 81.5435 87.8791Z" fill="#8C6750"/>
  <path d="M18.4742 37.6383L19.2595 37.2902L18.5214 34.6591C17.6529 31.1514 16.9719 27.047 17.7755 23.4685C18.1237 21.9177 18.7945 20.1539 20.205 19.2775C21.3437 18.57 22.7423 18.5159 24.0214 18.8124C27.5434 19.6289 30.4566 22.0466 33.054 24.4359C33.9404 25.2513 34.8773 26.0918 35.6325 27.0302C37.2193 28.7322 38.5204 30.7996 39.6849 32.8057C40.4942 34.1998 41.3201 35.6879 41.9037 37.19L41.9677 37.1992C42.2387 37.1997 42.7396 36.8719 42.95 36.7043C43.2392 36.5355 43.6392 36.4366 43.9559 36.3181C45.448 35.7598 46.9787 35.4084 48.5303 35.0617C50.044 39.4013 50.79 45.1475 48.712 49.4194C47.7554 51.3862 46.2487 52.7542 44.5751 54.1054L44.4815 54.1213C43.4763 54.5647 42.5811 55.6514 41.7252 56.3417C40.6926 55.9688 35.2313 57.971 34.0639 58.5177C31.8505 59.5542 29.8015 60.7268 28.0193 62.4212C27.4351 62.9765 26.8442 63.569 26.4045 64.2493C26.0272 64.8332 25.7612 65.5037 25.4999 66.1455C25.8904 65.7932 26.2808 65.4281 26.7376 65.1621C28.2993 64.2531 30.237 63.8804 31.9506 63.3529C31.3568 63.995 30.7522 64.6406 30.2675 65.3714C29.2965 66.8355 28.7413 68.5276 28.4109 70.2401C30.0572 68.7645 32.136 67.8396 34.2156 67.1415C33.6154 67.5763 32.9873 67.9987 32.4676 68.5301C31.2596 69.7653 30.3926 71.7037 30.1261 73.4048C29.9587 74.4742 30.023 75.4728 30.2018 76.5327C30.2489 76.1346 30.2786 75.7007 30.3963 75.3173C30.7096 74.2981 31.502 73.4276 32.3204 72.7792C32.7343 72.4515 33.1728 72.2123 33.6445 71.9758C32.4871 74.0368 32.2218 76.4894 32.8648 78.7702C33.5662 81.2581 35.4582 83.4019 37.2369 85.2047C39.3701 87.3664 41.6989 89.3014 44.2183 90.9997C38.3336 88.9959 32.8397 85.4689 28.7275 80.808C27.4726 79.3857 26.3828 77.9812 25.5344 76.2751C25.695 75.7105 26.0058 75.1354 26.2564 74.6051C26.8513 73.3466 27.4468 72.0941 28.386 71.0534C26.949 71.3262 25.3814 71.8332 24.0155 72.3559C24.615 70.4594 25.4957 68.5657 26.7794 67.031L22.7272 67.2003C23.2053 65.8611 24.0848 64.7418 24.9387 63.624C26.1394 62.0522 27.493 60.4581 28.5137 58.7673C29.4086 57.2851 29.7862 55.336 29.352 53.6413C29.1566 52.8784 28.9159 52.22 28.4179 51.5906C27.8221 50.8376 26.9494 50.2394 26.263 49.5625C25.4259 48.7367 24.6474 47.8423 23.9016 46.9333C22.4188 45.1265 21.1238 43.0639 20.0202 41.0057C19.4377 39.9193 18.859 38.813 18.4742 37.6383Z" fill="#8C6750"/>
  <path d="M44.3836 39.3656C44.8753 39.3051 45.41 39.3045 45.8811 39.4709C46.5829 39.7188 47.2737 40.2615 47.5761 40.9542C47.8016 41.4709 47.8184 42.0463 47.5794 42.5602C47.1859 43.4067 46.4348 43.8151 45.5919 44.0955L45.3435 44.135C44.7365 44.232 44.1465 44.1597 43.5919 43.8813C43.0131 43.5908 42.4924 43.0474 42.3024 42.4182C42.1513 41.9183 42.229 41.2406 42.4721 40.7857C42.8864 40.0101 43.5788 39.6261 44.3836 39.3656Z" fill="#EFE9E3"/>
  <path d="M42.4409 45.2493C43.1183 45.185 43.7555 45.2283 44.3703 45.5457C45.2223 45.9855 45.878 46.7752 46.1643 47.6903C46.4343 48.5535 46.2852 49.5267 45.8332 50.3006C45.3055 51.2037 44.4168 51.7077 43.4289 51.9448C42.5338 52.0399 41.8098 51.9603 41.0177 51.4846C40.2448 51.0207 39.6972 50.2918 39.4937 49.4071C39.2825 48.4895 39.4441 47.6506 39.9505 46.8576C40.5393 45.9353 41.3882 45.4674 42.4409 45.2493Z" fill="#19191B"/>
  <path d="M42.2713 46.2097C42.491 46.2015 42.7126 46.2059 42.9247 46.272C43.2447 46.3719 43.4643 46.6023 43.596 46.9053C43.7225 47.1965 43.7235 47.5528 43.5882 47.8413C43.3785 48.2884 43.0725 48.4421 42.6223 48.5938C42.455 48.5923 42.281 48.591 42.1198 48.5419C41.7992 48.4441 41.5071 48.1727 41.3684 47.8692C41.2248 47.5549 41.1876 47.271 41.3336 46.9484C41.5171 46.5429 41.8861 46.3688 42.2713 46.2097Z" fill="#EFE9E3"/>
  <path d="M31.7534 29.0154C32.7913 28.0333 34.3057 27.495 35.633 27.0302C37.2198 28.7322 38.5208 30.7996 39.6853 32.8057C40.4946 34.1997 41.3205 35.6878 41.9041 37.1899C41.5074 37.123 40.5337 37.6903 40.1711 37.8864C38.4212 38.8319 36.8986 39.917 35.4928 41.3294C34.8804 41.9445 34.281 42.586 33.7409 43.2656C32.4866 44.8444 31.1461 46.9752 29.1335 47.6736L29.0106 47.7145C28.5645 47.8662 28.0749 47.9044 27.61 47.8128C25.6438 47.425 24.1488 45.0931 23.1079 43.5423C22.2055 42.1979 21.397 40.7676 20.7741 39.2713C20.6016 38.857 20.3242 38.2979 20.4124 37.8524C20.7746 37.2828 21.6174 36.9339 22.2206 36.6623C23.1395 36.2484 23.9888 35.9595 24.9746 36.3436L25.0474 36.3725C25.8085 37.7813 26.4523 39.1475 27.5326 40.3564C27.9542 40.7684 28.3738 41.2226 28.8406 41.5814C29.881 42.3806 31.2258 43.0919 32.4454 43.5809L33.3829 42.333L35.8326 39.6354C35.9406 39.0138 35.8992 38.1443 35.8171 37.5166C35.2868 34.2168 33.7415 31.6317 31.7534 29.0154Z" fill="#8C6750"/>
  <path d="M27.5322 40.3564C27.9539 40.7684 28.3735 41.2227 28.8402 41.5814C29.8806 42.3807 31.2254 43.092 32.445 43.581L31.5097 44.726C30.23 43.8551 29.1856 42.6374 28.247 41.4238C27.979 41.0774 27.6474 40.7902 27.5322 40.3564Z" fill="#8C6750"/>
  <path d="M25.0473 36.3724C24.508 34.979 23.9436 33.5932 23.5472 32.1504C23.0044 30.1748 22.7475 28.0613 22.7463 26.0145C22.7459 25.1894 22.7039 22.854 23.3354 22.2969C23.488 22.1624 23.7117 22.0954 23.9101 22.1174C24.345 22.1658 24.9257 22.5718 25.2905 22.804C27.8188 24.4142 29.9654 26.6212 31.7533 29.0153C33.7414 31.6317 35.2867 34.2167 35.817 37.5166C35.8992 38.1442 35.9405 39.0138 35.8325 39.6353L33.3828 42.3329L32.4453 43.5808C31.2257 43.0919 29.8809 42.3806 28.8405 41.5813C28.3737 41.2226 27.9541 40.7683 27.5325 40.3563C26.4522 39.1474 25.8084 37.7812 25.0473 36.3724Z" fill="#EFE9E3"/>
  <path d="M33.3831 42.3331C32.9863 41.4554 32.3089 40.6409 31.6954 39.904L30.0283 37.9314L29.2746 37.1342C29.2194 37.0772 29.0719 36.9625 29.0454 36.8989C29.0327 36.8682 29.0454 36.8327 29.0454 36.7996L34.7721 40.5539C34.6112 40.066 34.5082 39.5586 34.2754 39.0968C33.8348 38.223 33.1701 37.4518 32.5292 36.7198C31.4861 35.5287 30.4411 34.4774 29.1874 33.5041C28.5046 32.974 27.6583 32.5085 27.0488 31.9087C29.5839 32.8352 32.0454 34.5161 34.1334 36.2025C34.6572 36.6255 35.2225 37.0254 35.6699 37.5315L35.7367 37.6084L35.8172 37.5167C35.8994 38.1444 35.9408 39.0139 35.8327 39.6355L33.3831 42.3331Z" fill="#8C6750"/>
  <path d="M88.5587 82.5418L89.7297 83.1811C90.764 83.6345 91.855 84.0835 92.9632 84.3239C95.0074 84.7674 97.0389 84.6119 99.1099 84.6113C100.609 84.6109 102.083 84.7158 103.565 84.9389C104.844 85.2035 106.139 85.3859 107.404 85.7185C113.404 87.2964 118.357 90.5557 121.783 95.7576C127.907 105.055 127.659 116.794 125.494 127.293C124.616 131.554 123.488 135.907 121.656 139.868C121.211 140.829 120.725 142.052 119.805 142.653C119.552 142.819 119.266 142.938 118.967 142.986C118.236 143.105 117.354 143.014 116.608 143.01L111.539 142.966C112.153 141.067 113.778 140.327 115.357 139.346C115.415 139.311 115.674 139.17 115.689 139.136C115.788 138.91 113.256 133.121 112.863 132.354C111.028 128.771 107.712 123.489 103.69 122.219L103.28 122.105L103.146 122.069C101.097 121.537 98.9442 122.373 97.2071 123.424L92.0421 126.573C89.2381 128.152 86.1464 129.489 83.1036 130.535C81.8105 130.979 80.4529 131.452 79.105 131.689L80.3398 128.176C80.6873 127.228 81.1112 126.295 81.3363 125.309C81.6162 124.491 82.0622 123.75 82.4035 122.957L84.5949 117.406C87.8104 108.179 89.5593 98.2619 89.1208 88.4769L88.7821 84.0454L88.5587 82.5418Z" fill="#8C6750"/>
  <path d="M88.5587 82.5418L89.7297 83.1811C89.7498 84.2097 89.8957 85.2303 89.9855 86.2548L90.1661 90.0006C90.1986 92.3359 90.185 94.6638 90.0042 96.9939C89.4834 103.702 88.0233 110.412 85.9246 116.798L83.8142 122.333C83.426 123.27 82.9624 124.207 82.6465 125.17C83.6895 124.79 84.6139 124.019 85.5512 123.425C88.2991 121.685 90.9473 119.747 93.4119 117.62C96.729 114.758 99.8188 111.512 102.766 108.274L105.637 104.913C106.052 104.414 106.454 103.81 106.937 103.38C105.879 109.961 106.678 116.763 110.689 122.285C113.082 125.58 116.393 128.436 119.875 130.516C120.798 131.067 121.707 131.614 122.695 132.041C122.873 131.684 122.94 131.221 123.045 130.835L123.778 127.789C125.622 119.533 125.961 110.587 123.227 102.487C121.168 96.3875 117.049 91.5954 111.267 88.7521L109.998 88.1883C109.388 89.1209 108.771 90.0546 107.997 90.8626C106.463 92.4654 104.373 93.5527 102.209 93.9999C99.7362 94.5111 97.0196 93.8538 94.9301 92.4746C94.4168 92.1357 93.9321 91.7749 93.4871 91.35C95.5625 92.3533 97.9826 92.8812 100.291 92.6093C101.248 92.4966 102.165 92.2115 103.072 91.8964C105.357 91.1023 107.181 89.5729 108.638 87.6757L104.18 86.3346C103.468 86.9599 102.761 87.6157 101.962 88.1313C100.283 89.2162 97.8747 90.0015 95.8654 89.8715C94.1206 89.7587 92.7756 89.1849 91.6279 87.8424L91.1355 87.2183C92.0508 87.6044 92.9529 87.9739 93.9327 88.1621C95.8829 88.5364 97.9727 88.1749 99.7944 87.4347C100.609 87.1037 101.459 86.6539 102.155 86.1131C102.64 85.7357 103.062 85.2973 103.565 84.9389C104.844 85.2035 106.139 85.3859 107.404 85.7185C113.404 87.2964 118.357 90.5557 121.783 95.7576C127.907 105.055 127.659 116.794 125.494 127.293C124.616 131.554 123.488 135.907 121.656 139.868C121.211 140.829 120.725 142.052 119.805 142.653C119.552 142.819 119.266 142.938 118.967 142.986C118.236 143.105 117.354 143.014 116.608 143.01L111.539 142.966C112.153 141.067 113.778 140.327 115.357 139.346C115.415 139.311 115.674 139.17 115.689 139.136C115.788 138.91 113.256 133.121 112.863 132.354C111.028 128.771 107.712 123.489 103.69 122.219L103.28 122.105L103.146 122.069C101.097 121.537 98.9442 122.373 97.2071 123.424L92.0421 126.573C89.2381 128.152 86.1464 129.489 83.1036 130.535C81.8105 130.979 80.4529 131.452 79.105 131.689L80.3398 128.176C80.6873 127.228 81.1112 126.295 81.3363 125.309C81.6162 124.491 82.0622 123.75 82.4035 122.957L84.5949 117.406C87.8104 108.179 89.5593 98.2619 89.1208 88.4769L88.7821 84.0454L88.5587 82.5418Z" fill="#EFE9E3"/>
  <path d="M68.1728 26.2393L68.2353 26.2579C68.4922 26.331 69.1044 26.4945 69.3454 26.3759C69.5604 26.2701 69.8673 25.8706 70.0467 25.6947L71.8259 24.0076C73.9255 22.1287 76.4222 20.5625 79.0186 19.4746C80.233 18.9657 81.6345 18.4699 82.9749 18.6136C84.1155 18.7358 85.0389 19.3607 85.7327 20.2585C87.645 22.7336 87.5814 27.7253 87.1745 30.7026C86.767 33.6852 85.9852 36.6622 84.2963 39.1818C84.0845 39.4978 83.9525 39.873 83.6593 40.1226L83.0702 41.4286L83.0587 41.5281C83.0307 41.76 82.9916 41.9159 82.9151 42.1342C82.7706 42.5465 82.8222 43.1853 82.8377 43.6249C83.0679 43.3515 83.296 43.0125 83.6088 42.8332L83.5786 42.914C83.3877 43.403 83.1083 43.8459 82.8432 44.2969C81.9662 45.7886 80.8529 47.2038 79.6834 48.4779C78.6703 49.5818 77.4801 50.6852 76.6905 51.9669C75.9258 53.208 75.5476 54.7734 75.6314 56.2242C75.6805 57.0738 75.8185 57.9294 76.1534 58.7168C76.4287 59.3644 76.7786 59.9498 77.2011 60.5114C77.8554 61.3815 82.4842 66.6196 82.3785 67.3077C81.7028 67.205 81.0389 67.045 80.39 66.8294C79.8637 66.6547 79.2653 66.3801 78.7125 66.3177C79.1565 67.3185 79.6232 68.3323 79.9036 69.3937C80.9382 72.2961 81.9168 75.4246 82.2454 78.4947C82.5114 80.9785 82.3348 83.5216 81.8419 85.963L81.8064 85.994C80.7704 84.3978 79.6678 82.8606 78.3637 81.4704C78.561 85.6685 77.402 89.4346 75.5096 93.1489L73.8922 89.0245C73.7229 88.598 73.5902 88.0219 73.3356 87.647C72.662 91.175 71.6211 94.5214 69.7725 97.6237C69.2075 98.5721 68.5288 99.4683 67.8907 100.369L66.7847 95.0924L66.6577 95.1391C66.3812 96.1158 66.4528 97.1166 66.5004 98.1168C66.5288 98.7101 66.5251 99.3424 66.644 99.9242L67.0422 103.098C67.717 102.59 68.2811 101.891 68.8183 101.244C71.1444 98.4428 72.6885 95.4218 73.7264 91.9381C74.2666 93.2415 74.8029 94.7064 75.1121 96.0805C75.6672 95.4877 76.0909 94.7471 76.4991 94.0499C78.1883 91.1656 79.1174 88.1035 79.6249 84.8155L80.7856 86.6146C81.0486 87.021 81.3624 87.4307 81.5434 87.8791C81.342 88.8065 81.0187 89.6872 80.7133 90.5841L78.563 96.0085C74.5594 104.799 69.1894 112.974 62.1855 119.683L59.814 121.921C59.5431 122.159 59.22 122.505 58.9108 122.684L58.7977 122.74L58.5156 123.005L58.5311 123.107C59.0914 123.167 59.6346 123.387 60.1529 123.6C61.2121 124.035 62.2481 124.587 63.1582 125.285C65.2018 126.853 66.0652 128.808 66.381 131.302C65.1764 131.211 63.9329 130.906 62.7558 130.636C60.8103 130.189 58.8654 129.684 56.9738 129.044C50.6049 126.891 44.9199 122.995 39.9104 118.583C38.1362 117.021 36.388 115.405 34.7727 113.677L33.0012 111.76C32.7029 111.439 32.2935 111.084 32.1098 110.689C31.0999 108.519 30.2899 106.297 29.5045 104.038C28.5994 101.436 27.7854 98.8164 27.1583 96.1317L26.8508 94.692C26.821 94.5367 26.7383 94.2749 26.7717 94.1195C26.8779 93.627 27.3632 92.9673 27.6328 92.5342C27.8178 93.485 27.9482 94.4369 28.2008 95.3744C28.9746 98.2472 30.4419 100.971 32.2493 103.319L33.366 100.478C34.0235 101.826 34.6819 103.147 35.4979 104.41C37.5806 107.637 40.216 110.224 43.2222 112.577L43.2882 112.55C40.064 109.512 37.3362 105.82 35.4065 101.834C34.5996 100.167 33.908 98.4674 33.494 96.6589L31.9133 100.657C29.6137 96.9032 28.7746 92.9092 28.5455 88.5676C27.4795 89.8432 26.7018 91.2735 26.0249 92.7823C25.8006 92.3912 25.741 91.6849 25.6776 91.2332C25.4515 89.6212 25.4183 88.0416 25.6581 86.4284L26.2338 83.4604L22.9629 86.6885C23.3405 83.0576 24.2087 79.6783 25.5346 76.2751C26.383 77.9812 27.4728 79.3857 28.7277 80.808C32.8399 85.4689 38.3338 88.996 44.2185 90.9997C41.6991 89.3014 39.3703 87.3664 37.2371 85.2047C35.4584 83.4019 33.5664 81.2581 32.865 78.7702C32.222 76.4894 32.4873 74.0368 33.6447 71.9758C33.173 72.2123 32.7345 72.4515 32.3206 72.7792C31.5022 73.4276 30.7098 74.2982 30.3965 75.3173C30.2788 75.7007 30.2491 76.1346 30.2019 76.5327C30.0232 75.4728 29.9589 74.4742 30.1263 73.4048C30.3928 71.7037 31.2598 69.7653 32.4678 68.5301C32.9875 67.9987 33.6156 67.5763 34.2158 67.1416C32.1361 67.8396 30.0574 68.7645 28.4111 70.2401C28.7415 68.5276 29.2967 66.8355 30.2677 65.3714C30.7524 64.6406 31.357 63.995 31.9508 63.3529C30.2372 63.8804 28.2995 64.2531 26.7378 65.1621C26.281 65.4281 25.8906 65.7932 25.5 66.1455C25.7614 65.5037 26.0274 64.8332 26.4047 64.2493C26.8444 63.5691 27.4353 62.9765 28.0195 62.4212C29.8017 60.7268 31.8507 59.5542 34.0641 58.5177C35.2315 57.971 40.6928 55.9688 41.7254 56.3418C40.3936 57.8957 39.5016 59.894 39.6474 61.9759C39.7486 63.4201 40.433 64.8085 41.5423 65.7454C42.7532 66.7681 44.3187 67.2117 45.8899 67.0485C48.3201 66.7962 50.542 65.2489 52.0488 63.3949C53.0606 64.5285 54.1254 65.493 55.498 66.1681C55.8868 66.3594 56.4927 66.5045 56.8267 66.7502L58.0822 66.9659C59.563 67.2024 61.2171 66.832 62.4227 65.9273C63.5426 65.0869 64.4166 63.8127 64.5879 62.4026C64.866 60.1147 64.0691 58.3085 62.6625 56.5649C62.2846 56.1617 61.8595 55.7928 61.4529 55.4188C61.1089 55.1023 60.7731 54.7548 60.3378 54.5693L60.3136 54.575C58.3425 53.2137 56.404 51.3667 55.3572 49.195C53.2769 44.8796 54.0214 39.3807 55.5345 35.0168C56.6812 35.2164 57.8116 35.4072 58.9296 35.7395C59.7344 35.9789 60.5342 36.352 61.3493 36.5271C63.1919 32.8227 65.2491 29.2145 68.1728 26.2393Z" fill="#EFE9E3"/>
  <path d="M47.8062 67.7801C47.6582 67.5224 47.6003 67.3779 47.6011 67.079L47.7249 66.9802C49.1861 68.1824 50.7148 68.8291 52.6367 68.634C53.3743 68.5591 54.0773 68.3868 54.7415 68.0541C55.1384 67.8552 55.5132 67.6028 55.8658 67.3339C56.1479 67.1188 56.4606 66.7751 56.827 66.7502L56.9217 66.898C56.3158 68.0806 55.3583 68.9236 54.0879 69.3475C52.5536 69.8595 50.7154 69.7813 49.276 69.0239C48.7126 68.7275 48.1631 68.3141 47.8062 67.7801Z" fill="#19191B"/>
  <path d="M66.644 99.9242C66.3083 100.277 66.0572 100.729 65.7706 101.123L63.8495 103.75C62.7315 105.237 61.5277 106.632 60.2686 108C58.6289 109.781 56.9664 111.417 54.9806 112.811L54.9385 112.773C59.5883 108.476 63.3248 102.825 65.7527 96.9929L66.6136 94.5931L66.7019 94.6128L66.7846 95.0924L66.6577 95.1391C66.3811 96.1158 66.4527 97.1166 66.5003 98.1168C66.5288 98.7101 66.525 99.3424 66.644 99.9242Z" fill="#8C6750"/>
  <path d="M68.1728 26.2393L68.2353 26.2579C68.4922 26.331 69.1044 26.4945 69.3454 26.3759C69.5604 26.2701 69.8673 25.8706 70.0467 25.6947L71.826 24.0076C73.9255 22.1287 76.4222 20.5625 79.0186 19.4746C80.233 18.9657 81.6345 18.4699 82.9749 18.6136C84.1155 18.7358 85.0389 19.3607 85.7327 20.2585C87.645 22.7336 87.5814 27.7253 87.1745 30.7026C86.767 33.6852 85.9853 36.6622 84.2963 39.1818C84.0845 39.4978 83.9525 39.873 83.6593 40.1226L83.0702 41.4286L83.0587 41.5281C83.0307 41.76 82.9916 41.9159 82.9151 42.1342C82.7706 42.5465 82.8222 43.1853 82.8377 43.6249C83.068 43.3514 83.296 43.0125 83.6089 42.8332L83.5786 42.914C83.3877 43.4029 83.1083 43.8459 82.8432 44.2969C81.9662 45.7886 80.8529 47.2038 79.6835 48.4779C78.6703 49.5818 77.4802 50.6852 76.6905 51.9668C75.9258 53.208 75.5476 54.7734 75.6314 56.2242C75.6805 57.0737 75.8185 57.9294 76.1534 58.7168C76.4287 59.3644 76.7787 59.9498 77.2011 60.5114C77.8554 61.3815 82.4842 66.6196 82.3785 67.3076C81.7028 67.2049 81.039 67.0449 80.39 66.8294C79.8637 66.6547 79.2654 66.3801 78.7126 66.3177C79.1566 67.3185 79.6232 68.3323 79.9036 69.3937C79.616 69.9841 79.5806 70.8178 79.4114 71.4585C79.075 72.7323 78.5573 73.9533 77.9682 75.1287C73.8953 83.2535 65.3368 88.5386 56.9559 91.3109L59.6393 89.4643C62.0041 87.7129 64.2402 85.7988 66.2703 83.6676C67.6347 82.2351 68.9475 80.6733 69.8852 78.9206C71.1722 76.515 71.2388 74.4013 70.4557 71.8071C71.8291 72.8646 72.6349 74.372 73.2452 75.9562C73.4695 74.5774 73.6301 73.2125 73.3489 71.8266C72.8556 69.3949 71.2569 68.0377 69.289 66.7508C71.9065 67.3676 74.4039 68.1115 76.5953 69.7388C76.381 68.9876 76.1756 68.216 75.8463 67.5058C75.1469 65.9971 73.9544 64.7181 72.6099 63.7584C73.4625 63.9925 74.2939 64.2152 75.1246 64.5255C76.6593 65.099 78.2272 65.8667 79.8467 66.1529C79.4513 65.0683 78.8517 64.1477 78.0906 63.2836C77.2154 62.2899 76.1544 61.5341 75.0372 60.8335C71.9304 58.8852 68.3569 57.6075 64.7667 56.9181C64.0783 56.7859 63.3618 56.6091 62.6625 56.5649C62.2846 56.1616 61.8595 55.7928 61.4529 55.4188C61.1089 55.1023 60.7731 54.7548 60.3378 54.5693L60.3137 54.575C58.3425 53.2137 56.404 51.3667 55.3572 49.195C53.2769 44.8796 54.0214 39.3807 55.5345 35.0168C56.6812 35.2164 57.8116 35.4072 58.9296 35.7395C59.7344 35.9789 60.5342 36.352 61.3493 36.5271C63.192 32.8227 65.2491 29.2145 68.1728 26.2393Z" fill="#8C6750"/>
  <path d="M59.1109 39.3023C59.8297 39.2392 60.5764 39.4117 61.2003 39.7753C61.7476 40.0943 62.2345 40.6494 62.382 41.2744C62.5093 41.8135 62.3927 42.3974 62.0882 42.8566C61.615 43.5703 60.9423 43.9222 60.1339 44.1084C59.53 44.1556 58.9243 44.1465 58.3667 43.8786C57.7161 43.5658 57.1349 42.9976 56.9003 42.3049C56.7232 41.7821 56.8347 41.1991 57.1014 40.7341C57.5443 39.9622 58.2872 39.5468 59.1109 39.3023Z" fill="#EFE9E3"/>
  <path d="M61.8736 45.2581C62.4572 45.2371 63.0566 45.3577 63.5728 45.6341C64.3666 46.0589 65.0742 46.8528 65.307 47.7341C65.5503 48.6553 65.4254 49.4741 64.9308 50.2803C64.3865 51.1674 63.6057 51.5526 62.6324 51.7984C61.7462 51.9039 61.0145 51.7914 60.2638 51.2652C59.5118 50.7382 58.9872 49.9166 58.8487 49.0074C58.7166 48.1397 58.9852 47.1864 59.5225 46.5017C60.1221 45.7374 60.9321 45.3897 61.8736 45.2581Z" fill="#19191B"/>
  <path d="M61.1734 46.2103L61.6296 46.2079C61.9535 46.2201 62.1862 46.3393 62.3959 46.5877C62.6233 46.8571 62.7011 47.1557 62.644 47.5064C62.5657 47.9876 62.1911 48.2565 61.8096 48.5C61.6072 48.5173 61.3805 48.5514 61.1801 48.5069C60.899 48.4445 60.6448 48.2436 60.4929 48.0023C60.3145 47.7191 60.2734 47.3608 60.3603 47.0369C60.4779 46.599 60.7979 46.4134 61.1734 46.2103Z" fill="#EFE9E3"/>
  <path d="M83.0704 41.4286C82.6806 41.994 82.399 42.6917 82.0545 43.2924C81.5052 44.2508 80.8329 45.1516 80.108 45.9836C79.5137 46.6657 78.8946 47.3229 78.0596 47.7064C76.9216 48.2292 75.8001 47.9888 74.7978 47.2947C73.7242 46.5516 72.9538 45.322 72.1234 44.3277C69.6392 41.3534 66.6042 38.3279 62.8955 36.9805C64.5551 33.2128 66.7679 29.7785 69.3092 26.5502L69.6025 26.5611C70.9495 26.753 72.1366 27.414 73.1075 28.3497C71.7784 30.2076 70.5656 32.0676 69.7503 34.2187C69.336 35.3115 69.073 36.447 68.78 37.5761L68.3324 39.1817L69.7747 40.5788L70.0433 40.8421L71.4369 42.4394L73.2708 44.5794C76.413 42.1598 78.8734 39.2414 80.4429 35.5703L84.4546 37.3936L83.6595 40.1226L83.0704 41.4286Z" fill="#8C6750"/>
  <path d="M73.1077 28.3497C74.9265 26.1967 76.8297 24.2994 79.2701 22.8544C79.9439 22.4557 80.6337 22.0499 81.3736 21.7872C82.0511 23.9219 82.3314 26.2982 82.0852 28.529C81.8137 30.9873 81.2555 33.2393 80.443 35.5703C78.8735 39.2413 76.4131 42.1598 73.2709 44.5793L71.4371 42.4393L70.0435 40.8421L69.7748 40.5788L68.3325 39.1816L68.7801 37.576C69.0732 36.4469 69.3362 35.3114 69.7504 34.2186C70.5657 32.0676 71.7785 30.2075 73.1077 28.3497Z" fill="#EFE9E3"/>
  <path d="M70.0435 40.8422C72.3873 39.0966 74.7698 37.8577 77.5912 37.0728C76.9567 37.4821 76.2694 37.8054 75.6243 38.1983C73.8967 39.2506 72.4962 40.7296 71.4371 42.4394L70.0435 40.8422Z" fill="#8C6750"/>
  <path d="M68.7801 37.5761C69.6428 36.7778 70.4944 35.9614 71.447 35.2692C71.9698 34.8893 72.5477 34.5912 73.109 34.2727C75.1687 33.104 77.3342 32.2414 79.6577 31.7689C75.7112 33.4125 71.7477 35.8489 70.0048 39.9526L69.7748 40.5788L68.3325 39.1816L68.7801 37.5761Z" fill="#8C6750"/>
  </svg>
  