<svg width="16" height="16" viewBox="0 0 16 16" fill="none" xmlns="http://www.w3.org/2000/svg">
<path d="M5.79181 8.55153L5.46859 8.17004L5.46858 8.17005L5.79181 8.55153ZM5.82482 8.51992L5.46857 8.16907L5.46818 8.16947L5.82482 8.51992ZM4.43624 9.7001L4.11302 9.31862L4.11301 9.31862L4.43624 9.7001ZM4.36199 9.77828L4.77239 10.0639L4.77239 10.0639L4.36199 9.77828ZM11.5578 8.59951L11.2116 8.96021V8.96021L11.5578 8.59951ZM10.4009 7.48885L10.0546 7.84954L10.0546 7.84954L10.4009 7.48885ZM9.97125 7.48583L9.63009 7.1203L9.62882 7.12149L9.97125 7.48583ZM7.82829 9.49989L8.16946 9.86542L8.17072 9.86423L7.82829 9.49989ZM7.39205 9.49036L7.03406 9.83943L7.03478 9.84016L7.39205 9.49036ZM7.38642 9.48459L7.02809 9.83331L7.02843 9.83366L7.38642 9.48459ZM7.35579 9.45486L7.68316 9.07693L7.68315 9.07692L7.35579 9.45486ZM6.31184 8.55063L6.6392 8.17269L6.6392 8.17269L6.31184 8.55063ZM6.2811 8.52076L6.63954 8.17217L6.6392 8.17182L6.2811 8.52076ZM6.27559 8.51512L6.6337 8.16618L6.63302 8.16548L6.27559 8.51512ZM5.83074 8.5139L5.47521 8.16233L5.4745 8.16305L5.83074 8.5139ZM10.6997 4.62488V4.12488C10.4236 4.12488 10.1997 4.34873 10.1997 4.62488H10.6997ZM10.9142 4.62488H11.4142C11.4142 4.34873 11.1903 4.12488 10.9142 4.12488V4.62488ZM10.9142 4.80652V5.30652C11.1903 5.30652 11.4142 5.08266 11.4142 4.80652H10.9142ZM10.6997 4.80652H10.1997C10.1997 5.08266 10.4236 5.30652 10.6997 5.30652V4.80652ZM2 4.25H1.5V11.75H2H2.5V4.25H2ZM4.25 14V14.5H11.75V14V13.5H4.25V14ZM14 11.75H14.5V4.25H14H13.5V11.75H14ZM11.75 2V1.5H4.25V2V2.5H11.75V2ZM14 4.25H14.5C14.5 2.73122 13.2688 1.5 11.75 1.5V2V2.5C12.7165 2.5 13.5 3.2835 13.5 4.25H14ZM11.75 14V14.5C13.2688 14.5 14.5 13.2688 14.5 11.75H14H13.5C13.5 12.7165 12.7165 13.5 11.75 13.5V14ZM2 11.75H1.5C1.5 13.2688 2.73122 14.5 4.25 14.5V14V13.5C3.2835 13.5 2.5 12.7165 2.5 11.75H2ZM2 4.25H2.5C2.5 3.2835 3.2835 2.5 4.25 2.5V2V1.5C2.73122 1.5 1.5 2.73122 1.5 4.25H2ZM5.79181 8.55153L6.11503 8.93301C6.14697 8.90594 6.17346 8.87849 6.18145 8.87036L5.82482 8.51992L5.46818 8.16947C5.46535 8.17236 5.46367 8.17406 5.46215 8.17559C5.46075 8.177 5.46017 8.17757 5.4601 8.17763C5.45985 8.17787 5.46302 8.17476 5.46859 8.17004L5.79181 8.55153ZM4.43624 9.7001L4.75947 10.0816L6.11503 8.933L5.79181 8.55153L5.46858 8.17005L4.11302 9.31862L4.43624 9.7001ZM4.36199 9.77828L4.77239 10.0639C4.76428 10.0755 4.75768 10.0826 4.75533 10.085C4.75315 10.0873 4.75369 10.0865 4.75947 10.0816L4.43624 9.7001L4.11301 9.31862C4.07113 9.35411 4.0079 9.41175 3.95158 9.49268L4.36199 9.77828ZM4.25 10.1353H4.75C4.75 10.1097 4.75786 10.0848 4.77239 10.0639L4.36199 9.77828L3.95158 9.49268C3.82079 9.68063 3.75 9.90475 3.75 10.1353H4.25ZM4.25 11.4375H4.75V10.1353H4.25H3.75V11.4375H4.25ZM4.5625 11.75V11.25C4.66605 11.25 4.75 11.3339 4.75 11.4375H4.25H3.75C3.75 11.8862 4.11377 12.25 4.5625 12.25V11.75ZM11.4375 11.75V11.25H4.5625V11.75V12.25H11.4375V11.75ZM11.75 11.4375H11.25C11.25 11.3339 11.3339 11.25 11.4375 11.25V11.75V12.25C11.8862 12.25 12.25 11.8862 12.25 11.4375H11.75ZM11.75 9.05038H11.25V11.4375H11.75H12.25V9.05038H11.75ZM11.5578 8.59951L11.2116 8.96021C11.2361 8.98378 11.25 9.01634 11.25 9.05038H11.75H12.25C12.25 8.74405 12.1251 8.45096 11.9041 8.23882L11.5578 8.59951ZM10.4009 7.48885L10.0546 7.84954L11.2116 8.96021L11.5578 8.59951L11.9041 8.23882L10.7472 7.12816L10.4009 7.48885ZM9.97125 7.48583L10.3124 7.85136C10.2396 7.91929 10.1264 7.91849 10.0546 7.84954L10.4009 7.48885L10.7472 7.12816C10.4359 6.82939 9.94548 6.82594 9.63009 7.1203L9.97125 7.48583ZM7.82829 9.49989L8.17072 9.86423L10.3137 7.85017L9.97125 7.48583L9.62882 7.12149L7.48587 9.13555L7.82829 9.49989ZM7.39205 9.49036L7.03478 9.84016C7.34055 10.1525 7.84435 10.1688 8.16945 9.86542L7.82829 9.49989L7.48713 9.13436C7.56232 9.06419 7.67843 9.06816 7.74931 9.14056L7.39205 9.49036ZM7.38642 9.48459L7.02843 9.83366L7.03406 9.83943L7.39205 9.49036L7.75003 9.14129L7.7444 9.13552L7.38642 9.48459ZM7.35579 9.45486L7.02843 9.83279C7.02328 9.82833 7.02034 9.82541 7.02058 9.82564C7.02064 9.82571 7.02118 9.82624 7.02249 9.82757C7.0239 9.829 7.02546 9.8306 7.02809 9.83331L7.38642 9.48459L7.74474 9.13587C7.73733 9.12826 7.7127 9.10252 7.68316 9.07693L7.35579 9.45486ZM6.31184 8.55063L5.98449 8.92857L7.02844 9.8328L7.35579 9.45486L7.68315 9.07692L6.6392 8.17269L6.31184 8.55063ZM6.2811 8.52076L5.92265 8.86936C5.93011 8.87703 5.95482 8.90287 5.98449 8.92857L6.31184 8.55063L6.6392 8.17269C6.64436 8.17716 6.64731 8.1801 6.64708 8.17986C6.64701 8.1798 6.64648 8.17927 6.64516 8.17794C6.64375 8.1765 6.64218 8.17489 6.63954 8.17217L6.2811 8.52076ZM6.27559 8.51512L5.91749 8.86406L5.92299 8.86971L6.2811 8.52076L6.6392 8.17182L6.6337 8.16618L6.27559 8.51512ZM5.83074 8.5139L6.18628 8.86546C6.1121 8.94047 5.99203 8.94026 5.91816 8.86475L6.27559 8.51512L6.63302 8.16548C6.31589 7.84128 5.79369 7.84026 5.47521 8.16233L5.83074 8.5139ZM5.82482 8.51992L6.18106 8.87076L6.18699 8.86474L5.83074 8.5139L5.4745 8.16305L5.46857 8.16907L5.82482 8.51992ZM10.6997 4.62488V5.12488H10.9142V4.62488V4.12488H10.6997V4.62488ZM10.9142 4.62488H10.4142V4.80652H10.9142H11.4142V4.62488H10.9142ZM10.9142 4.80652V4.30652H10.6997V4.80652V5.30652H10.9142V4.80652ZM10.6997 4.80652H11.1997V4.62488H10.6997H10.1997V4.80652H10.6997Z" fill="black"/>
</svg>
