<svg width="32" height="32" viewBox="0 0 32 32" fill="none" xmlns="http://www.w3.org/2000/svg">
<path d="M11.5836 17.1031L11.0988 16.5308L11.0988 16.5308L11.5836 17.1031ZM11.6496 17.0398L11.1153 16.5136L11.1147 16.5142L11.6496 17.0398ZM8.87249 19.4002L8.38765 18.828L8.38764 18.828L8.87249 19.4002ZM8.72397 19.5566L9.33958 19.985L9.33958 19.985L8.72397 19.5566ZM23.1157 17.199L22.5963 17.7401V17.7401L23.1157 17.199ZM20.8018 14.9777L20.2824 15.5187V15.5187L20.8018 14.9777ZM19.9425 14.9717L19.4308 14.4234L19.4289 14.4251L19.9425 14.9717ZM15.6566 18.9998L16.1683 19.5481L16.1702 19.5463L15.6566 18.9998ZM14.7841 18.9807L14.2471 19.5043L14.2482 19.5054L14.7841 18.9807ZM14.7728 18.9692L14.2353 19.4923L14.2359 19.4928L14.7728 18.9692ZM14.7116 18.9097L15.2026 18.3428L15.2026 18.3428L14.7116 18.9097ZM12.6237 17.1013L13.1147 16.5344L13.1147 16.5343L12.6237 17.1013ZM12.5622 17.0415L13.0999 16.5186L13.0993 16.5181L12.5622 17.0415ZM12.5512 17.0302L13.0883 16.5068L13.0873 16.5058L12.5512 17.0302ZM11.6615 17.0278L11.1282 16.5004L11.1271 16.5015L11.6615 17.0278ZM21.3994 9.24975V8.49975C20.9852 8.49975 20.6494 8.83554 20.6494 9.24975H21.3994ZM21.8284 9.24975H22.5784C22.5784 8.83554 22.2426 8.49975 21.8284 8.49975V9.24975ZM21.8284 9.61303V10.363C22.2426 10.363 22.5784 10.0272 22.5784 9.61303H21.8284ZM21.3994 9.61303H20.6494C20.6494 10.0272 20.9852 10.363 21.3994 10.363V9.61303ZM4 8.5H3.25V23.5H4H4.75V8.5H4ZM8.5 28V28.75H23.5V28V27.25H8.5V28ZM28 23.5H28.75V8.5H28H27.25V23.5H28ZM23.5 4V3.25H8.5V4V4.75H23.5V4ZM28 8.5H28.75C28.75 5.60051 26.3995 3.25 23.5 3.25V4V4.75C25.5711 4.75 27.25 6.42893 27.25 8.5H28ZM23.5 28V28.75C26.3995 28.75 28.75 26.3995 28.75 23.5H28H27.25C27.25 25.5711 25.5711 27.25 23.5 27.25V28ZM4 23.5H3.25C3.25 26.3995 5.60051 28.75 8.5 28.75V28V27.25C6.42893 27.25 4.75 25.5711 4.75 23.5H4ZM4 8.5H4.75C4.75 6.42893 6.42893 4.75 8.5 4.75V4V3.25C5.60051 3.25 3.25 5.60051 3.25 8.5H4ZM11.5836 17.1031L12.0684 17.6753C12.1222 17.6298 12.1673 17.5831 12.1846 17.5655L11.6496 17.0398L11.1147 16.5142C11.1091 16.5199 11.1052 16.5238 11.1016 16.5274C11.0982 16.5309 11.096 16.5331 11.0945 16.5345C11.0914 16.5375 11.0933 16.5354 11.0988 16.5308L11.5836 17.1031ZM8.87249 19.4002L9.35733 19.9724L12.0685 17.6753L11.5836 17.1031L11.0988 16.5308L8.38765 18.828L8.87249 19.4002ZM8.72397 19.5566L9.33958 19.985C9.33256 19.9951 9.3285 19.9988 9.33125 19.996C9.33425 19.9929 9.34177 19.9856 9.35733 19.9724L8.87249 19.4002L8.38764 18.828C8.31105 18.8929 8.20316 18.992 8.10837 19.1282L8.72397 19.5566ZM8.5 20.2706H9.25C9.25 20.1681 9.28146 20.0685 9.33958 19.985L8.72397 19.5566L8.10837 19.1282C7.87585 19.4623 7.75 19.8607 7.75 20.2706H8.5ZM8.5 22.875H9.25V20.2706H8.5H7.75V22.875H8.5ZM9.125 23.5V22.75C9.19403 22.75 9.25 22.806 9.25 22.875H8.5H7.75C7.75 23.6344 8.36561 24.25 9.125 24.25V23.5ZM22.875 23.5V22.75H9.125V23.5V24.25H22.875V23.5ZM23.5 22.875H22.75C22.75 22.806 22.806 22.75 22.875 22.75V23.5V24.25C23.6344 24.25 24.25 23.6344 24.25 22.875H23.5ZM23.5 18.1008H22.75V22.875H23.5H24.25V18.1008H23.5ZM23.1157 17.199L22.5963 17.7401C22.6945 17.8344 22.75 17.9646 22.75 18.1008H23.5H24.25C24.25 17.5562 24.0279 17.0351 23.6351 16.658L23.1157 17.199ZM20.8018 14.9777L20.2824 15.5187L22.5963 17.7401L23.1157 17.199L23.6351 16.658L21.3212 14.4367L20.8018 14.9777ZM19.9425 14.9717L20.4542 15.5199C20.4057 15.5652 20.3303 15.5647 20.2824 15.5187L20.8018 14.9777L21.3212 14.4367C20.7945 13.931 19.9645 13.9252 19.4308 14.4234L19.9425 14.9717ZM15.6566 18.9998L16.1702 19.5463L20.4561 15.5182L19.9425 14.9717L19.4289 14.4251L15.1429 18.4533L15.6566 18.9998ZM14.7841 18.9807L14.2482 19.5054C14.7656 20.0338 15.6182 20.0615 16.1683 19.5481L15.6566 18.9998L15.1448 18.4515C15.1951 18.4045 15.2724 18.4074 15.32 18.456L14.7841 18.9807ZM14.7728 18.9692L14.2359 19.4928L14.2471 19.5043L14.7841 18.9807L15.3211 18.4571L15.3098 18.4456L14.7728 18.9692ZM14.7116 18.9097L14.2205 19.4766C14.2155 19.4722 14.2137 19.4703 14.2166 19.4732C14.2179 19.4745 14.22 19.4766 14.2232 19.4798C14.2266 19.4832 14.2302 19.4869 14.2353 19.4923L14.7728 18.9692L15.3103 18.4461C15.2942 18.4296 15.2523 18.3859 15.2026 18.3428L14.7116 18.9097ZM12.6237 17.1013L12.1327 17.6682L14.2206 19.4766L14.7116 18.9097L15.2026 18.3428L13.1147 16.5344L12.6237 17.1013ZM12.5622 17.0415L12.0245 17.5644C12.0407 17.581 12.0828 17.6249 12.1327 17.6682L12.6237 17.1013L13.1147 16.5343C13.1198 16.5387 13.1216 16.5407 13.1187 16.5378C13.1173 16.5365 13.1153 16.5344 13.112 16.5311C13.1087 16.5277 13.1051 16.524 13.0999 16.5186L12.5622 17.0415ZM12.5512 17.0302L12.014 17.5536L12.025 17.5649L12.5622 17.0415L13.0993 16.5181L13.0883 16.5068L12.5512 17.0302ZM11.6615 17.0278L12.1948 17.5551C12.1446 17.6059 12.065 17.6058 12.015 17.5547L12.5512 17.0302L13.0873 16.5058C12.5508 15.9573 11.667 15.9556 11.1282 16.5004L11.6615 17.0278ZM11.6496 17.0398L12.184 17.5661L12.1959 17.5541L11.6615 17.0278L11.1271 16.5015L11.1153 16.5136L11.6496 17.0398ZM21.3994 9.24975V9.99975H21.8284V9.24975V8.49975H21.3994V9.24975ZM21.8284 9.24975H21.0784V9.61303H21.8284H22.5784V9.24975H21.8284ZM21.8284 9.61303V8.86303H21.3994V9.61303V10.363H21.8284V9.61303ZM21.3994 9.61303H22.1494V9.24975H21.3994H20.6494V9.61303H21.3994Z" fill="currentColor"/>
</svg>
