<svg width="20" height="20" viewBox="0 0 20 20" fill="none" xmlns="http://www.w3.org/2000/svg">
<path d="M6.14754 8.49261L4.28632 10.3538C3.59121 11.0489 3.19148 11.9947 3.19878 12.9888C3.20609 13.9828 3.59708 14.9343 4.32517 15.6399C5.03074 16.3681 5.98252 16.759 6.97637 16.7663C7.99289 16.7738 8.91631 16.3966 9.61146 15.7015L11.4727 13.8403M13.85 11.5084L15.7112 9.64717C16.4063 8.95206 16.8061 8.00625 16.7988 7.01224C16.7915 6.01823 16.4005 5.06666 15.6724 4.36105C14.967 3.65564 14.0154 3.26464 13.0214 3.25733C12.0273 3.25003 11.0814 3.62707 10.3863 4.3222L8.52505 6.18341M7.17636 12.7731L12.76 7.1895" stroke="currentColor" stroke-width="1.2" stroke-linecap="round" stroke-linejoin="round"/>
</svg>
