<svg width="32" height="32" viewBox="0 0 32 32" fill="none" xmlns="http://www.w3.org/2000/svg">
<path d="M15.8067 12.2609C16.2209 12.2609 16.5567 11.9251 16.5567 11.5109C16.5567 11.0966 16.2209 10.7609 15.8067 10.7609V11.5109V12.2609ZM12.14 10.7609C11.7258 10.7609 11.39 11.0966 11.39 11.5109C11.39 11.9251 11.7258 12.2609 12.14 12.2609V11.5109V10.7609ZM20.8067 21.4368L20.0567 21.4316V21.4368H20.8067ZM20.8067 10.0294H20.0567L20.0567 10.032L20.8067 10.0294ZM21.1644 18.2426C20.7928 18.0595 20.3432 18.2124 20.1602 18.584C19.9772 18.9555 20.13 19.4051 20.5016 19.5882L20.833 18.9154L21.1644 18.2426ZM27.0329 21.9692L27.4229 21.3286C27.4039 21.317 27.3843 21.3063 27.3643 21.2964L27.0329 21.9692ZM28.3327 21.3139L27.5826 21.317L27.5828 21.3299L28.3327 21.3139ZM28.2892 10.5211L29.0392 10.5181C29.0392 10.5036 29.0387 10.4892 29.0378 10.4748L28.2892 10.5211ZM26.9418 9.80297L27.2521 10.4858C27.2663 10.4793 27.2802 10.4725 27.294 10.4651L26.9418 9.80297ZM20.833 17.6365L21.583 17.6417L21.583 17.6339L20.833 17.6365ZM15.8067 11.5109V10.7609H12.14V11.5109V12.2609H15.8067V11.5109ZM6.66602 7.06641V7.81641H17.8067V7.06641V6.31641H6.66602V7.06641ZM17.8067 24.3997V23.6497H6.66602V24.3997V25.1497H17.8067V24.3997ZM3.66602 21.4368H4.41602V10.0294H3.66602H2.91602V21.4368H3.66602ZM6.66602 24.3997V23.6497C5.41456 23.6497 4.41602 22.6502 4.41602 21.4368H3.66602H2.91602C2.91602 23.4961 4.60376 25.1497 6.66602 25.1497V24.3997ZM20.8067 21.4368H20.0567C20.0567 22.6502 19.0581 23.6497 17.8067 23.6497V24.3997V25.1497C19.8689 25.1497 21.5567 23.4961 21.5567 21.4368H20.8067ZM17.8067 7.06641V7.81641C19.0581 7.81641 20.0567 8.81594 20.0567 10.0294H20.8067H21.5567C21.5567 7.97 19.8689 6.31641 17.8067 6.31641V7.06641ZM6.66602 7.06641V6.31641C4.60376 6.31641 2.91602 7.97 2.91602 10.0294H3.66602H4.41602C4.41602 8.81594 5.41456 7.81641 6.66602 7.81641V7.06641ZM20.833 18.9154L20.5016 19.5882L26.7015 22.642L27.0329 21.9692L27.3643 21.2964L21.1644 18.2426L20.833 18.9154ZM27.0329 21.9692L26.6429 22.6099C27.1018 22.8892 27.6967 23.0211 28.2373 22.7785C28.8273 22.5138 29.0958 21.9244 29.0825 21.298L28.3327 21.3139L27.5828 21.3299C27.585 21.4315 27.5646 21.4642 27.5684 21.4572C27.5703 21.4538 27.5762 21.4445 27.5877 21.4338C27.5992 21.4231 27.6119 21.4151 27.6233 21.41C27.6463 21.3997 27.6465 21.4083 27.6097 21.4033C27.5725 21.3983 27.5075 21.3801 27.4229 21.3286L27.0329 21.9692ZM28.3327 21.3139L29.0827 21.3109L29.0392 10.5181L28.2892 10.5211L27.5392 10.5241L27.5827 21.317L28.3327 21.3139ZM28.2892 10.5211L29.0378 10.4748C29.0038 9.92675 28.8089 9.30823 28.226 9.0091C27.6636 8.72042 27.052 8.89489 26.5896 9.14079L26.9418 9.80297L27.294 10.4651C27.4327 10.3913 27.5233 10.3673 27.5684 10.3613C27.6087 10.356 27.5876 10.3675 27.5411 10.3436C27.4915 10.3181 27.4802 10.2871 27.4898 10.3067C27.5031 10.3339 27.531 10.4118 27.5406 10.5675L28.2892 10.5211ZM26.9418 9.80297L26.6315 9.12017L20.5052 11.9044L20.8155 12.5872L21.1258 13.27L27.2521 10.4858L26.9418 9.80297ZM20.8067 10.0294L20.0567 10.032L20.083 17.6391L20.833 17.6365L21.583 17.6339L21.5567 10.0268L20.8067 10.0294ZM20.833 17.6365L20.083 17.6313L20.0567 21.4316L20.8067 21.4368L21.5567 21.442L21.583 17.6417L20.833 17.6365Z" fill="currentColor"/>
</svg>
