<svg width="1440" height="175" viewBox="0 0 1440 175" fill="none" xmlns="http://www.w3.org/2000/svg">
  <path d="M81.7241 115.498H118.046C117.816 128.279 115.326 139.112 110.575 147.996C105.824 156.88 99.0805 163.622 90.3448 168.22C81.6092 172.74 71.2644 175 59.3103 175C49.8084 175 41.3793 173.363 34.023 170.09C26.6667 166.739 20.4215 161.907 15.2874 155.595C10.2299 149.282 6.39847 141.527 3.7931 132.331C1.26437 123.135 0 112.614 0 100.768V74.3487C0 62.5807 1.37931 52.0597 4.13793 42.7856C6.89655 33.5115 10.8046 25.7181 15.8621 19.4055C20.9962 13.0149 27.2414 8.18303 34.5977 4.90982C41.954 1.63661 50.1916 0 59.3103 0C71.8008 0 82.2989 2.37698 90.8046 7.13093C99.3103 11.8849 105.862 18.782 110.46 27.8223C115.057 36.8626 117.663 47.8123 118.276 60.6713H81.8391C81.9157 52.878 81.2261 46.7992 79.7701 42.4349C78.3908 37.9926 76.0536 34.8753 72.7586 33.0828C69.4636 31.2124 64.9809 30.2772 59.3103 30.2772C55.249 30.2772 51.7625 31.0566 48.8506 32.6152C45.9387 34.096 43.6015 36.5509 41.8391 39.98C40.0766 43.409 38.7739 47.9292 37.931 53.5404C37.0881 59.1516 36.6667 66.0098 36.6667 74.1149V100.768C36.6667 108.873 37.0115 115.731 37.7012 121.343C38.3908 126.876 39.5785 131.396 41.2644 134.903C42.9502 138.332 45.249 140.826 48.1609 142.385C51.0728 143.943 54.7893 144.723 59.3103 144.723C64.3678 144.723 68.5441 143.943 71.8391 142.385C75.1341 140.748 77.5862 137.826 79.1954 133.617C80.8812 129.409 81.7241 123.369 81.7241 115.498Z" fill="#63656B"/>
  <path d="M230.805 70.7248V100.651H162.529V70.7248H230.805ZM173.793 2.45491V172.662H137.241V2.45491H173.793ZM256.322 2.45491V172.662H220V2.45491H256.322Z" fill="#63656B"/>
  <path d="M378.851 142.619V172.662H305.862V142.619H378.851ZM317.931 2.45491V172.662H281.379V2.45491H317.931ZM369.195 70.7248V99.7161H305.862V70.7248H369.195ZM378.851 2.45491V32.6152H305.862V2.45491H378.851Z" fill="#63656B"/>
  <path d="M396.667 2.45491H452.184C463.372 2.45491 472.989 4.40325 481.035 8.29993C489.081 12.1966 495.249 17.9637 499.54 25.6012C503.908 33.2387 506.092 42.6687 506.092 53.8911C506.092 63.399 504.866 71.4262 502.414 77.9726C499.962 84.4411 496.513 89.8185 492.069 94.1049C487.625 98.3912 482.376 101.859 476.322 104.509L464.713 111.406H420.46L420.345 81.3627H451.264C455.402 81.3627 458.812 80.3885 461.494 78.4402C464.176 76.4919 466.169 73.7252 467.471 70.1403C468.851 66.4774 469.54 62.1521 469.54 57.1643C469.54 52.0207 468.889 47.6175 467.586 43.9546C466.36 40.2917 464.483 37.4861 461.954 35.5377C459.502 33.5894 456.245 32.6152 452.184 32.6152H433.218V172.662H396.667V2.45491ZM471.839 172.662L441.609 97.0274L480 96.9105L510.92 170.908V172.662H471.839Z" fill="#63656B"/>
  <path d="M647.241 2.45491V172.662H611.494L564.138 66.7502V172.662H528.506V2.45491H564.253L611.724 108.951V2.45491H647.241Z" fill="#63656B"/>
  <path d="M697.471 2.45491L720.92 77.7388L744.368 2.45491H783.793L739.425 111.172V172.662H702.529V111.172L658.161 2.45491H697.471Z" fill="#63656B"/>
  <path d="M931.149 115.498H967.471C967.241 128.279 964.751 139.112 960 147.996C955.249 156.88 948.506 163.622 939.77 168.22C931.035 172.74 920.69 175 908.736 175C899.234 175 890.805 173.363 883.448 170.09C876.092 166.739 869.847 161.907 864.713 155.595C859.655 149.282 855.824 141.527 853.219 132.331C850.69 123.135 849.425 112.614 849.425 100.768V74.3487C849.425 62.5807 850.805 52.0597 853.563 42.7856C856.322 33.5115 860.23 25.7181 865.287 19.4055C870.422 13.0149 876.667 8.18303 884.023 4.90982C891.379 1.63661 899.617 0 908.736 0C921.226 0 931.724 2.37698 940.23 7.13093C948.736 11.8849 955.287 18.782 959.885 27.8223C964.483 36.8626 967.088 47.8123 967.701 60.6713H931.264C931.341 52.878 930.651 46.7992 929.195 42.4349C927.816 37.9926 925.479 34.8753 922.184 33.0828C918.889 31.2124 914.406 30.2772 908.736 30.2772C904.674 30.2772 901.188 31.0566 898.276 32.6152C895.364 34.096 893.027 36.5509 891.264 39.98C889.502 43.409 888.199 47.9292 887.356 53.5404C886.513 59.1516 886.092 66.0098 886.092 74.1149V100.768C886.092 108.873 886.437 115.731 887.127 121.343C887.816 126.876 889.004 131.396 890.69 134.903C892.376 138.332 894.674 140.826 897.586 142.385C900.498 143.943 904.215 144.723 908.736 144.723C913.793 144.723 917.969 143.943 921.264 142.385C924.56 140.748 927.012 137.826 928.621 133.617C930.307 129.409 931.149 123.369 931.149 115.498Z" fill="#63656B"/>
  <path d="M1080.23 70.7248V100.651H1011.95V70.7248H1080.23ZM1023.22 2.45491V172.662H986.667V2.45491H1023.22ZM1105.75 2.45491V172.662H1069.43V2.45491H1105.75Z" fill="#63656B"/>
  <path d="M1168.97 2.45491V172.662H1132.53V2.45491H1168.97Z" fill="#63656B"/>
  <path d="M1301.72 142.619V172.662H1200.69V142.619H1301.72ZM1301.03 23.0294L1217.82 172.662H1191.84V151.503L1276.09 2.45491H1301.03V23.0294ZM1289.08 2.45491V32.6152H1190.8V2.45491H1289.08Z" fill="#63656B"/>
  <path d="M1414.48 70.7248V100.651H1346.21V70.7248H1414.48ZM1357.47 2.45491V172.662H1320.92V2.45491H1357.47ZM1440 2.45491V172.662H1403.68V2.45491H1440Z" fill="#63656B"/>
  </svg>
  