<svg width="16" height="16" viewBox="0 0 16 16" fill="none" xmlns="http://www.w3.org/2000/svg">
<path d="M4.14173 7.77607L4.10333 8.37067L4.72712 8.41093L4.73747 7.78593L4.14173 7.77607ZM11.1137 5.98601L10.5639 6.21567L10.8029 6.78773L11.3651 6.52626L11.1137 5.98601ZM7.80807 12.1289C8.13714 12.1289 8.40387 11.8621 8.40387 11.533C8.40387 11.2039 8.13714 10.9372 7.80807 10.9372V12.1289ZM4.78801 7.17267C4.83715 6.84727 4.61321 6.54367 4.28781 6.49451C3.96243 6.44539 3.65883 6.66933 3.6097 6.99473L4.78801 7.17267ZM12.5648 10.4708C12.2758 10.6281 12.1691 10.99 12.3264 11.279C12.4838 11.5679 12.8457 11.6747 13.1346 11.5173L12.5648 10.4708ZM6.20777 3.45055C5.90314 3.57497 5.75705 3.92281 5.88147 4.22745C6.00591 4.53209 6.35373 4.67817 6.65837 4.55375L6.20777 3.45055ZM3.22468 12.1287L5.05759 12.1289L5.05769 10.9372L3.22479 10.937L3.22468 12.1287ZM1.25391 10.1578C1.25391 10.379 1.25437 10.6207 1.28397 10.8394C1.31427 11.0633 1.3815 11.3211 1.55631 11.5503C1.91905 12.0262 2.53861 12.1287 3.22468 12.1287L3.22479 10.937C2.91279 10.937 2.72288 10.9097 2.60953 10.8759C2.55599 10.8599 2.52817 10.8451 2.51585 10.8371C2.50979 10.8333 2.50681 10.8307 2.50574 10.8297C2.50473 10.8288 2.50431 10.8283 2.50397 10.8278C2.50377 10.8276 2.49821 10.8206 2.49053 10.7987C2.4823 10.7752 2.47276 10.7378 2.46487 10.6795C2.44795 10.5545 2.44557 10.3951 2.44557 10.1578H1.25391ZM4.18011 7.18147C2.56635 7.07727 1.25391 8.58553 1.25391 10.1578H2.44557C2.44557 9.13907 3.30409 8.31907 4.10333 8.37067L4.18011 7.18147ZM7.80827 4.33717C9.12101 4.33717 10.0899 5.08079 10.5639 6.21567L11.6635 5.75635C11.0242 4.22577 9.65147 3.14551 7.80827 3.14551V4.33717ZM15.2792 7.86647C15.2792 6.74493 14.7211 5.85691 13.8489 5.40251C12.9915 4.95583 11.9021 4.96221 10.8625 5.44575L11.3651 6.52626C12.1257 6.17246 12.8211 6.21067 13.2983 6.45935C13.7609 6.70033 14.0875 7.1712 14.0875 7.86647H15.2792ZM7.80807 10.9372H5.05769L5.05759 12.1289H7.80807V10.9372ZM4.73747 7.78593C4.74096 7.5756 4.7581 7.37074 4.78801 7.17267L3.6097 6.99473C3.57173 7.24627 3.55032 7.50407 3.54597 7.7662L4.73747 7.78593ZM13.1346 11.5173C14.4763 10.7867 15.2792 9.46113 15.2792 7.86647H14.0875C14.0875 9.02727 13.521 9.95 12.5648 10.4708L13.1346 11.5173ZM6.65837 4.55375C6.99674 4.41553 7.38054 4.33717 7.80827 4.33717V3.14551C7.23241 3.14551 6.69501 3.25155 6.20777 3.45055L6.65837 4.55375Z" fill="currentColor"/>
<path d="M4.12661 3.34275C3.90647 3.09816 3.52973 3.07833 3.28513 3.29847C3.04054 3.51861 3.02071 3.89535 3.24085 4.13994L4.12661 3.34275ZM11.4909 13.3066C11.711 13.5513 12.0877 13.5711 12.3323 13.3509C12.5769 13.1307 12.5967 12.754 12.3766 12.5095L11.4909 13.3066ZM3.24085 4.13994L11.4909 13.3066L12.3766 12.5095L4.12661 3.34275L3.24085 4.13994Z" fill="currentColor"/>
</svg>
